<svg xmlns="http://www.w3.org/2000/svg" height="343.608" width="220"><defs><clipPath id="a" clipPathUnits="userSpaceOnUse"><path d="M45.496 27.18h90.983v50.822H45.496z"/></clipPath></defs><g clip-path="url(#a)" transform="matrix(7.09242 0 0 -7.09242 -331.691 536.436)"><path style="fill:#fff;fill-rule:nonzero;fill-opacity:1" d="M0 0c-4.979 1.342-9.098 3.572-11.727 6.565-2.51 2.846-3.789 6.401-3.784 10.414v19.896h31.019V16.979c.006-4.013-1.272-7.568-3.783-10.414C9.096 3.572 4.982 1.342 0 0" transform="translate(62.278 27.188)"/><path style="fill:#fff;fill-rule:nonzero" d="M0 0c0-7.641-4.938-13.041-14.187-15.603C-23.44-13.041-28.342-7.641-28.342 0v18.377H0z" transform="translate(76.433 44.166)"/><path style="fill:#2b57ac;fill-rule:nonzero" d="M0 0c0-7.486-4.835-12.775-13.897-15.285C-22.962-12.775-27.763-7.486-27.763 0v18.004H0zm-28.533 18.754V-.002c0-3.832 1.202-7.146 3.567-9.837 2.479-2.824 6.201-4.919 11.066-6.23 4.868 1.311 8.592 3.406 11.072 6.23C-.463-7.148.736-3.834.736-.002v18.756z" transform="translate(76.175 44.169)"/><path style="fill:#1c5329;fill-rule:nonzero" d="m0 0-.008.135H-.09C-.15.102-.22.012-.269-.118L-.292-.18c-.057-.177-.055-.312-.055-.312s.133.135.213.243l.034.051L0 0" transform="translate(61.847 39.451)"/><path style="fill:#ea1f29;fill-rule:nonzero" d="M0 0c-.097-.068-.34-.287-.196-.628a.667.667 0 0 1 .639-.417l.022.061c.05.13.12.219.18.253a2.216 2.216 0 0 1-.082.366 1.84 1.84 0 0 1-.219.359C.285-.039.177-.051 0 0" transform="translate(61.112 40.317)"/><path style="fill:#ea1f29;fill-rule:nonzero" d="M0 0c-.04.056-.068.182-.082.368v.037c-.104.084-.468.334-.815.05-.359-.29-.227-.663-.166-.792l.294-.094c.081.064.217.168.345.248C-.292-.1-.116-.034 0 0" transform="translate(62.252 40.86)"/><path style="fill:#1c5329;fill-rule:nonzero" d="M0 0a.848.848 0 0 1-.388-.023s.053-.107.335-.187l.007-.001C.132-.262.24-.249.299-.217l.055.077-.028.041-.295.095L0 0" transform="translate(61.158 40.528)"/><path style="fill:#ea1f29;fill-rule:nonzero" d="M0 0c-.133.003-.335 0-.494-.033a2.893 2.893 0 0 1-.521-.192l-.1-.197-.034-.052a.808.808 0 0 1 .732-.292c.482.06.602.392.623.473l-.032.038L0 0" transform="translate(62.862 39.676)"/><path style="fill:#ea1f29;fill-rule:nonzero" d="m0 0-.125-.062C-.251-.109-.36-.152-.43-.156a1.218 1.218 0 0 1-.062-.3c-.008-.118.012-.25.028-.338a1.2 1.2 0 0 0 .21-.221l.022-.03.047-.077c.143-.006.459.034.526.484C.419-.135.07-.018 0 0" transform="translate(63.427 40.58)"/><path style="fill:#ea1f29;fill-rule:nonzero" d="M0 0c.013.059.106.548-.33.773C-.637.93-.894.766-1.02.654l.013-.083a1.016 1.016 0 0 0-.011-.377c.034-.027.168-.127.315-.197.13-.06.292-.108.335-.118l.235.087L0 0" transform="translate(63.372 40.7)"/><path style="fill:#1c5329;fill-rule:nonzero" d="m0 0-.014.083c-.035.165-.113.188-.113.188S-.204.225-.195-.007v-.037c.013-.185.041-.311.081-.368l.054-.027.046.06.002.003C.013-.295.018-.154 0 0" transform="translate(62.365 41.272)"/><path style="fill:#1c5329;fill-rule:nonzero" d="M0 0c.11.059.232.133.226.144A1.012 1.012 0 0 1-.055.121L-.189.086l-.234-.087-.086-.114.079-.041c.07.004.179.047.305.094L0 0" transform="translate(63.427 40.58)"/><path style="fill:#1c5329;fill-rule:nonzero" d="M0 0c-.08.104-.151.177-.21.222L-.271.26-.332.254-.339.177l.028-.066.173-.255.032-.038.026-.024c.113-.105.215-.109.215-.109s.002.084-.066.209L.021-.03 0 0" transform="translate(63.173 39.565)"/><path style="fill:#f2bb0e;fill-rule:nonzero" d="M0 0c.04-.152-.085-.315-.277-.364-.192-.048-.381.033-.419.184-.04.15.086.312.277.361C-.227.232-.04.151 0 0" transform="translate(62.584 40.315)"/><path style="fill:#1c5329;fill-rule:nonzero" d="m0 0-.008.135h-.083a.495.495 0 0 1-.178-.253l-.02-.062c-.058-.177-.058-.312-.058-.312s.135.135.216.243l.032.051L0 0" transform="translate(72.142 39.451)"/><path style="fill:#ea1f29;fill-rule:nonzero" d="M0 0c-.094-.068-.337-.287-.193-.628a.667.667 0 0 1 .641-.417l.02.061c.047.13.12.219.178.253a2.032 2.032 0 0 1-.08.366c-.05.12-.158.276-.219.359C.289-.039.18-.051 0 0" transform="translate(71.405 40.317)"/><path style="fill:#ea1f29;fill-rule:nonzero" d="M0 0c-.039.056-.067.182-.082.368l-.003.037c-.099.084-.465.334-.812.05-.358-.29-.227-.663-.169-.792l.296-.094c.081.064.218.168.345.248C-.291-.1-.114-.034 0 0" transform="translate(72.548 40.86)"/><path style="fill:#1c5329;fill-rule:nonzero" d="M0 0c-.231.035-.383-.023-.383-.023s.05-.107.332-.187l.005-.001c.18-.051.289-.038.348-.006l.055.077-.03.041-.296.095L0 0" transform="translate(71.45 40.528)"/><path style="fill:#ea1f29;fill-rule:nonzero" d="M0 0c-.132.003-.332 0-.491-.033a2.962 2.962 0 0 1-.524-.192l-.098-.197-.033-.052a.798.798 0 0 1 .729-.292c.482.06.602.392.624.473l-.032.038L0 0" transform="translate(73.156 39.676)"/><path style="fill:#ea1f29;fill-rule:nonzero" d="m0 0-.127-.062c-.128-.047-.234-.09-.303-.094a1.016 1.016 0 0 1-.065-.3c-.008-.118.013-.25.03-.338.058-.044.128-.118.208-.221l.021-.03.049-.077c.145-.006.459.034.527.484C.418-.135.069-.018 0 0" transform="translate(73.725 40.58)"/><path style="fill:#ea1f29;fill-rule:nonzero" d="M0 0c.015.059.106.548-.329.773C-.639.93-.893.766-1.02.654l.013-.083A.968.968 0 0 0-1.02.194c.038-.027.17-.127.315-.197.13-.06.293-.108.336-.118l.235.087L0 0" transform="translate(73.668 40.7)"/><path style="fill:#1c5329;fill-rule:nonzero" d="m0 0-.013.083C-.05.248-.127.271-.127.271S-.205.225-.198-.007l.003-.037c.015-.185.042-.311.081-.368l.055-.027.045.06.001.003A.963.963 0 0 1 0 0" transform="translate(72.662 41.272)"/><path style="fill:#1c5329;fill-rule:nonzero" d="M0 0c.109.059.231.133.224.144a1.006 1.006 0 0 1-.28-.023L-.191.086l-.235-.087-.087-.114.083-.041c.069.004.175.047.303.094L0 0" transform="translate(73.725 40.58)"/><path style="fill:#1c5329;fill-rule:nonzero" d="M0 0c-.081.104-.15.177-.208.222L-.271.26-.332.254-.338.177l.026-.066.175-.255.032-.038.024-.024c.115-.105.218-.109.218-.109s0 .084-.068.209L.021-.03 0 0" transform="translate(73.468 39.565)"/><path style="fill:#f2bb0e;fill-rule:nonzero" d="M0 0c.04-.152-.085-.315-.277-.364-.193-.048-.381.033-.42.184-.039.15.085.312.278.361C-.226.232-.039.151 0 0" transform="translate(72.88 40.315)"/><path style="fill:#1c5329;fill-rule:nonzero" d="m0 0-.007.135h-.081c-.06-.033-.13-.123-.179-.253l-.02-.062c-.059-.177-.058-.312-.058-.312s.134.135.215.243l.033.051L0 0" transform="translate(51.472 39.451)"/><path style="fill:#ea1f29;fill-rule:nonzero" d="M0 0c-.093-.068-.335-.287-.194-.628a.668.668 0 0 1 .643-.417l.02.061a.5.5 0 0 0 .178.253 2.032 2.032 0 0 1-.08.366c-.049.12-.158.276-.218.359C.289-.039.181-.051 0 0" transform="translate(50.736 40.317)"/><path style="fill:#ea1f29;fill-rule:nonzero" d="M0 0c-.037.056-.067.182-.079.368l-.002.037c-.102.084-.465.334-.814.05-.358-.29-.228-.663-.164-.792l.293-.094c.081.064.217.168.345.248C-.288-.1-.112-.034 0 0" transform="translate(51.877 40.86)"/><path style="fill:#1c5329;fill-rule:nonzero" d="M0 0a.833.833 0 0 1-.385-.023s.051-.107.334-.187l.005-.001c.181-.051.289-.038.348-.006l.054.077-.029.041-.293.095L0 0" transform="translate(50.783 40.528)"/><path style="fill:#ea1f29;fill-rule:nonzero" d="M0 0c-.132.003-.333 0-.493-.033a3.01 3.01 0 0 1-.523-.192l-.097-.197-.033-.052a.801.801 0 0 1 .731-.292c.481.06.599.392.622.473l-.033.038L0 0" transform="translate(52.488 39.676)"/><path style="fill:#ea1f29;fill-rule:nonzero" d="m0 0-.125-.062c-.128-.047-.236-.09-.305-.094a1.158 1.158 0 0 1-.066-.3 1.38 1.38 0 0 1 .034-.338c.056-.044.126-.118.207-.221l.02-.03.048-.077c.144-.006.461.034.528.484C.418-.135.07-.018 0 0" transform="translate(53.055 40.58)"/><path style="fill:#ea1f29;fill-rule:nonzero" d="M0 0c.013.059.105.548-.331.773C-.639.93-.894.766-1.022.654l.015-.083a.961.961 0 0 0-.015-.377c.039-.027.171-.127.316-.197.132-.06.294-.108.337-.118l.236.087L0 0" transform="translate(53 40.7)"/><path style="fill:#1c5329;fill-rule:nonzero" d="m0 0-.015.083C-.05.248-.127.271-.127.271s-.079-.046-.07-.278l.001-.037c.014-.185.042-.311.08-.368l.055-.027.046.06v.003A.937.937 0 0 1 0 0" transform="translate(51.993 41.272)"/><path style="fill:#1c5329;fill-rule:nonzero" d="M0 0c.109.059.232.133.224.144-.003.008-.14.003-.28-.023L-.189.086l-.235-.087-.087-.114.081-.041c.069.004.177.047.305.094L0 0" transform="translate(53.055 40.58)"/><path style="fill:#1c5329;fill-rule:nonzero" d="M0 0a1.372 1.372 0 0 1-.207.222L-.271.26-.333.254-.336.177l.024-.066.174-.255.033-.038.024-.024c.115-.105.218-.109.218-.109s0 .084-.068.209L.02-.03 0 0" transform="translate(52.8 39.565)"/><path style="fill:#f2bb0e;fill-rule:nonzero" d="M0 0c.039-.152-.084-.315-.277-.364-.192-.048-.38.033-.418.184-.039.15.085.312.277.361C-.227.232-.037.151 0 0" transform="translate(52.21 40.315)"/><path style="fill:#1c5329;fill-rule:nonzero" d="m0 0-.008.135-.082.002a.525.525 0 0 1-.179-.256l-.023-.059c-.057-.177-.055-.314-.055-.314s.133.135.213.242l.034.049L0 0" transform="translate(61.847 49.047)"/><path style="fill:#ea1f29;fill-rule:nonzero" d="M0 0c-.097-.068-.34-.285-.196-.63a.671.671 0 0 1 .639-.415l.022.061c.05.128.12.218.18.254a2.124 2.124 0 0 1-.082.364 1.82 1.82 0 0 1-.219.36C.285-.037.177-.051 0 0" transform="translate(61.112 49.913)"/><path style="fill:#ea1f29;fill-rule:nonzero" d="M0 0c-.04.053-.068.18-.082.367v.036C-.186.486-.55.737-.897.452c-.359-.29-.227-.664-.166-.793l.294-.093c.081.066.217.17.345.25.132.082.308.147.424.184" transform="translate(62.252 50.458)"/><path style="fill:#1c5329;fill-rule:nonzero" d="M0 0c-.231.034-.388-.024-.388-.024s.053-.106.335-.186l.007-.001C.132-.263.24-.248.299-.217l.055.077-.028.04-.295.094L0 0" transform="translate(61.158 50.124)"/><path style="fill:#ea1f29;fill-rule:nonzero" d="M0 0c-.133.004-.335 0-.494-.033a2.753 2.753 0 0 1-.521-.191l-.1-.2-.034-.049a.817.817 0 0 1 .732-.292c.482.062.602.392.623.473l-.032.039L0 0" transform="translate(62.862 49.27)"/><path style="fill:#ea1f29;fill-rule:nonzero" d="m0 0-.125-.061C-.251-.109-.36-.152-.43-.156a1.196 1.196 0 0 1-.062-.302 1.453 1.453 0 0 1 .028-.337 1.12 1.12 0 0 0 .21-.222l.022-.03.047-.075c.143-.007.459.033.526.482C.419-.136.07-.019 0 0" transform="translate(63.427 50.176)"/><path style="fill:#ea1f29;fill-rule:nonzero" d="M0 0c.013.06.106.548-.33.772C-.637.93-.894.767-1.02.654l.013-.084a1.005 1.005 0 0 0-.011-.375 1.79 1.79 0 0 1 .315-.197c.13-.061.292-.108.335-.12l.235.089L0 0" transform="translate(63.372 50.296)"/><path style="fill:#1c5329;fill-rule:nonzero" d="m0 0-.014.084c-.035.163-.113.187-.113.187S-.204.223-.195-.006v-.036c.013-.187.041-.313.081-.367L-.06-.44l.046.06.002.004c.025.08.03.223.012.376" transform="translate(62.365 50.867)"/><path style="fill:#1c5329;fill-rule:nonzero" d="M0 0c.11.058.232.133.226.143A1.012 1.012 0 0 1-.055.12L-.189.087l-.234-.089-.086-.115.079-.039c.07.004.179.047.305.095L0 0" transform="translate(63.427 50.176)"/><path style="fill:#1c5329;fill-rule:nonzero" d="M0 0a1.12 1.12 0 0 1-.21.222l-.061.04-.061-.007L-.339.18l.028-.069.173-.253.032-.038.026-.025C.033-.31.135-.313.135-.313s.002.083-.066.207L.021-.03 0 0" transform="translate(63.173 49.16)"/><path style="fill:#f2bb0e;fill-rule:nonzero" d="M0 0c.04-.152-.085-.314-.277-.364-.192-.05-.381.032-.419.181-.04.152.086.315.277.365C-.227.232-.04.151 0 0" transform="translate(62.584 49.911)"/><path style="fill:#1c5329;fill-rule:nonzero" d="m0 0-.006.135-.085.002a.544.544 0 0 1-.177-.256l-.023-.059c-.056-.177-.056-.314-.056-.314s.135.135.218.242l.032.049L0 0" transform="translate(51.343 49.047)"/><path style="fill:#ea1f29;fill-rule:nonzero" d="M0 0c-.095-.068-.338-.285-.195-.63a.672.672 0 0 1 .64-.415l.023.061a.535.535 0 0 0 .176.254 1.743 1.743 0 0 1-.078.364 2.032 2.032 0 0 1-.219.36C.288-.037.18-.051 0 0" transform="translate(50.607 49.913)"/><path style="fill:#ea1f29;fill-rule:nonzero" d="M0 0c-.04.053-.066.18-.082.367v.036C-.186.486-.55.737-.898.452c-.356-.29-.226-.664-.166-.793l.297-.093c.079.066.215.17.344.25.133.082.31.147.423.184" transform="translate(51.748 50.458)"/><path style="fill:#1c5329;fill-rule:nonzero" d="M0 0c-.23.034-.386-.024-.386-.024s.054-.106.334-.186l.006-.001c.18-.052.288-.037.348-.006l.054.077-.027.04-.298.094L0 0" transform="translate(50.653 50.124)"/><path style="fill:#ea1f29;fill-rule:nonzero" d="M0 0c-.131.004-.333 0-.491-.033a2.844 2.844 0 0 1-.524-.191l-.097-.2-.032-.049a.802.802 0 0 1 .727-.292c.482.062.603.392.624.473l-.032.039L0 0" transform="translate(52.357 49.27)"/><path style="fill:#ea1f29;fill-rule:nonzero" d="m0 0-.127-.061C-.253-.109-.36-.152-.429-.156a1.1 1.1 0 0 1-.066-.302 1.556 1.556 0 0 1 .032-.337c.057-.042.126-.118.208-.222l.021-.03.048-.075c.142-.007.459.033.528.482C.418-.136.07-.019 0 0" transform="translate(52.925 50.176)"/><path style="fill:#ea1f29;fill-rule:nonzero" d="M0 0c.012.06.105.548-.33.772C-.639.93-.894.767-1.02.654l.013-.084A.977.977 0 0 0-1.02.195c.037-.027.17-.128.314-.197.132-.061.295-.108.338-.12l.235.089L0 0" transform="translate(52.87 50.296)"/><path style="fill:#1c5329;fill-rule:nonzero" d="m0 0-.014.084c-.035.163-.113.187-.113.187S-.204.223-.196-.006v-.036c.016-.187.042-.313.082-.367L-.06-.44l.046.06.001.004c.028.08.03.223.013.376" transform="translate(51.862 50.867)"/><path style="fill:#1c5329;fill-rule:nonzero" d="M0 0c.11.058.232.133.224.143A1.007 1.007 0 0 1-.056.12L-.189.087l-.235-.089-.088-.115.083-.039c.069.004.176.047.302.095L0 0" transform="translate(52.925 50.176)"/><path style="fill:#1c5329;fill-rule:nonzero" d="M0 0c-.081.104-.151.18-.208.222l-.064.04-.061-.007L-.34.18l.027-.069.175-.253.032-.038.025-.025C.033-.31.136-.313.136-.313s.002.083-.068.207L.021-.03 0 0" transform="translate(52.67 49.16)"/><path style="fill:#f2bb0e;fill-rule:nonzero" d="M0 0c.039-.152-.085-.314-.277-.364-.192-.05-.38.032-.418.181-.039.152.083.315.277.365C-.227.232-.038.151 0 0" transform="translate(52.08 49.911)"/><path style="fill:#1c5329;fill-rule:nonzero" d="m0 0-.006.135-.083.002a.53.53 0 0 1-.178-.256l-.021-.059c-.058-.177-.057-.314-.057-.314s.135.135.215.242l.034.049L0 0" transform="translate(72.374 49.047)"/><path style="fill:#ea1f29;fill-rule:nonzero" d="M0 0c-.094-.068-.335-.285-.194-.63a.672.672 0 0 1 .641-.415l.022.061a.516.516 0 0 0 .177.254 1.954 1.954 0 0 1-.08.364 1.92 1.92 0 0 1-.219.36C.29-.037.181-.051 0 0" transform="translate(71.638 49.913)"/><path style="fill:#ea1f29;fill-rule:nonzero" d="M0 0c-.039.053-.065.18-.08.367l-.002.036c-.101.083-.466.334-.815.049-.358-.29-.228-.664-.165-.793l.296-.093c.079.066.216.17.344.25.133.082.309.147.422.184" transform="translate(72.78 50.458)"/><path style="fill:#1c5329;fill-rule:nonzero" d="M0 0c-.229.034-.385-.024-.385-.024s.051-.106.334-.186l.005-.001c.181-.052.29-.037.348-.006l.055.077L.33-.1l-.296.094L0 0" transform="translate(71.684 50.124)"/><path style="fill:#ea1f29;fill-rule:nonzero" d="M0 0c-.132.004-.336 0-.492-.033a2.857 2.857 0 0 1-.525-.191l-.098-.2-.033-.049a.817.817 0 0 1 .731-.292c.481.062.6.392.622.473l-.032.039L0 0" transform="translate(73.391 49.27)"/><path style="fill:#ea1f29;fill-rule:nonzero" d="m0 0-.126-.061c-.126-.048-.236-.091-.305-.095a1.07 1.07 0 0 1-.064-.302 1.443 1.443 0 0 1 .031-.337 1.25 1.25 0 0 0 .209-.222l.022-.03.047-.075c.142-.007.459.033.528.482C.417-.136.069-.019 0 0" transform="translate(73.958 50.176)"/><path style="fill:#ea1f29;fill-rule:nonzero" d="M0 0c.013.06.103.548-.332.772C-.638.93-.894.767-1.021.654l.015-.084a.98.98 0 0 0-.012-.375 1.81 1.81 0 0 1 .312-.197c.133-.061.293-.108.337-.12l.236.089L0 0" transform="translate(73.902 50.296)"/><path style="fill:#1c5329;fill-rule:nonzero" d="m0 0-.015.084c-.034.163-.112.187-.112.187s-.08-.048-.07-.277l.001-.036c.014-.187.041-.313.08-.367L-.06-.44l.045.06.003.004C.014-.296.019-.153 0 0" transform="translate(72.896 50.867)"/><path style="fill:#1c5329;fill-rule:nonzero" d="M0 0c.109.058.231.133.226.143A1.016 1.016 0 0 1-.056.12L-.189.087l-.236-.089-.086-.115.08-.039c.069.004.179.047.305.095L0 0" transform="translate(73.958 50.176)"/><path style="fill:#1c5329;fill-rule:nonzero" d="M0 0a1.29 1.29 0 0 1-.208.222l-.063.04-.062-.007L-.338.18l.026-.069.173-.253.033-.038.024-.025C.033-.31.136-.313.136-.313s0 .083-.067.207L.021-.03 0 0" transform="translate(73.703 49.16)"/><path style="fill:#f2bb0e;fill-rule:nonzero" d="M0 0c.04-.152-.084-.314-.276-.364-.193-.05-.379.032-.419.181-.039.152.086.315.278.365C-.224.232-.039.151 0 0" transform="translate(73.112 49.911)"/><path style="fill:#1c5329;fill-rule:nonzero" d="m0 0-.008.135-.082.001C-.15.102-.22.012-.269-.118l-.023-.06C-.349-.355-.347-.49-.347-.49s.133.132.213.241L-.1-.2 0 0" transform="translate(61.847 58.641)"/><path style="fill:#ea1f29;fill-rule:nonzero" d="M0 0c-.097-.068-.34-.286-.196-.63a.671.671 0 0 1 .639-.415l.022.061c.05.129.12.22.18.253-.019.118-.046.27-.082.365a1.82 1.82 0 0 1-.219.36C.285-.037.177-.051 0 0" transform="translate(61.112 59.507)"/><path style="fill:#ea1f29;fill-rule:nonzero" d="M0 0c-.04.055-.068.182-.082.368v.037c-.104.082-.468.334-.815.05-.359-.291-.227-.664-.166-.793l.294-.093c.081.064.217.168.345.247.132.083.308.147.424.184" transform="translate(62.252 60.051)"/><path style="fill:#1c5329;fill-rule:nonzero" d="M0 0a.875.875 0 0 1-.388-.022s.053-.107.335-.187l.007-.002C.132-.262.24-.248.299-.217l.055.079-.028.04-.295.093L0 0" transform="translate(61.158 59.718)"/><path style="fill:#ea1f29;fill-rule:nonzero" d="M0 0a2.265 2.265 0 0 1-.494-.034 2.834 2.834 0 0 1-.521-.189l-.1-.2-.034-.05a.813.813 0 0 1 .732-.29c.482.06.602.391.623.472l-.032.037L0 0" transform="translate(62.862 58.864)"/><path style="fill:#ea1f29;fill-rule:nonzero" d="m0 0-.125-.06A1.42 1.42 0 0 0-.43-.155a1.207 1.207 0 0 1-.062-.301c-.008-.118.012-.25.028-.337a1.18 1.18 0 0 0 .21-.222l.022-.03.047-.078c.143-.006.459.036.526.484C.419-.135.07-.018 0 0" transform="translate(63.427 59.77)"/><path style="fill:#ea1f29;fill-rule:nonzero" d="M0 0c.013.059.106.548-.33.772-.307.156-.564-.005-.69-.118l.013-.084a1.007 1.007 0 0 0-.011-.375c.034-.027.168-.129.315-.197a2.28 2.28 0 0 1 .335-.12l.235.089L0 0" transform="translate(63.372 59.891)"/><path style="fill:#1c5329;fill-rule:nonzero" d="m0 0-.014.083c-.035.164-.113.188-.113.188S-.204.224-.195-.006v-.036c.013-.187.041-.314.081-.369l.054-.028.046.059.002.004C.013-.297.018-.153 0 0" transform="translate(62.365 60.462)"/><path style="fill:#1c5329;fill-rule:nonzero" d="M0 0c.11.059.232.133.226.144A.97.97 0 0 1-.055.121L-.189.088l-.234-.089-.086-.114.079-.04c.07.006.179.047.305.095L0 0" transform="translate(63.427 59.77)"/><path style="fill:#1c5329;fill-rule:nonzero" d="M0 0c-.08.103-.151.178-.21.221L-.271.26-.332.254-.339.178-.311.11l.173-.254.032-.037.026-.025a.377.377 0 0 1 .215-.11s.002.085-.066.208L.021-.03 0 0" transform="translate(63.173 58.755)"/><path style="fill:#f2bb0e;fill-rule:nonzero" d="M0 0c.04-.151-.085-.313-.277-.363-.192-.05-.381.031-.419.183-.04.15.086.313.277.363C-.227.233-.04.15 0 0" transform="translate(62.584 59.504)"/><path style="fill:#1c5329;fill-rule:nonzero" d="m0 0-.006.135-.085.001a.515.515 0 0 1-.177-.254l-.023-.06C-.347-.355-.347-.49-.347-.49s.135.132.218.241l.032.049L0 0" transform="translate(51.343 58.641)"/><path style="fill:#ea1f29;fill-rule:nonzero" d="M0 0c-.095-.068-.338-.286-.195-.63a.672.672 0 0 1 .64-.415l.023.061c.047.129.121.22.176.253-.014.118-.042.27-.078.365a2.032 2.032 0 0 1-.219.36C.288-.037.18-.051 0 0" transform="translate(50.607 59.507)"/><path style="fill:#ea1f29;fill-rule:nonzero" d="M0 0c-.04.055-.066.182-.082.368v.037c-.104.082-.468.334-.816.05-.356-.291-.226-.664-.166-.793l.297-.093c.079.064.215.168.344.247.133.083.31.147.423.184" transform="translate(51.748 60.051)"/><path style="fill:#1c5329;fill-rule:nonzero" d="M0 0c-.23.034-.386-.022-.386-.022s.054-.107.334-.187l.006-.002c.18-.051.288-.037.348-.006l.054.079-.027.04-.298.093L0 0" transform="translate(50.653 59.718)"/><path style="fill:#ea1f29;fill-rule:nonzero" d="M0 0a2.242 2.242 0 0 1-.491-.034 2.93 2.93 0 0 1-.524-.189l-.097-.2-.032-.05a.797.797 0 0 1 .727-.29c.482.06.603.391.624.472l-.032.037L0 0" transform="translate(52.357 58.864)"/><path style="fill:#ea1f29;fill-rule:nonzero" d="m0 0-.127-.06C-.253-.108-.36-.149-.429-.155a1.108 1.108 0 0 1-.066-.301c-.005-.118.015-.25.032-.337.057-.044.126-.118.208-.222l.021-.03.048-.078c.142-.006.459.036.528.484C.418-.135.07-.018 0 0" transform="translate(52.925 59.77)"/><path style="fill:#ea1f29;fill-rule:nonzero" d="M0 0c.012.059.105.548-.33.772-.309.156-.564-.005-.69-.118l.013-.084A.978.978 0 0 0-1.02.195c.037-.027.17-.129.314-.197.132-.061.295-.109.338-.12l.235.089L0 0" transform="translate(52.87 59.891)"/><path style="fill:#1c5329;fill-rule:nonzero" d="m0 0-.014.083c-.035.164-.113.188-.113.188S-.204.224-.196-.006v-.036c.016-.187.042-.314.082-.369l.054-.028.046.059.001.004C.015-.297.017-.153 0 0" transform="translate(51.862 60.462)"/><path style="fill:#1c5329;fill-rule:nonzero" d="M0 0c.11.059.232.133.224.144a.965.965 0 0 1-.28-.023L-.189.088l-.235-.089-.088-.114.083-.04c.069.006.176.047.302.095L0 0" transform="translate(52.925 59.77)"/><path style="fill:#1c5329;fill-rule:nonzero" d="M0 0a1.274 1.274 0 0 1-.208.221L-.272.26-.333.254-.34.178-.313.11l.175-.254.032-.037.025-.025c.114-.105.217-.11.217-.11s.002.085-.068.208L.021-.03 0 0" transform="translate(52.67 58.755)"/><path style="fill:#f2bb0e;fill-rule:nonzero" d="M0 0c.039-.151-.085-.313-.277-.363-.192-.05-.38.031-.418.183-.039.15.083.313.277.363C-.227.233-.038.15 0 0" transform="translate(52.08 59.504)"/><path style="fill:#1c5329;fill-rule:nonzero" d="m0 0-.006.135-.083.001a.504.504 0 0 1-.178-.254l-.021-.06C-.346-.355-.345-.49-.345-.49s.135.132.215.241l.034.049L0 0" transform="translate(72.374 58.641)"/><path style="fill:#ea1f29;fill-rule:nonzero" d="M0 0c-.094-.068-.335-.286-.194-.63a.672.672 0 0 1 .641-.415l.022.061c.047.129.119.22.177.253-.017.118-.044.27-.08.365a1.92 1.92 0 0 1-.219.36C.29-.037.181-.051 0 0" transform="translate(71.638 59.507)"/><path style="fill:#ea1f29;fill-rule:nonzero" d="M0 0c-.039.055-.065.182-.08.368l-.002.037c-.101.082-.466.334-.815.05-.358-.291-.228-.664-.165-.793l.296-.093c.079.064.216.168.344.247.133.083.309.147.422.184" transform="translate(72.78 60.051)"/><path style="fill:#1c5329;fill-rule:nonzero" d="M0 0c-.229.034-.385-.022-.385-.022s.051-.107.334-.187l.005-.002c.181-.051.29-.037.348-.006l.055.079-.027.04-.296.093L0 0" transform="translate(71.684 59.718)"/><path style="fill:#ea1f29;fill-rule:nonzero" d="M0 0a2.24 2.24 0 0 1-.492-.034 2.943 2.943 0 0 1-.525-.189l-.098-.2-.033-.05a.812.812 0 0 1 .731-.29c.481.06.6.391.622.472l-.032.037L0 0" transform="translate(73.391 58.864)"/><path style="fill:#ea1f29;fill-rule:nonzero" d="m0 0-.126-.06a1.438 1.438 0 0 0-.305-.095 1.078 1.078 0 0 1-.064-.301c-.006-.118.013-.25.031-.337.058-.044.126-.118.209-.222l.022-.03.047-.078c.142-.006.459.036.528.484C.417-.135.069-.018 0 0" transform="translate(73.958 59.77)"/><path style="fill:#ea1f29;fill-rule:nonzero" d="M0 0c.013.059.103.548-.332.772-.306.156-.562-.005-.689-.118l.015-.084a.982.982 0 0 0-.012-.375c.035-.027.166-.129.312-.197.133-.061.293-.109.337-.12l.236.089L0 0" transform="translate(73.902 59.891)"/><path style="fill:#1c5329;fill-rule:nonzero" d="m0 0-.015.083c-.034.164-.112.188-.112.188s-.08-.047-.07-.277l.001-.036c.014-.187.041-.314.08-.369l.056-.028.045.059.003.004A.985.985 0 0 1 0 0" transform="translate(72.896 60.462)"/><path style="fill:#1c5329;fill-rule:nonzero" d="M0 0c.109.059.231.133.226.144A.974.974 0 0 1-.056.121L-.189.088l-.236-.089-.086-.114.08-.04c.069.006.179.047.305.095L0 0" transform="translate(73.958 59.77)"/><path style="fill:#1c5329;fill-rule:nonzero" d="M0 0a1.356 1.356 0 0 1-.208.221L-.271.26-.333.254-.338.178-.312.11l.173-.254.033-.037.024-.025c.115-.105.218-.11.218-.11s0 .085-.067.208L.021-.03 0 0" transform="translate(73.703 58.755)"/><path style="fill:#f2bb0e;fill-rule:nonzero" d="M0 0c.04-.151-.084-.313-.276-.363-.193-.05-.379.031-.419.183-.039.15.086.313.278.363C-.224.233-.039.15 0 0" transform="translate(73.112 59.504)"/><path style="fill:#1c5329;fill-rule:nonzero" d="m0 0-.008.135H-.09A.497.497 0 0 1-.269-.12l-.023-.06c-.057-.176-.055-.311-.055-.311s.133.132.213.242l.034.05L0 0" transform="translate(61.847 31.281)"/><path style="fill:#ea1f29;fill-rule:nonzero" d="M0 0c-.097-.068-.34-.284-.196-.629a.673.673 0 0 1 .639-.416l.022.06c.05.132.12.22.18.254a2.124 2.124 0 0 1-.082.364 1.868 1.868 0 0 1-.219.362C.285-.037.177-.05 0 0" transform="translate(61.112 32.147)"/><path style="fill:#ea1f29;fill-rule:nonzero" d="M0 0c-.04.056-.068.182-.082.369v.035C-.186.488-.55.738-.897.455c-.359-.292-.227-.662-.166-.793l.294-.093c.081.066.217.169.345.248.132.081.308.147.424.183" transform="translate(62.252 32.69)"/><path style="fill:#1c5329;fill-rule:nonzero" d="M0 0a.875.875 0 0 1-.388-.022s.053-.107.335-.189l.007-.001c.178-.05.286-.036.345-.005l.055.077-.028.042-.295.093L0 0" transform="translate(61.158 32.358)"/><path style="fill:#ea1f29;fill-rule:nonzero" d="M0 0c-.133.004-.335 0-.494-.034a2.694 2.694 0 0 1-.521-.189l-.1-.2-.034-.049a.815.815 0 0 1 .732-.293c.482.062.602.393.623.473l-.032.039L0 0" transform="translate(62.862 31.504)"/><path style="fill:#ea1f29;fill-rule:nonzero" d="m0 0-.125-.058A1.29 1.29 0 0 0-.43-.155a1.207 1.207 0 0 1-.062-.301 1.443 1.443 0 0 1 .028-.337c.059-.043.13-.118.21-.221l.022-.031.047-.077c.143-.005.459.035.526.484C.419-.135.07-.018 0 0" transform="translate(63.427 32.41)"/><path style="fill:#ea1f29;fill-rule:nonzero" d="M0 0c.013.059.106.549-.33.774-.307.155-.564-.007-.69-.121l.013-.083a1.005 1.005 0 0 0-.011-.375c.034-.029.168-.129.315-.196.13-.063.292-.11.335-.121l.235.089L0 0" transform="translate(63.372 32.53)"/><path style="fill:#1c5329;fill-rule:nonzero" d="m0 0-.014.082C-.049.247-.127.27-.127.27S-.204.224-.195-.006v-.035c.013-.187.041-.314.081-.369l.054-.029.046.061.002.002C.013-.295.018-.154 0 0" transform="translate(62.365 33.101)"/><path style="fill:#1c5329;fill-rule:nonzero" d="M0 0c.11.06.232.135.226.145A.99.99 0 0 1-.055.121L-.189.088l-.234-.089-.086-.114.079-.04c.07.005.179.047.305.097L0 0" transform="translate(63.427 32.41)"/><path style="fill:#1c5329;fill-rule:nonzero" d="M0 0c-.08.103-.151.178-.21.221l-.061.038-.061-.005-.007-.076.028-.069.173-.253.032-.039.026-.023C.033-.31.135-.315.135-.315s.002.084-.066.207l-.048.077L0 0" transform="translate(63.173 31.395)"/><path style="fill:#f2bb0e;fill-rule:nonzero" d="M0 0c.04-.15-.085-.313-.277-.365-.192-.047-.381.033-.419.184-.04.151.086.314.277.363C-.227.232-.04.151 0 0" transform="translate(62.584 32.144)"/><path style="fill:#2b57ac;fill-rule:nonzero" d="M0 0s.41.577-1.026 1.156c-1.063.428-2.527.338-3.459.467-.78.109-.867.285-.823.48.093.431.822.147 1.277-.097.493-.265 1.371-.352 2.011.241.228.214.549.289.549.289s-.379.24-.689.026c-.128-.087-.23-.177-.49-.198-.457-.034-.542.112-.542.112s.233-.157.806.136c.744.38.297 1.213.297 1.213s.049-.298-.265-.503c-.438-.289-.806-.025-.806-.025s.17-.085.43.013c.326.126.433.295.323.516-.048.094-.201.207-.201.207s.358-.472-1.055-.373c-.714.05-.962-.67-.962-.67s-.327.082-.557.005a.823.823 0 0 1-.058.411c-.075-.373-.36-.611-.49-.77-.131-.159-.414-.574-.058-1.062.352-.411.993-.471 1.398-.503.602-.045 1.598-.099 2.477-.22 1.189-.164.983-.734.837-.91-.15-.183-.434-.192-1.261.096-.825.29-1.688.805-3.414.737-2.38-.092-4.073-1.833-4.944-1.739 0 0 .046-.209.027-.351-.077-.603-.626-.929-.626-.929l-.077.118c-.056-.008-.004-.132-.199-.277-.187-.14-.283-.295-.351-.575 0 0-.097.193-.155.021-.076-.223-.193-.231-.254-.257l-.054.111c-.077-.004-.106-.483-.938-.404l-.062-.015c-.61-.105-.716.495-.933.704-.141.136-.313-.11-.313-.11s-.117.126-.102.359c.016.245.061.327-.037.496-.075.127-.393.397-.274.856-.145.003-.435.109-.553.962l.102-.012c-.021.13-.135.178-.158.328-.032.22-.06.646.06.796.184.23.692.308.45.757l-.079-.125-.119-.051-.152.164.084.146.007.01a.439.439 0 0 1-.217-.045c.011.098.175.614-.262.731l-.03-.205-.096-.088-.199.1.032.168.018.066c-.422-.052-.336-.601-.33-.686-.011.124-.267.472-.514.315l-.025-.02.081-.084.024-.127-.188-.118-.128.111-.011.014c-.088-.115-.075-.321.162-.501.351-.265.47-1.343.416-1.484-.074-.192-.262.081-.262.081s-.032-.248.145-.5c.313-.448.407-.645.173-.57l-.146.093s.014-.223.299-.456c.113-.092.097-.144.015-.135a.366.366 0 0 0-.165.072s.078-.204.222-.398c.242-.324.461-.459.461-.459s-.272.025-.665.251c-.586.341-.339.58-.515.985-.166.387-.275.45-.449.473h-.016l.023-.085-.034-.126-.221-.022-.063.158c-.165-.084-.16-.26-.145-.342-.113.124-.327.296-.475.321a.486.486 0 0 1-.298-.059l-.015-.004.031-.022.061-.114-.148-.167-.154.071-.021.015c-.103-.185-.071-.534.534-.731 0 0-.292-.044-.384-.257l.202-.032.087-.098-.104-.196-.167.03-.027.011c.069-.305.316-.349.524-.349.903.012 1.605-.423 1.605-.423s-.197-.011-.305-.151c-.112-.146-.086-.23-.086-.23s.079.074.306.113c.239.041.286-.045.286-.045s-.348-.128-.213-.491c0 0 .14.154.357.231.18.06.388.048.471-.069.113-.164-.37-.324-.37-.324.337-.201 1.073-.104 1.073-.104s-.515-.092-.511-.428c0 0 .32.245.948 0 .951-.368 2.116-.545 3.64.073 1.92.78 1.972 2.438 4.643 3.321.087-.129.688-.692 1.441-.97.605-.227 1.459-.378 1.72-.439.376-.092 1.042-.234.643-.96-.19-.338-.364-.44-.526-.563a5.845 5.845 0 0 0-.514.164c-.167.062-.289.025-.342-.09l.127-.022.081-.085-.086-.182-.149.024-.012.003c.02-.204.191-.226.191-.226s-.197-.074-.195-.259l.103.027.112-.034.009-.201-.145-.05.017-.012c.117-.147.457-.037.457-.037s-.079-.176.028-.301l.072.135.107.048.143-.14-.071-.136-.018-.022.059-.006c.165.024.4.175.51.532.135.409.268.498.268.498s.346.326.214-.255c.342.09.3.465.3.465l.358-.06c.115.091.003.362.135.553.147.211.231-.034.177-.205 0 0 .21.065.22.337.011.175-.06.38.106.531.124.105.155-.047.119-.19 0 0 .163-.007.191.278.016.172-.025.225.026.248l.106-.14s.145.326-.154.522c-.502.327-1.778.103-2.54 1.304-.277.441-.072.643-.072.643s1.358-.64 2.089-.535c.886.127.89.602.89.602s.145-.027.019-.315c0 0 .161.035.228.257.127.426-.141.69-.141.69C-.005.257 0 0 0 0" transform="translate(71.183 38.212)"/><path style="fill:#ea1f29;fill-rule:nonzero" d="m0 0 .104.196-.088.098-.202.032-.025-.001C-.485.289-.561.087-.603-.021c0 0 .17.143.408.062L-.168.03 0 0" transform="translate(52.488 35.863)"/><path style="fill:#ea1f29;fill-rule:nonzero" d="m0 0 .149.168-.063.113-.03.022-.183.062C-.401.398-.522.22-.589.127c0 0 .2.098.414-.041l.02-.015L0 0" transform="translate(52.328 37.091)"/><path style="fill:#ea1f29;fill-rule:nonzero" d="m0 0 .221.022.034.126-.023.084-.076.122C-.021.566-.23.519-.346.493c0 0 .232-.067.283-.336L0 0" transform="translate(53.38 37.32)"/><path style="fill:#ea1f29;fill-rule:nonzero" d="m0 0 .152-.163.12.05.079.125.025.081C.434.362.269.5.178.574c0 0 .086-.215-.087-.418L.085.147 0 0" transform="translate(55.69 39.813)"/><path style="fill:#ea1f29;fill-rule:nonzero" d="m0 0 .199-.1.096.088.031.205-.003.02C.288.487.085.563-.022.602c0 0 .128-.15.073-.368L.032.168 0 0" transform="translate(54.978 40.462)"/><path style="fill:#ea1f29;fill-rule:nonzero" d="m0 0 .189.119-.026.126-.08.085-.101.059C-.271.496-.438.36-.53.289c0 0 .227.041.391-.163l.011-.014L0 0" transform="translate(54.076 39.976)"/><path style="fill:#ea1f29;fill-rule:nonzero" d="m0 0 .087.182-.081.084-.126.023L-.2.284C-.444.245-.506.062-.539-.037c0 0 .154.139.379.063l.012-.003L0 0" transform="translate(67.205 33.882)"/><path style="fill:#ea1f29;fill-rule:nonzero" d="m0 0-.112.035-.102-.028-.087-.051c-.197-.15-.166-.339-.147-.444 0 0 .07.205.312.237h.001L.009-.2 0 0" transform="translate(67.256 33.416)"/><path style="fill:#ea1f29;fill-rule:nonzero" d="m0 0-.142.14-.107-.047-.072-.136-.014-.053c-.042-.242.111-.362.195-.427 0 0-.079.183.051.366l.019.022L0 0" transform="translate(67.943 32.858)"/><path style="fill:#2b57ac;fill-rule:nonzero" d="M0 0c-1.548.295-1.869.49-2.498 1.096-.064-.031-.309-.468.35-1.096.258-.247.511-.321.511-.321s-.454.08-1.038.024c-.273.076-.472.424-.837.565-.12.046-.222.046-.302.006l.107-.069.044-.11-.145-.134-.132.075-.033.029c-.021-.099.01-.217.131-.34-.166.006-.329-.082-.37-.274l.156.032.104-.051-.018-.2-.148-.028-.078-.009.01-.021c.115-.343.639-.09.639-.09s-.267-.195-.121-.43l.06.094.106.049.143-.141-.072-.134-.033-.048c.366-.141.661.414.661.431-.013-.402.304-.494.304-.494s-.044.174.12.286c.186.125.465.092.489.094-.051-.203.025-.296.137-.331.028.428.827.442.827.442.046-.166.227-.223.227-.223s-.008.232.161.36c.173.134.46.14.763.309C.583-.454.509-.069 0 0" transform="translate(67.287 35.476)"/><path style="fill:#ea1f29;fill-rule:nonzero" d="m0 0-.144.141-.105-.05-.06-.093-.026-.094c-.043-.244.11-.363.192-.427 0 0-.071.166.038.341l.033.047L0 0" transform="translate(63.928 34.132)"/><path style="fill:#ea1f29;fill-rule:nonzero" d="m0 0 .018.2-.104.051-.156-.032-.044-.022C-.501.075-.497-.118-.495-.222c0 0 .08.151.269.184l.078.009L0 0" transform="translate(63.317 34.709)"/><path style="fill:#ea1f29;fill-rule:nonzero" d="m0 0 .146.135-.044.109-.107.069-.076.025C-.323.39-.448.242-.517.163c0 0 .178.069.353-.059l.033-.029L0 0" transform="translate(63.479 35.436)"/><path style="fill:#2b57ac;fill-rule:nonzero" d="m0 0-.009-.021c-.013-.035-.138-.311-.416-.34l-.017-.003a.613.613 0 0 0-.35.106s-.028.01-.052-.201C-.861-.63-.966-.634-.966-.634s-.026.251.033.433c.076.23.289.223.289.223h.004l-.031-.111a.185.185 0 0 1 .195-.165.18.18 0 0 1 .165.196l-.026.077h.323l.022.003zm-.989-1.675c-.217-.185-.179-.467-.225-.662-.059-.235-.272-.35-.508-.301-.204.033-.397.155-.413.37-.018.247.389.57.129.877-.212.254-.199.372-.199.372s.055-.08.194-.152c.05-.024.465-.218.547.101l-.093.165-.097.07-.012.16s.114-.15.316-.184A.685.685 0 0 1-.966-.8s.046-.144-.12-.166c-.089-.012-.221-.018-.238-.13-.052-.371.484-.29.645-.266.129.023.191.04.191.04-.109-.156-.304-.184-.501-.353M-2.258.413v.046l.019-.012.297-.123-.055-.061a.182.182 0 0 1 .08-.244l.242.078.014.113h.002s.202-.076.183-.318c-.015-.19-.135-.412-.135-.412s-.098.044-.047.208c.06.205.029.206.029.206s-.204-.046-.362.036l-.016.01c-.235.156-.244.457-.242.494M1.029.027c.067.558-.32.518-.32.518s.152.11.206.309c.09.344-.112.797-.112.797s-.212-.375-.462-.11c0 0 .141.15.116.485-.027-.095-.805-.685-1.026.371-.44-.097-.401-.526-.673-.492-.145.016-.29.132-.18.408 0 0-.398-.02-.456-.434-.073-.512-.323.172-.662.147-.004 0-.252-.27-.237-.842-.307-.012-.445-.253-.475-.636-.084-1.09-.372-.73-.368-.751.095-.67.471-.316.471-.316-.065-.466-.486-.211-.486-.211.123-.714.422-.479.422-.479-.136-.596.09-.75.172-.866.103-.145.151-.204.113-.46-.035-.23-.02-.312-.02-.312s.179.182.309.046c.2-.21.319-.844.774-.764 0 0-.055.277.044.277l.125-.243c.123-.015.469-.066.659.178.114.147.143.354.262.345.09-.008.1-.179.1-.179.081.049.097.094.134.293.045.246.169-.015.169-.015a.669.669 0 0 0 .296.452c.215.136.153.511.279.602.138.101.171-.299.171-.299s.467.36.304.981C.605-.895.526-.66.615-.636c.085.02.068-.248.253-.356.129-.077.33.033.33.033-.238.263-.201.713-.169.986" transform="translate(59.589 38.477)"/><path style="fill:#ea1f29;fill-rule:nonzero" d="M0 0c.46-.119.467.359.473.45.031.487.366.527.423.58C.74 1 .424 1.01.323 1.194a.566.566 0 0 0-.5.001l.118-.199C-.016.876-.054.733-.102.62-.147.511-.419.108 0 0" transform="translate(57.82 35.971)"/><path style="fill:#2b57ac;fill-rule:nonzero" d="M0 0c-3.714.124-4.652 1.181-4.652 1.181s-.425-.705 1.279-1.45c0 0-.577.095-.897.108-.38.02-.783-.054-.783-.054s-.429.391-.73.501c-.098.034-.258.08-.399-.005l.117-.07.054-.116-.156-.155-.147.079-.049.037c-.076-.205.059-.344.15-.4-.431-.093-.558-.202-.562-.422l.138.035.121-.045-.002-.22-.16-.046-.035-.006c.09-.155.284-.235.556-.143.125.042.157.063.157.063s-.236-.268-.136-.524l.083.09.123.031.126-.182-.105-.129-.034-.031.111-.038c.238-.068.436.133.598.331.326.395.647.275.647.275-.219-.217-.016-.479-.016-.479s.179.42.473.302c-.058-.256.197-.4.197-.4s.153.411.351.411c.262 0 .129-.396.129-.396s.142.017.367.242c.148.147.274.309.578.286a.542.542 0 0 1 .304-.46C-2.21-.817-.824-.685-.595-.64.069-.51 0 0 0 0" transform="translate(69.98 44.109)"/><path style="fill:#ea1f29;fill-rule:nonzero" d="m0 0 .155.155-.052.116-.118.07-.087.027C-.369.416-.501.248-.574.157c0 0 .188.079.378-.041l.049-.037L0 0" transform="translate(63.812 44.049)"/><path style="fill:#ea1f29;fill-rule:nonzero" d="m0 0 .001.22-.12.045L-.257.23-.33.189C-.555.036-.532-.174-.519-.289c0 0 .082.199.323.236l.037.006L0 0" transform="translate(63.462 43.113)"/><path style="fill:#ea1f29;fill-rule:nonzero" d="m0 0-.125.183L-.25.15-.332.061l-.049-.093c-.095-.254.046-.416.121-.499 0 0-.046.205.12.372l.035.03L0 0" transform="translate(64.175 42.395)"/><path style="fill:#ea1f29;fill-rule:nonzero" d="M0 0c.512-.178.565.365.581.468.078.551.464.565.534.621-.181-.021-.541.02-.639.239-.127-.057-.335-.078-.568.044l.117-.234C.064.996.006.838-.057.712-.12.596-.465.162 0 0" transform="translate(57.059 45.38)"/><path style="fill:#2b57ac;fill-rule:nonzero" d="m0 0-.012-.021c-.018-.038-.184-.34-.503-.35l-.021-.001c-.202 0-.389.151-.389.151s-.03.015-.076-.223c-.035-.193-.156-.188-.156-.188s-.007.287.077.49c.107.255.352.227.352.227h.004L-.77-.037c0-.114.094-.205.205-.205.116 0 .208.091.208.205l-.025.09.369-.027h.026zm-1.278-1.813c-.264-.193-.246-.515-.317-.732-.088-.262-.339-.372-.603-.297-.23.056-.438.213-.437.459.002.281.495.614.228.987-.22.306-.195.44-.195.44s.058-.095.21-.191c.054-.031.508-.292.628.064.032.091-.032.149-.091.198l-.101.088.001.182s.117-.18.341-.236a.776.776 0 0 1 .443.03s.041-.168-.15-.178c-.105-.004-.256 0-.285-.123-.092-.42.524-.375.71-.362.15.012.22.027.22.027-.139-.169-.364-.183-.602-.356M-2.531.677l.001.026.004.027.021-.013.328-.169-.068-.066a.207.207 0 0 1 .068-.285.207.207 0 0 1 .282.067l.026.129.003-.001s.223-.107.176-.38c-.032-.214-.191-.456-.191-.456s-.104.059-.032.24c.086.226.051.232.051.232s-.235-.031-.408.076l-.018.012c-.265.175-.247.52-.243.561M1.217.669c.156.379-.034 1.07-.034 1.07s-.31-.491-.573-.227c-.242.243.016.632.016.632-.299.097-.549-.312-.92-.109-.259.141.045.609.045.609s-.337.011-.605-.12c-.261-.127-.378-.232-.559-.227-.248.009-.16.417-.16.417s-.295.008-.47-.296c-.174-.3-.366-.379-.366-.379-.08.13-.256.131-.391.169-.149.043-.252.113-.252.113s-.274-.529-.149-.967c-.207-.056-.264-.287-.297-.402-.24-.873-.6-.483-.597-.511.069-.77.514-.746.475-.925-.054-.242-.466.089-.466.089.01-.542.253-.577.353-.9.085-.28-.091-.468.052-.898.146-.445.039-.608.039-.608a.697.697 0 0 1 .498.212c-.059-.57.208-.84.208-.84s.169.348.239.116c.191-.619.502-.84.502-.84s.28.01.777.533c.346.365.191-.106.191-.106s.242-.022.744.899c.162.299.432.471.528-.012.575.62.375 1.289.375 1.524 0 .209.102.233.111.138.059-.571.658-.377.658-.377s-.244.248.007 1.121c.124.436-.118.858-.118.858l.139.244" transform="translate(59.3 48.066)"/><path style="fill:#2b57ac;fill-rule:nonzero" d="M0 0s.034.529-.351.667C-.853.85-1.503.613-2.793.733c-3.135.294-2.749 1.425-2.749 1.425s1.971-.874 2.805-.466c.46.226.429.624.429.624.129-.151-.011-.451-.011-.451s.809.594-.152 1.521c-.349.334-.987.582-1.465.644-1.379.179-1.906.105-2.878.239-.813.114-.997.401-.955.629.124.673 1.641-.284 2.473.086.222.101.406.253.599.302a.877.877 0 0 0 .404-.017s-.196.354-.839.218c-.529-.112-.569.066-.569.066s.248-.021.569.167c.206.119.263.382.488.48.277.119.556.007.556.007s-.361.615-1.057.255c-.474-.308-.645-.081-.645-.081l.569.403c.175.352.4.407.4.407s-.356.17-.657-.125c-.195-.19-.479-.246-.966-.238-.617.008-.865-.726-.865-.726s-.245-.015-.456-.123a2.005 2.005 0 0 1-.399-.301l.079.238s-.459-.227-.471-.931c-.022-1.186 1.266-1.283 1.688-1.316.627-.049 1.822-.08 2.738-.206 1.24-.171 1.274-.742 1.11-1.008-.18-.297-.692-.145-1.552.157-.861.301-1.589.802-3.332.746-2.75-.088-5.66-2.048-6.502-1.547.042-.319-.033-.976-.756-1.561-.027.49-.177.425-.343.13-.46-.829-.94-.912-.94-.912s.088.282-.221.011c-.313-.277-.672-.321-.672-.321s-.439.315-.542.808l-.089-.155c-.367.177-.452.76-.452.76s-.176-.114-.578-.048c0 0 .226.247-.029.894-.504 0-2.498.347-2.748 1.377-.092.384-.207.568-.449.584l.051-.073.009-.138-.215-.098-.118.136-.038.056c-.196-.154-.135-.474-.135-.474-.224.187-.685.501-.956.308l.13-.079.062-.136a.176.176 0 0 0-.181-.176l-.168.09-.078.054c-.238-.387.536-.806.536-.806-.293.017-.712-.215-.703-.48l.133.043.129-.04.016-.234-.166-.066-.031-.004c.076-.161.212-.265.592-.161.915.26 1.539.093 1.539.093s-.028-.305-.444-.224c-.02.003.162-.238.535-.238.491 0 .751.196.761.2 0 0 .024-.115-.116-.185-.296-.151-.104-.475-.104-.475.161.361.456.221.456.221a.34.34 0 0 1 .054-.443s.019.208.346.291c.225.057.419-.024.419-.024s-.19-.267.038-.57c0 0 .096.436.398.307.126-.053.11-.192.074-.249l-.195-.111c.471-.225.59.146.954-.191-.467-.212-1.051-.256-1.59-.227-1.133.098-1.369.32-1.635.564-.363.348-.651.384-.824.331l.059-.042.061-.135c0-.1-.079-.178-.177-.178l-.171.092-.041.029c-.1-.173.085-.327.14-.403l-.21.041c-.24.052-.442-.035-.501-.215l.191-.013.113-.095-.085-.237-.191.01-.067.011c.071-.307.426-.345.696-.356-.13-.079-.267-.195-.238-.378l.13.079.129-.009.064-.215-.144-.092-.045-.021c.219-.235.757.072.906.158.429.242.799.201 1.011.095.401-.198-.14-.363-.14-.363.133-.107.346-.057.477 0 .121.054.236.145.294.063.032-.051.015-.142-.076-.223l-.172-.081c.5-.192.964.268.964.268s.038-.063-.007-.182c-.075-.195-.261-.265-.261-.265.542-.164.819.481.819.481s.258-.198-.061-.481c.445-.013.502.351.722.211.128-.083.06-.265-.126-.302.514-.175.47.283 1.067.183.871-.151 1.874-.279 3.406.314 2.353.902 2.594 2.976 5.171 3.264 0 0 .217-.452 1.982-.928C-5.132-.248-2.258.139-2.387-.75c-.066-.453-1.345.198-1.507-.253l-.006-.024.144.003.106-.071-.052-.215-.167-.009-.02.003c.052-.098.154-.151.262-.171-.155-.081-.245-.142-.256-.345l.001-.058.092.051.128-.008.066-.209-.139-.094-.019-.008a.356.356 0 0 1 .354-.091.54.54 0 0 1 .227.123c-.043-.072-.128-.241-.085-.376l.071-.12.055.143.11.069.175-.133-.058-.156-.013-.022c.329-.012.62.426.677.807.073.486.225.413.225.413l.091-.186.195-.093c-.014.33.231.432.337.34.104-.092.018-.292.018-.292s.167-.058.365.278c.111.178.102.408.233.422.178.006.107-.216.107-.216.413.222.155.881.316.956.127.033.077-.207.077-.207s.26.14.185.424C-.205.344 0 0 0 0" transform="translate(74.375 44.516)"/><path style="fill:#ea1f29;fill-rule:nonzero" d="m0 0-.016.233-.13.041-.132-.043-.091-.055c-.226-.181-.184-.404-.162-.525 0 0 .073.222.333.278l.032.006L0 0" transform="translate(50.624 45.847)"/><path style="fill:#ea1f29;fill-rule:nonzero" d="M0 0c.1-.001.18.077.18.176L.119.312l-.13.079-.105.031C-.424.478-.575.287-.657.183c0 0 .198.084.411-.039L-.169.09 0 0" transform="translate(50.76 47.22)"/><path style="fill:#ea1f29;fill-rule:nonzero" d="m0 0 .215.098-.009.137-.051.074-.119.1C-.216.559-.41.44-.516.377c0 0 .215.008.36-.186l.038-.055L0 0" transform="translate(51.995 47.586)"/><path style="fill:#ea1f29;fill-rule:nonzero" d="m0 0-.065.215-.128.009-.13-.079-.053-.056C-.552-.127-.467-.324-.421-.43c0 0 .021.207.232.317l.045.021L0 0" transform="translate(51.587 42.672)"/><path style="fill:#ea1f29;fill-rule:nonzero" d="M0 0c.098 0 .177.078.177.179l-.06.134-.06.043-.176.067C-.426.479-.578.287-.659.184c0 0 .224.093.447-.062l.041-.03L0 0" transform="translate(51.627 44.33)"/><path style="fill:#ea1f29;fill-rule:nonzero" d="M0 0a.178.178 0 0 1 .085.238l-.113.095-.191.012-.069-.012C-.59.251-.644.014-.672-.117c0 0 .154.174.414.139L-.192.01 0 0" transform="translate(51.064 43.53)"/><path style="fill:#ea1f29;fill-rule:nonzero" d="m0 0 .051.213-.106.072-.143-.003L-.28.261c-.254-.1-.278-.311-.29-.425 0 0 .13.183.382.157l.02-.002L0 0" transform="translate(70.673 43.207)"/><path style="fill:#ea1f29;fill-rule:nonzero" d="m0 0-.065.21-.128.008-.093-.051-.088-.086c-.169-.215-.081-.409-.034-.513 0 0 .019.226.251.33l.018.009L0 0" transform="translate(70.778 42.46)"/><path style="fill:#ea1f29;fill-rule:nonzero" d="m0 0-.175.133-.109-.069-.056-.143-.009-.073c-.013-.271.171-.379.268-.436 0 0-.113.189.011.409l.012.023L0 0" transform="translate(71.528 41.974)"/><path style="fill:#ea1f29;fill-rule:nonzero" d="M0 0a.182.182 0 0 1 .217.131L.189.276l-.04.05-.165.112C-.301.566-.494.414-.597.333c0 0 .269.044.454-.205l.006-.009L0 0" transform="translate(50.654 56.767)"/><path style="fill:#2b57ac;fill-rule:nonzero" d="M0 0c-3.237.096-4.307 1.27-4.307 1.27s-.546-.831.797-1.375c0 0-.25.07-.569.096-.378.032-.543.035-.543.035s-.285.433-.787.518c-.137.023-.273.03-.391.013l.023-.021.044-.119-.169-.142-.139.089-.062.051-.017-.017a.355.355 0 0 1-.046-.392c-.461-.062-.612-.207-.649-.395l.226.016.103-.075-.061-.214h-.167l-.101.008c.045-.244.337-.419.801-.225.114.047-.285-.14-.128-.548l.035.078.105.074.182-.128-.053-.156-.045-.116.001-.001c.394-.172.808.302.859.524 0 0 .039-.285.211-.406.003-.001.025.121.118.22.171.186.153-.036.153-.036-.001-.34.215-.396.215-.396s-.033.391.27.454c.123-.42.585.222.538.029-.105-.425.083-.554.083-.554s.039.51 1.06.568a.535.535 0 0 1 .287-.47c.072.983 1.466.992 1.696 1.03C.24-.606 0 0 0 0" transform="translate(69.76 53.281)"/><path style="fill:#ea1f29;fill-rule:nonzero" d="m0 0 .169.143-.044.12-.023.02-.174.092C-.335.445-.48.289-.557.204c0 0 .18.06.356-.064l.062-.05L0 0" transform="translate(63.858 53.555)"/><path style="fill:#ea1f29;fill-rule:nonzero" d="M0 0h.166l.061.214-.102.075-.227-.016C-.359.186-.393-.023-.41-.137c0 0 .107.14.308.145L0 0" transform="translate(63.047 52.62)"/><path style="fill:#ea1f29;fill-rule:nonzero" d="m0 0-.182.127-.105-.074-.034-.077-.025-.142c0-.271.188-.372.289-.424 0 0-.089.137-.042.318l.045.116L0 0" transform="translate(63.94 51.879)"/><path style="fill:#2b57ac;fill-rule:nonzero" d="m0 0-.012-.023C-.03-.061-.193-.365-.509-.38l-.022-.003c-.202-.003-.392.146-.392.146s-.029.015-.072-.226c-.03-.191-.152-.188-.152-.188s-.013.288.07.489c.101.258.346.233.346.233h.002L-.77-.051a.206.206 0 1 1 .411.007l-.023.09.369-.022h.024zm-1.248-1.834c-.263-.197-.238-.52-.306-.736-.083-.265-.335-.382-.6-.309-.23.054-.438.207-.443.451-.003.281.485.622.211.992-.211.324-.189.459-.189.459s.058-.094.211-.186c.058-.033.515-.284.63.073.03.09-.035.149-.092.196l-.105.087-.003.182s.121-.179.345-.231a.773.773 0 0 1 .441.039s.044-.169-.147-.183c-.103-.005-.254-.003-.282-.128-.085-.42.532-.366.718-.348.147.014.216.03.216.03-.134-.171-.357-.189-.593-.365M-2.531.656l.001.028.002.026.022-.014.331-.163-.068-.067a.208.208 0 0 1 .072-.282.207.207 0 0 1 .282.072l.026.127h.002s.224-.103.184-.377c-.031-.215-.184-.46-.184-.46s-.108.058-.037.241c.082.228.048.231.048.231s-.237-.034-.411.07L-2.277.1c-.27.172-.259.517-.254.556M1.125.052c.113.529-.303.54-.303.54s.178.119.247.343c.118.394-.097.919-.097.919s-.141-.39-.574-.202c0 0 .214.253.045.72a.532.532 0 0 0-.249-.293c-.221-.129-.475-.101-.57.06-.082.142-.014.338.151.472-.062.017-.335.085-.585.013-.266-.078-.67-.346-.67-.346s-.275.215-.138.528c0 0-.415.043-.555-.437a.302.302 0 0 0-.237-.229s-.032.334-.333.427a1.428 1.428 0 0 1-.555-1.14c-.203-.062-.286-.298-.306-.418-.255-1.524-.649-.801-.644-.827.085-.768.608-.658.608-.658-.092-.534-.646-.25-.646-.25.203-.778.671-.453.671-.453-.332-.571-.081-1.01.097-1.449.187-.406.181-.749.181-.749s.223.118.344.117c.169-.003.115-.185.119-.416.008-.325.139-.421.139-.421l.074.144c.086.133.134.116.134.116s-.045-.408.222-.61c0 0 .375.545.582.506.137-.025.221-.357.221-.357 1.082.685 1.228 2.182 1.431 1.65.055-.13.061-.256.061-.256s.66.393.59 1.85c0 0 .118-.118.323-.174.203-.057.319.007.319.007S.932-.83 1.125.052" transform="translate(59.151 57.29)"/><path style="fill:#ea1f29;fill-rule:nonzero" d="M0 0c.516-.169.56.375.572.476.07.553.456.574.525.631-.181-.024-.54.01-.643.228-.122-.06-.333-.084-.57.036l.123-.232C.048.996-.007.837-.07.711-.13.593-.468.155 0 0" transform="translate(56.954 54.567)"/><path style="fill:#ea1f29;fill-rule:nonzero" d="m0 0-.013.236-.131.04-.19-.075-.034-.022c-.226-.18-.184-.405-.163-.524 0 0 .066.197.293.266l.072.018L0 0" transform="translate(50.604 55.364)"/><path style="fill:#ea1f29;fill-rule:nonzero" d="m0 0 .23.06.012.138-.015.04-.121.16c-.225.188-.435.105-.551.061 0 0 .232-.031.337-.275l.014-.031L0 0" transform="translate(51.967 57.183)"/><path style="fill:#ea1f29;fill-rule:nonzero" d="m0 0 .227.061.015.137-.059.113-.079.085C-.12.588-.33.503-.446.458c0 0 .252-.03.352-.305l.01-.03L0 0" transform="translate(51.589 53.926)"/><path style="fill:#ea1f29;fill-rule:nonzero" d="M0 0a.178.178 0 0 1 .107.229L.003.334l-.22.028-.038-.005C-.562.305-.641.073-.681-.052c0 0 .16.147.4.103L-.19.028 0 0" transform="translate(50.869 53.061)"/><path style="fill:#ea1f29;fill-rule:nonzero" d="m0 0-.145.034-.174-.076-.056-.045c-.231-.211-.17-.448-.137-.575 0 0 .067.263.37.333l.007.001.168.077L0 0" transform="translate(51.584 52.296)"/><path style="fill:#2b57ac;fill-rule:nonzero" d="M0 0c-.225.108-.587.062-1.02.016-.34-.035-.725-.072-1.114-.032-2.617.262-2.828 1.224-2.723 1.159 0 0 .563-.286 1.419-.453 2.332-.454 2.351.824 2.351.824s.078-.057.101-.198c.024-.164-.087-.387-.087-.387s.292.217.292.541c0 .485-.317.655-.317.655s.065.007.181-.094c.117-.1.184-.347.184-.347s.123.404-.326.779c-1.252 1.047-3.959.841-5.001.99-.914.131-1.153.507-1.086.895.111.637.965.653.965.653-.046-.694.817-1.149 1.637-.967.458.102.735.258 1.06.52.245.196.439.287.439.287-.422.081-.691-.086-.86-.157a1.864 1.864 0 0 0-.567-.149c-.51-.043-.559.297-.559.297s.379-.181.872-.066c1.42.331.957 1.657.957 1.657s-.125-.501-.57-.688c-.42-.174-.768.101-.768.101s.687-.07.834.468c.083.305-.207.464-.207.464s.063-.684-1.578-.583c-.717.045-.715-.568-.715-.568s-.116-.002-.408-.088c-.266-.077-.449-.205-.449-.205.073.198.362.293.362.293-.38 0-.696-.293-.696-.293l.055.18c-.012-.022-.423-.363-.515-1.091a1.318 1.318 0 0 1 .301-1.021c.394-.463 1.147-.522 1.603-.558.676-.052 1.79-.112 2.774-.247 1.333-.183 1.413-.628 1.237-.912-.194-.319-.788-.326-1.711 0-.926.324-2.782.995-4.117.99-3.526-.015-5.107-1.51-6.16-1.232.03-1.35-.937-1.889-.937-1.889-.146.744-.044-.61-1.478-1.314 0 0-.011.336-.159.365-.193.04-.471-.486-.471-.486-.307.203-.403.52-.403.52l-.074-.151s-.239.15-.291.405c-.052.26.026.455-.089.46-.132.006-.413-.185-.413-.185s.049.446-.156.909c-.113.297-.278.568-.304.89-1.136.213-2.52.668-2.55 1.105-.03.41.043.827-.412.96l.014-.041-.011-.138-.23-.06-.094.153-.014.032c-.262-.154-.155-.625-.155-.625-.206.21-.639.595-.901.35l.04-.05.028-.145a.182.182 0 0 0-.218-.131l-.136.119c-.278-.391.294-.857.294-.857-.085-.043-.54-.134-.542-.463l.19.074.131-.039.013-.237-.165-.062-.072-.016a.457.457 0 0 1 .566-.159c.729.31.914.135 1.232.065.226-.048.429.006.433-.127.002-.109-.104-.19-.443-.148 0 0 .082-.215.452-.256.558-.061.733.076.807-.021.135-.178-.402-.246-.402-.246.438-.334 1.017-.077 1.017-.077.03-.195-.385-.236-.385-.236s.165-.184.492-.103c.123.031.231.089.231.089s-.098-.323.188-.488c0 0 .163.551.391.409.113-.068.128-.184.077-.25-.072-.094-.179-.079-.179-.079.066-.168.36-.168.36-.168s-.356-.22-1.348-.205c-1.316.108-1.24.255-1.56.643-.257.339-.406.359-.523.308l.057-.113-.013-.137-.228-.061-.083.123c-.162-.161-.132-.306-.057-.44-.065.011-.686.1-.796-.186l.22-.027.104-.106a.177.177 0 0 0-.108-.228l-.19.027-.091.024-.004-.03c-.007-.425.613-.436.919-.449-.13-.078-.27-.194-.237-.38l.173.076.145-.033.034-.252-.169-.077c.406-.268.709.104.856.188.428.244 1.085.216 1.252.036.124-.134-.15-.288-.15-.288a.736.736 0 0 1 .525.147s-.059-.067-.082-.208a.33.33 0 0 1 .102-.311c.251.483.443.451.539.36.116-.109-.118-.274-.118-.274.291-.147.667.152.667.152s-.027-.248.114-.383c.191.348.61.316.887.282 0 0-.397-.271-.243-.611.249.241.56.329.982.277.877-.106 2.537-.604 5.386 2.04C-9.77.761-8.484.532-8.484.532-6.773-.857-3.486-.882-2.644-.945c.406-.029.412-.282.234-.499a.524.524 0 0 0-.268-.168s-.809.335-1.108-.115l.157-.002.101-.074-.059-.206-.163-.002-.069.008c.036-.149.152-.194.232-.214l.024-.025c-.172-.164-.169-.334-.162-.39l.121.058.121-.02.042-.21-.142-.077-.044-.014c.086-.135.239-.217.474-.126.181.067.23.106.242.124-.019-.037-.08-.17-.015-.275l.028-.037.097.177.115.046.145-.157-.084-.139-.037-.048h.206c.252.05.448.265.504.798.021.18.06.279.105.329.084.096.276.166.276.166s.08-.211-.058-.367c.498-.081.565.702.565.702s.052-.151.164-.253c.11-.102.266-.124.266-.124-.091.558.13.749.235.775.21.052.203-.202.203-.202s.183.122.144.371c-.021.142-.096.278-.096.278s.176.087.27-.15c0 0 .188.303.016.471l.093.01.084-.07S.401-.194 0 0" transform="translate(73.861 54.4)"/><path style="fill:#ea1f29;fill-rule:nonzero" d="m0 0 .059.205-.101.075-.157.001-.062-.018c-.25-.086-.283-.289-.301-.4 0 0 .117.15.33.143l.069-.007L0 0" transform="translate(70.274 52.391)"/><path style="fill:#ea1f29;fill-rule:nonzero" d="m0 0-.042.211-.122.018-.12-.057-.068-.057c-.184-.191-.12-.385-.084-.493 0 0 .037.201.25.286l.044.015L0 0" transform="translate(70.42 51.596)"/><path style="fill:#ea1f29;fill-rule:nonzero" d="m0 0-.146.157L-.26.111l-.097-.177-.004-.018c-.06-.259.098-.392.183-.464 0 0-.069.181.057.361l.037.049L0 0" transform="translate(71.32 51.256)"/></g><path style="fill:#e6e6e6;fill-opacity:1;stroke-width:1.96654665" d="M111.178.707c-3.929 11.914-5.114 15.758-7.58 22.918-9.497.158-11.324.219-25.16.365C88.61 31 89.026 31.512 98.38 38.276c-2.675 9.061-3.421 11.111-7.144 23.77 7.37-5.035 12.618-9.134 19.693-13.86 9.292 6.039 10.954 7.211 21.06 13.678-3.802-11.295-4.684-13.91-7.33-23.284 8.96-6.588 11.44-8.546 20.128-14.711-10.12-.086-15.351-.156-24.974-.244-3.632-8.87-4.649-11.722-8.635-22.918z"/><path style="fill:#d4d4d4;fill-opacity:1;stroke-width:1.96654665" d="M111.178.712c-.091 19.359-.046 19.801-.062 33.496.01-.019.052.02.062 0 3.751-4.76 4.399-5.602 8.636-10.638-3.896-9.84-4.264-10.464-8.636-22.858zm0 33.496c6.182 1.931 7.765 2.539 13.42 4.317 9.336-6.674 10.42-7.454 19.941-14.53-14.535 4.54-19.478 6.001-33.36 10.213zm-.062 0h-.062c-3.746-5.159-4.06-5.71-7.392-10.517-11.681.211-13.256.222-25.223.365 17.164 5.252 19.317 5.97 32.553 10.213-5.784 1.817-6.8 2.151-12.611 4.012a2840.57 2840.57 0 0 0-7.144 23.83c10.136-14.281 11.962-16.85 19.88-27.842v-.06zm0 .06c-.07 6.219-.141 7.758-.186 13.922 9.63 6.293 10.32 6.695 21.06 13.617-10.55-13.993-12.48-16.556-20.874-27.538z"/></svg>