<svg xmlns="http://www.w3.org/2000/svg" width="146.49" height="200"><path style="fill:#1f2742" d="M0 0v126.17c0 13.43 6.52 26.1 17.44 33.92L73.26 200l55.8-39.92c10.92-7.81 17.43-20.49 17.43-33.91V0H0z"/><path style="fill:#fff" d="M3.61 3.61v122.56c0 12.27 5.96 23.85 15.93 30.98l53.72 38.42 53.7-38.42c9.97-7.13 15.92-18.71 15.92-30.98V3.61H3.61z"/><g style="fill:#bb2533"><path d="m22.12 147.24 3.57 2.62a17.86 17.86 0 0 1-3.35-8.47c-.09-.72-.13-1.44-.13-2.17V72.69l-9.23-4.26-.02 59.75c0 7.63 3.14 14.64 9.16 19.06M31.51 153.68l9.25 6.68V81.23l-9.25-4.26zM59.32 89.78l-9.25-4.26v81.55l9.25 6.68zM68.62 94.07v86.4l4.71 3.4 4.54-3.28V94.07l-4.64 2.12zM87.17 173.87l9.25-6.68V85.56l-9.25 4.24zM105.73 160.47l9.24-6.68V77.06l-9.24 4.24zM124.29 72.68v66.52c0 .73-.05 1.45-.13 2.17-.37 3.1-1.54 6.02-3.35 8.48l3.57-2.62c6.02-4.43 9.16-11.43 9.16-19.07l-.02-59.75-9.23 4.27z"/></g><g style="fill:#1f2742"><path d="m111.63 66.58-10.96 5V18.05c0-2.63 2.13-4.76 4.76-4.76h28.1v38.66c0 2.78-1.62 5.3-4.15 6.46l-6.8 3.12v-12.1l-8.98 4.13c-1.2.55-1.97 1.75-1.97 3.07v9.95zm0-24.15 10.94-5.03V23.7h-10.94v18.73zM60.93 78.43a7.055 7.055 0 0 1-4.11-6.42V56l10.96 5.08v9.28l5.46 2.52 5.46-2.52V54.68l-17.62-8.11a7.31 7.31 0 0 1-4.26-6.64v-22c0-2.56 2.07-4.63 4.63-4.63h23.58c2.56 0 4.63 2.08 4.63 4.63v18.83L78.7 31.68V23.7H67.77v13.65l17.62 8.09a7.293 7.293 0 0 1 4.26 6.64v19.93c0 2.76-1.61 5.27-4.12 6.43l-12.3 5.65-12.3-5.66M17.22 58.36 45.8 71.51V13.29H34.85v41.17l-9.09-4.18a3.136 3.136 0 0 1-1.83-2.86V13.29H12.97v38.42c0 2.86 1.66 5.45 4.25 6.65"/></g></svg>