<?xml version="1.0" encoding="UTF-8" standalone="no"?>
<!-- Generator: Adobe Illustrator 12.0.0, SVG Export Plug-In  -->

<svg
   xmlns:dc="http://purl.org/dc/elements/1.1/"
   xmlns:cc="http://creativecommons.org/ns#"
   xmlns:rdf="http://www.w3.org/1999/02/22-rdf-syntax-ns#"
   xmlns:svg="http://www.w3.org/2000/svg"
   xmlns="http://www.w3.org/2000/svg"
   xmlns:sodipodi="http://sodipodi.sourceforge.net/DTD/sodipodi-0.dtd"
   xmlns:inkscape="http://www.inkscape.org/namespaces/inkscape"
   version="1.1"
   width="700"
   height="700"
   viewBox="-0.3779297 -0.4121094 700 700"
   enable-background="new -0.3779297 -0.4121094 501 491"
   xml:space="preserve"
   id="svg2"
   inkscape:version="0.92.4 (5da689c313, 2019-01-14)"
   sodipodi:docname="santos-logo.svg"><metadata
     id="metadata38"><rdf:RDF><cc:Work
         rdf:about=""><dc:format>image/svg+xml</dc:format><dc:type
           rdf:resource="http://purl.org/dc/dcmitype/StillImage" /><dc:title></dc:title></cc:Work></rdf:RDF></metadata><sodipodi:namedview
     pagecolor="#ffffff"
     bordercolor="#666666"
     borderopacity="1"
     objecttolerance="10"
     gridtolerance="10"
     guidetolerance="10"
     inkscape:pageopacity="0"
     inkscape:pageshadow="2"
     inkscape:window-width="1600"
     inkscape:window-height="837"
     id="namedview36"
     showgrid="false"
     inkscape:zoom="0.51981013"
     inkscape:cx="539.83955"
     inkscape:cy="365.37961"
     inkscape:window-x="-8"
     inkscape:window-y="-8"
     inkscape:window-maximized="1"
     inkscape:current-layer="svg2"
     showguides="false" /><defs
     id="defs4" /><path
     d="m 474.23895,168.41926 c -2.30755,1.24951 -4.61264,2.49903 -6.9202,3.74771 -32.48323,16.91507 -71.69272,25.37117 -117.62888,25.4669 -46.03271,-0.0957 -85.24344,-8.55183 -117.8216,-25.4669 -2.30631,-1.24868 -4.61263,-2.4982 -6.82321,-3.74771 l -59.48769,64.10032 c 34.98144,25.75575 33.73316,67.07886 -3.74772,123.97137 -23.06484,34.78873 -28.44543,71.11543 -16.14465,108.98049 15.37546,47.47412 52.27864,73.03716 110.80525,76.7853 36.42285,2.30508 67.46387,15.08866 93.21962,38.4403 25.65879,-23.35164 56.6998,-36.13522 93.12264,-38.4403 58.52539,-3.74814 95.42979,-29.31118 110.80608,-76.7853 12.20422,-37.86506 6.91772,-74.19176 -16.05014,-108.98049 -37.57498,-56.89251 -38.82572,-98.21562 -3.84346,-123.97137 z"
     id="path6"
     inkscape:connector-curvature="0"
     style="clip-rule:evenodd;fill-rule:evenodd;stroke-width:0.84150064" /><path
     d="m 228.50515,178.60683 c -0.67303,-0.28885 -1.34525,-0.67344 -2.01869,-1.05803 l -50.16504,54.2016 c 32.48201,27.96633 29.69537,70.92354 -8.4565,128.68097 -2.2114,3.36313 -4.32502,6.82364 -6.151,10.18635 L 436.85545,192.63664 c -25.75699,8.16889 -54.87669,12.20505 -87.16558,12.30119 -47.28264,-0.0961 -87.6459,-8.8411 -121.18472,-26.331 z"
     id="path8"
     inkscape:connector-curvature="0"
     style="clip-rule:evenodd;fill:#ffffff;fill-rule:evenodd;stroke-width:0.84150064" /><path
     d="m 330.2766,370.71511 -39.01761,25.17722 v 144.63374 c 13.83956,3.74813 26.81257,9.32142 38.92187,16.52924 z"
     id="path10"
     inkscape:connector-curvature="0"
     style="clip-rule:evenodd;fill:#ffffff;fill-rule:evenodd;stroke-width:0.84150064" /><path
     d="m 408.21566,320.26122 -39.01801,25.17846 v 211.61563 c 12.11054,-7.30314 25.08395,-12.87726 39.01801,-16.62457 z"
     id="path12"
     inkscape:connector-curvature="0"
     style="clip-rule:evenodd;fill:#ffffff;fill-rule:evenodd;stroke-width:0.84150064" /><path
     d="m 252.24221,421.16775 -39.01761,25.17928 v 80.05349 c 11.5316,4.22723 24.50624,6.91774 39.01761,8.26463 z"
     id="path14"
     inkscape:connector-curvature="0"
     style="clip-rule:evenodd;fill:#ffffff;fill-rule:evenodd;stroke-width:0.84150064" /><path
     d="m 174.20658,471.62245 -14.22292,9.12996 c 3.94084,7.49544 8.64921,14.22168 14.22292,20.27654 z"
     id="path16"
     inkscape:connector-curvature="0"
     style="clip-rule:evenodd;fill:#ffffff;fill-rule:evenodd;stroke-width:0.84150064" /><path
     d="m 486.25088,269.80734 -39.11335,25.17846 v 239.67935 c 14.51178,-1.34689 27.48437,-4.13355 39.01802,-8.36077 z"
     id="path18"
     inkscape:connector-curvature="0"
     style="clip-rule:evenodd;fill:#ffffff;fill-rule:evenodd;stroke-width:0.84150064" /><path
     d="m 531.41744,360.43137 c -2.20894,-3.26697 -4.32255,-6.63133 -6.24469,-9.80175 v 150.30401 c 9.41757,-10.28455 16.62539,-22.87254 21.52565,-37.67359 11.53283,-35.74981 6.43863,-69.96289 -15.28096,-102.82867 z"
     id="path20"
     inkscape:connector-curvature="0"
     style="clip-rule:evenodd;fill:#ffffff;fill-rule:evenodd;stroke-width:0.84150064" /><path
     d="m 453.57616,205.32243 c -1.0568,-2.59395 -3.36436,-3.17165 -6.82486,-1.53837 l -50.836,33.63701 c -3.07674,3.26699 -4.61511,6.53437 -4.80659,9.8975 v 56.79677 c 1.05681,7.11208 4.42117,9.0338 10.18676,5.9583 l 44.59131,-28.25395 c 4.03741,-3.45887 6.63258,-8.16889 7.68938,-14.03104 v -26.23526 l -22.58492,13.74218 v 16.62621 l -12.49349,8.36077 c -1.44058,0.76919 -2.49738,0.67304 -3.07427,-0.28886 -0.48156,-0.76918 -0.67386,-2.21058 -0.76919,-4.51567 l -0.4791,-29.02314 c 0.19148,-1.63411 0.76673,-2.97977 1.72739,-3.94084 l 13.26267,-9.80298 c 2.8828,-2.30633 4.42117,-2.20894 4.61346,0.19311 v 3.07551 l 19.79745,-13.16612 z"
     id="path22"
     inkscape:connector-curvature="0"
     style="clip-rule:evenodd;fill:#ffffff;fill-rule:evenodd;stroke-width:0.84150064" /><polygon
     points="228.26807,221.66895 228.26807,205.33789 214.44873,214.24512 214.44873,193.00391 228.03906,184.21045 228.03906,195.62939 242.08594,186.26514 242.08594,150.97656 229.18066,159.88525 229.18066,166.2793 214.10596,174.95996 214.10596,157.03027 232.83545,144.58252 237.74609,146.97852 254.41992,136.13086 254.41992,113.51807 175.61963,164.68164 175.61963,181.69775 186.58252,175.07422 186.58252,231.37598 175.9624,238.5708 176.19043,254.55957 "
     id="polygon24"
     style="clip-rule:evenodd;fill:#ffffff;fill-rule:evenodd"
     transform="matrix(0.84150063,0,0,0.84150063,139.24692,168.41926)" /><polygon
     points="159.85938,243.36719 137.3623,257.52734 137.3623,279.79785 159.85938,264.9502 "
     id="polygon26"
     style="clip-rule:evenodd;fill:#ffffff;fill-rule:evenodd"
     transform="matrix(0.84150063,0,0,0.84150063,139.24692,168.41926)" /><polygon
     points="260.58496,200.31348 283.08398,185.58008 283.08398,163.99561 260.58496,178.1582 "
     id="polygon28"
     style="clip-rule:evenodd;fill:#ffffff;fill-rule:evenodd"
     transform="matrix(0.84150063,0,0,0.84150063,139.24692,168.41926)" /><path
     d="m 240.32478,341.30737 c -1.44139,-0.76918 -3.55501,-0.86533 -6.53477,-0.0962 l -46.99338,29.11929 c -4.90149,3.17001 -7.11207,6.4374 -6.53601,9.89709 l 0.097,24.69853 c 0.38459,3.74731 1.72902,5.76724 4.03658,5.95953 2.40246,0.28763 5.86133,-1.25074 10.4752,-4.51731 l 19.60474,-12.49349 c 3.74772,-1.44058 6.05404,-1.34443 6.82323,0.28927 v 16.04768 l -15.76129,10.57217 c -2.59477,1.44058 -3.65158,0.38377 -3.26699,-3.07673 v -8.93767 l -22.00844,13.64892 v 16.72072 c -0.0957,7.01387 2.88403,9.12995 8.9393,6.24715 l 47.56985,-30.65724 c 4.13232,-2.20977 6.05404,-6.91774 5.95831,-13.93408 l -0.28886,-22.96786 c -3.36436,-4.90191 -8.55307,-5.86381 -15.47243,-2.69215 l -20.85427,12.78276 c -2.01787,0.76671 -3.17124,-0.0986 -3.55501,-2.30756 v -7.20781 c -0.19271,-1.05681 0,-2.11362 0.67222,-3.0751 0.67221,-0.96066 1.82599,-2.01828 3.74771,-3.26821 l 10.18758,-6.53436 c 2.40248,-1.34566 3.93961,-1.05681 4.41994,1.0568 v 5.28608 l 21.14312,-13.06914 v -13.64644 c -0.57648,-1.92173 -1.34566,-3.17166 -2.4033,-3.84469 z"
     id="path30"
     inkscape:connector-curvature="0"
     style="clip-rule:evenodd;fill:#ffffff;fill-rule:evenodd;stroke-width:0.84150064" /><polygon
     points="411.22168,82.569336 388.72266,96.730469 388.72266,119.00098 411.22168,104.26807 "
     id="polygon32"
     style="clip-rule:evenodd;fill:#ffffff;fill-rule:evenodd"
     transform="matrix(0.84150063,0,0,0.84150063,139.24692,168.41926)" /><path
     d="m 299.33173,246.83824 c 0,-12.58882 -4.5169,-23.35246 -13.35759,-32.19356 -8.93807,-8.93766 -19.70089,-13.45456 -32.1948,-13.35759 -12.5884,-0.097 -23.25631,4.41993 -32.19438,13.35759 -8.93684,8.8411 -13.35801,19.60474 -13.35801,32.19356 0,12.4939 4.42117,23.25673 13.35801,32.19438 0.57647,0.48074 1.15377,1.05681 1.73025,1.53837 8.55306,7.88003 18.64368,11.81964 30.46413,11.81964 12.49391,0 23.25673,-4.51567 32.1948,-13.35801 8.84069,-8.93765 13.35759,-19.70048 13.35759,-32.19438 z m -47.66559,-41.13122 c 0.76796,-0.0961 1.4414,-0.0961 2.20935,-0.0961 4.80535,0 9.12954,0.76835 13.35883,2.11484 0.0957,0.0957 0.0957,0.19147 0.0957,0.28762 11.05168,19.70048 12.01234,36.61555 3.17165,50.54962 -0.0961,-0.0957 -0.28885,-0.0957 -0.48074,-0.19271 2.21058,-19.22057 -3.84469,-36.80621 -18.35482,-52.66323 z m 15.8558,55.45111 c 0.48033,0 1.0568,0 1.6341,0.0957 0.67222,0.0962 1.24951,0.28885 1.73025,0.57648 0.19148,0.19271 0.3846,0.38459 0.57607,0.67304 0,0.0961 0,0.0961 0,0.0961 0,0.19271 0.0962,0.38459 0,0.67304 -0.0957,0.48074 -0.38459,1.05681 -0.96066,1.63328 -0.28885,0.3846 -0.5777,0.76919 -0.96107,1.05763 -0.86492,0.76836 -2.01869,1.44058 -3.36436,1.92214 -1.63287,0.57606 -3.17124,0.86492 -4.61263,0.86492 -0.19189,-0.097 -0.38459,-0.097 -0.57607,-0.097 -1.05804,-0.19189 -1.73025,-0.57648 -2.11485,-1.24951 -0.28762,-0.67222 -0.19188,-1.34566 0.48157,-2.20976 0,0 0.0949,-0.0957 0.0949,-0.19148 0,0 0,0 0.097,0 0.96066,-1.24951 2.4978,-2.21058 4.41952,-2.97977 1.15378,-0.48033 2.40247,-0.76918 3.55625,-0.86492 z m -2.20935,-2.59517 c -0.86616,0.1927 -1.53837,0.38459 -2.40329,0.76918 -1.92173,0.67222 -3.4601,1.63329 -4.70879,2.78665 -21.62344,-3.84346 -32.29053,-19.02827 -32.09864,-45.64935 5.86214,-5.3806 12.58963,-8.84069 20.08507,-10.18512 15.3767,15.66309 21.62385,33.05849 19.12565,52.27864 z m 28.92617,-20.08508 c -0.19189,0.57607 -0.38459,1.24952 -0.57771,1.92173 -4.03534,11.91742 -10.56971,18.83679 -19.60475,20.75852 9.41963,-14.12718 9.22693,-31.04184 -0.47909,-50.54962 3.36313,1.82599 6.43863,4.22806 9.32142,7.11085 6.05404,5.95789 9.80176,12.8785 11.34013,20.75852 z m -11.05168,37.09465 c -0.0957,0.097 -0.19147,0.19312 -0.28845,0.28885 -4.99764,4.99724 -10.66709,8.45733 -17.00997,10.37906 2.88279,-4.5169 3.84386,-9.89873 3.07468,-16.4331 0.28844,-0.0957 0.57729,-0.28885 0.86492,-0.48033 4.42116,3.55584 8.93806,5.67027 13.35882,6.24552 z m -10.09143,-9.22528 c 0.1927,-0.28885 0.38459,-0.48074 0.48156,-0.76836 9.4184,-1.24951 16.52924,-6.92019 21.43073,-17.0108 -0.28885,8.55347 -3.0755,16.14588 -8.07314,22.77639 -4.61264,0.19271 -9.22528,-1.4414 -13.83915,-4.99723 z m -16.2408,4.03616 c 0.28886,0.0974 0.48073,0.28886 0.86533,0.48074 -7.20781,6.05527 -18.06761,7.88003 -32.48324,5.28609 -0.19188,-0.097 -0.28762,-0.19312 -0.38377,-0.28886 -3.74854,-3.74771 -6.53561,-7.68814 -8.55307,-12.10807 13.35759,7.97576 26.81257,10.18635 40.55475,6.6301 z m 6.34289,1.24993 v -0.0962 c 0.48074,0 1.05681,-0.0957 1.53713,-0.19271 0.67222,6.82322 -1.24951,12.3012 -5.76641,16.33735 -1.63288,0.0961 -3.36313,0.19313 -5.09297,0.28887 -8.07314,-0.0957 -15.37547,-2.11485 -21.81409,-6.24716 14.0298,0.96107 24.40885,-2.40206 31.13634,-10.0902 z m -49.20519,-14.60752 c -0.8641,-3.26738 -1.24869,-6.63175 -1.24869,-10.28332 0,-9.70602 2.97853,-18.25949 9.0338,-25.65878 0.96107,25.75452 12.3012,40.74663 34.02079,45.07164 -14.22292,3.55625 -28.15822,0.57648 -41.8059,-9.12954 z"
     id="path34"
     inkscape:connector-curvature="0"
     style="clip-rule:evenodd;fill-rule:evenodd;stroke-width:0.84150064" /><polygon
     transform="matrix(1.0020276,0,0,1.0020276,98.912364,118.56575)"
     style="fill:#ffcc11"
     points="149.58,0 149.58,0 155.19,17.37 173.44,17.334 158.65,28.034 164.33,45.381 149.58,34.625 134.84,45.381 140.51,28.034 125.72,17.334 143.98,17.37 "
     id="polygon38" /><polygon
     transform="matrix(1.0020276,0,0,1.0020276,302.86621,118.47874)"
     style="fill:#ffcc11"
     points="149.58,34.625 134.84,45.381 140.51,28.034 125.72,17.334 143.98,17.37 149.58,0 155.19,17.37 173.44,17.334 158.65,28.034 164.33,45.381 "
     id="polygon38-5" /><path
     d="m 1220.8481,149.3465 c -2.3075,1.24951 -4.6126,2.49903 -6.9202,3.74771 -32.4832,16.91507 -71.6927,25.37117 -117.6288,25.4669 -46.0327,-0.0957 -85.2435,-8.55183 -117.82164,-25.4669 -2.30631,-1.24868 -4.61263,-2.4982 -6.82321,-3.74771 l -59.48769,64.10032 c 34.98144,25.75575 33.73316,67.07886 -3.74772,123.97137 -23.06483,34.78873 -28.44542,71.11543 -16.14464,108.98049 15.37545,47.47412 52.27863,73.03716 110.8052,76.7853 36.4229,2.30508 67.4639,15.08866 93.2197,38.4403 25.6588,-23.35164 56.6997,-36.13522 93.1226,-38.4403 58.5254,-3.74814 95.4298,-29.31118 110.8061,-76.7853 12.2042,-37.86506 6.9177,-74.19176 -16.0502,-108.98049 -37.575,-56.89251 -38.8257,-98.21562 -3.8434,-123.97137 z"
     id="path6-8"
     inkscape:connector-curvature="0"
     style="clip-rule:evenodd;fill-rule:evenodd;stroke-width:0.84150064" /><path
     d="m 975.11434,159.53407 c -0.67303,-0.28885 -1.34525,-0.67344 -2.01869,-1.05803 l -50.16504,54.2016 c 32.48201,27.96633 29.69537,70.92354 -8.4565,128.68097 -2.2114,3.36313 -4.32502,6.82364 -6.151,10.18635 L 1183.4646,173.56388 c -25.757,8.16889 -54.8766,12.20505 -87.1655,12.30119 -47.2827,-0.0961 -87.6459,-8.8411 -121.18476,-26.331 z"
     id="path8-3"
     inkscape:connector-curvature="0"
     style="clip-rule:evenodd;fill:#ffffff;fill-rule:evenodd;stroke-width:0.84150064" /><path
     d="m 1076.8858,351.64235 -39.0176,25.17722 v 144.63374 c 13.8396,3.74813 26.8126,9.32142 38.9219,16.52924 z"
     id="path10-7"
     inkscape:connector-curvature="0"
     style="clip-rule:evenodd;fill:#ffffff;fill-rule:evenodd;stroke-width:0.84150064" /><path
     d="m 1154.8248,301.18846 -39.0179,25.17846 v 211.61563 c 12.1105,-7.30314 25.0839,-12.87726 39.0179,-16.62457 z"
     id="path12-3"
     inkscape:connector-curvature="0"
     style="clip-rule:evenodd;fill:#ffffff;fill-rule:evenodd;stroke-width:0.84150064" /><path
     d="m 998.8514,402.09499 -39.01761,25.17928 v 80.05349 c 11.5316,4.22723 24.50624,6.91774 39.01761,8.26463 z"
     id="path14-8"
     inkscape:connector-curvature="0"
     style="clip-rule:evenodd;fill:#ffffff;fill-rule:evenodd;stroke-width:0.84150064" /><path
     d="m 920.81577,452.54969 -14.22292,9.12996 c 3.94084,7.49544 8.64921,14.22168 14.22292,20.27654 z"
     id="path16-0"
     inkscape:connector-curvature="0"
     style="clip-rule:evenodd;fill:#ffffff;fill-rule:evenodd;stroke-width:0.84150064" /><path
     d="m 1232.8601,250.73458 -39.1134,25.17846 v 239.67935 c 14.5118,-1.34689 27.4844,-4.13355 39.018,-8.36077 z"
     id="path18-4"
     inkscape:connector-curvature="0"
     style="clip-rule:evenodd;fill:#ffffff;fill-rule:evenodd;stroke-width:0.84150064" /><path
     d="m 1278.0266,341.35861 c -2.2089,-3.26697 -4.3225,-6.63133 -6.2447,-9.80175 v 150.30401 c 9.4176,-10.28455 16.6254,-22.87254 21.5257,-37.67359 11.5328,-35.74981 6.4386,-69.96289 -15.281,-102.82867 z"
     id="path20-9"
     inkscape:connector-curvature="0"
     style="clip-rule:evenodd;fill:#ffffff;fill-rule:evenodd;stroke-width:0.84150064" /><path
     d="m 1200.1853,186.24967 c -1.0568,-2.59395 -3.3643,-3.17165 -6.8248,-1.53837 l -50.836,33.63701 c -3.0768,3.26699 -4.6151,6.53437 -4.8066,9.8975 v 56.79677 c 1.0568,7.11208 4.4212,9.0338 10.1867,5.9583 l 44.5914,-28.25395 c 4.0374,-3.45887 6.6325,-8.16889 7.6893,-14.03104 v -26.23526 l -22.5849,13.74218 v 16.62621 l -12.4935,8.36077 c -1.4406,0.76919 -2.4974,0.67304 -3.0742,-0.28886 -0.4816,-0.76918 -0.6739,-2.21058 -0.7692,-4.51567 l -0.4791,-29.02314 c 0.1914,-1.63411 0.7667,-2.97977 1.7274,-3.94084 l 13.2626,-9.80298 c 2.8828,-2.30633 4.4212,-2.20894 4.6135,0.19311 v 3.07551 l 19.7974,-13.16612 z"
     id="path22-4"
     inkscape:connector-curvature="0"
     style="clip-rule:evenodd;fill:#ffffff;fill-rule:evenodd;stroke-width:0.84150064" /><polygon
     points="242.08594,186.26514 242.08594,150.97656 229.18066,159.88525 229.18066,166.2793 214.10596,174.95996 214.10596,157.03027 232.83545,144.58252 237.74609,146.97852 254.41992,136.13086 254.41992,113.51807 175.61963,164.68164 175.61963,181.69775 186.58252,175.07422 186.58252,231.37598 175.9624,238.5708 176.19043,254.55957 228.26807,221.66895 228.26807,205.33789 214.44873,214.24512 214.44873,193.00391 228.03906,184.21045 228.03906,195.62939 "
     id="polygon24-7"
     style="clip-rule:evenodd;fill:#ffffff;fill-rule:evenodd"
     transform="matrix(0.84150063,0,0,0.84150063,885.85612,149.3465)" /><polygon
     points="137.3623,279.79785 159.85938,264.9502 159.85938,243.36719 137.3623,257.52734 "
     id="polygon26-7"
     style="clip-rule:evenodd;fill:#ffffff;fill-rule:evenodd"
     transform="matrix(0.84150063,0,0,0.84150063,885.85612,149.3465)" /><polygon
     points="283.08398,163.99561 260.58496,178.1582 260.58496,200.31348 283.08398,185.58008 "
     id="polygon28-6"
     style="clip-rule:evenodd;fill:#ffffff;fill-rule:evenodd"
     transform="matrix(0.84150063,0,0,0.84150063,885.85612,149.3465)" /><path
     d="m 986.93397,322.23461 c -1.44139,-0.76918 -3.55501,-0.86533 -6.53477,-0.0962 l -46.99338,29.11929 c -4.90149,3.17001 -7.11207,6.4374 -6.53601,9.89709 l 0.097,24.69853 c 0.38459,3.74731 1.72902,5.76724 4.03658,5.95953 2.40246,0.28763 5.86133,-1.25074 10.4752,-4.51731 l 19.60474,-12.49349 c 3.74772,-1.44058 6.05404,-1.34443 6.82323,0.28927 V 391.139 l -15.76129,10.57217 c -2.59477,1.44058 -3.65158,0.38377 -3.26699,-3.07673 v -8.93767 l -22.00844,13.64892 v 16.72072 c -0.0957,7.01387 2.88403,9.12995 8.9393,6.24715 l 47.56985,-30.65724 c 4.13232,-2.20977 6.05404,-6.91774 5.95831,-13.93408 l -0.28886,-22.96786 c -3.36436,-4.90191 -8.55307,-5.86381 -15.47243,-2.69215 l -20.85427,12.78276 c -2.01787,0.76671 -3.17124,-0.0986 -3.55501,-2.30756 v -7.20781 c -0.19271,-1.05681 0,-2.11362 0.67222,-3.0751 0.67221,-0.96066 1.82599,-2.01828 3.74771,-3.26821 l 10.18758,-6.53436 c 2.40248,-1.34566 3.93961,-1.05681 4.41994,1.0568 v 5.28608 l 21.14312,-13.06914 v -13.64644 c -0.57648,-1.92173 -1.34566,-3.17166 -2.4033,-3.84469 z"
     id="path30-1"
     inkscape:connector-curvature="0"
     style="clip-rule:evenodd;fill:#ffffff;fill-rule:evenodd;stroke-width:0.84150064" /><polygon
     points="388.72266,119.00098 411.22168,104.26807 411.22168,82.569336 388.72266,96.730469 "
     id="polygon32-4"
     style="clip-rule:evenodd;fill:#ffffff;fill-rule:evenodd"
     transform="matrix(0.84150063,0,0,0.84150063,885.85612,149.3465)" /><path
     d="m 1045.9409,227.76548 c 0,-12.58882 -4.5169,-23.35246 -13.3576,-32.19356 -8.938,-8.93766 -19.7009,-13.45456 -32.1948,-13.35759 -12.58837,-0.097 -23.25628,4.41993 -32.19435,13.35759 -8.93684,8.8411 -13.35801,19.60474 -13.35801,32.19356 0,12.4939 4.42117,23.25673 13.35801,32.19438 0.57647,0.48074 1.15377,1.05681 1.73025,1.53837 8.55306,7.88003 18.64368,11.81964 30.4641,11.81964 12.4939,0 23.2568,-4.51567 32.1948,-13.35801 8.8407,-8.93765 13.3576,-19.70048 13.3576,-32.19438 z m -47.66557,-41.13122 c 0.76796,-0.0961 1.4414,-0.0961 2.20937,-0.0961 4.8053,0 9.1295,0.76835 13.3588,2.11484 0.096,0.0957 0.096,0.19147 0.096,0.28762 11.0517,19.70048 12.0124,36.61555 3.1717,50.54962 -0.096,-0.0957 -0.2889,-0.0957 -0.4808,-0.19271 2.2106,-19.22057 -3.8447,-36.80621 -18.3548,-52.66323 z m 15.85577,55.45111 c 0.4804,0 1.0568,0 1.6341,0.0957 0.6723,0.0962 1.2495,0.28885 1.7303,0.57648 0.1915,0.19271 0.3846,0.38459 0.5761,0.67304 0,0.0961 0,0.0961 0,0.0961 0,0.19271 0.096,0.38459 0,0.67304 -0.096,0.48074 -0.3846,1.05681 -0.9607,1.63328 -0.2889,0.3846 -0.5777,0.76919 -0.9611,1.05763 -0.8649,0.76836 -2.0187,1.44058 -3.3643,1.92214 -1.6329,0.57606 -3.1713,0.86492 -4.6127,0.86492 -0.1919,-0.097 -0.3846,-0.097 -0.576,-0.097 -1.0581,-0.19189 -1.7303,-0.57648 -2.1149,-1.24951 -0.2876,-0.67222 -0.1919,-1.34566 0.4816,-2.20976 0,0 0.095,-0.0957 0.095,-0.19148 0,0 0,0 0.097,0 0.9606,-1.24951 2.4978,-2.21058 4.4195,-2.97977 1.1538,-0.48033 2.4025,-0.76918 3.5563,-0.86492 z m -2.2093,-2.59517 c -0.8662,0.1927 -1.5384,0.38459 -2.4033,0.76918 -1.9217,0.67222 -3.4601,1.63329 -4.7088,2.78665 -21.62344,-3.84346 -32.29053,-19.02827 -32.09864,-45.64935 5.86214,-5.3806 12.58963,-8.84069 20.08507,-10.18512 15.37667,15.66309 21.62387,33.05849 19.12567,52.27864 z m 28.9262,-20.08508 c -0.1919,0.57607 -0.3846,1.24952 -0.5777,1.92173 -4.0354,11.91742 -10.5698,18.83679 -19.6048,20.75852 9.4196,-14.12718 9.2269,-31.04184 -0.4791,-50.54962 3.3631,1.82599 6.4386,4.22806 9.3214,7.11085 6.0541,5.95789 9.8018,12.8785 11.3402,20.75852 z m -11.0517,37.09465 c -0.096,0.097 -0.1915,0.19312 -0.2885,0.28885 -4.9976,4.99724 -10.6671,8.45733 -17.0099,10.37906 2.8827,-4.5169 3.8438,-9.89873 3.0746,-16.4331 0.2885,-0.0957 0.5773,-0.28885 0.865,-0.48033 4.4211,3.55584 8.938,5.67027 13.3588,6.24552 z m -10.0914,-9.22528 c 0.1927,-0.28885 0.3845,-0.48074 0.4815,-0.76836 9.4184,-1.24951 16.5293,-6.92019 21.4307,-17.0108 -0.2888,8.55347 -3.0755,16.14588 -8.0731,22.77639 -4.6126,0.19271 -9.2253,-1.4414 -13.8391,-4.99723 z m -16.2409,4.03616 c 0.2889,0.0974 0.4808,0.28886 0.8654,0.48074 -7.20784,6.05527 -18.06764,7.88003 -32.48327,5.28609 -0.19188,-0.097 -0.28762,-0.19312 -0.38377,-0.28886 -3.74854,-3.74771 -6.53561,-7.68814 -8.55307,-12.10807 13.35759,7.97576 26.81257,10.18635 40.55471,6.6301 z m 6.3429,1.24993 v -0.0962 c 0.4808,0 1.0568,-0.0957 1.5372,-0.19271 0.6722,6.82322 -1.2495,12.3012 -5.7664,16.33735 -1.6329,0.0961 -3.3632,0.19313 -5.093,0.28887 -8.07316,-0.0957 -15.37549,-2.11485 -21.81411,-6.24716 14.0298,0.96107 24.40881,-2.40206 31.13631,-10.0902 z m -49.20516,-14.60752 c -0.8641,-3.26738 -1.24869,-6.63175 -1.24869,-10.28332 0,-9.70602 2.97853,-18.25949 9.0338,-25.65878 0.96107,25.75452 12.3012,40.74663 34.02075,45.07164 -14.22288,3.55625 -28.15818,0.57648 -41.80586,-9.12954 z"
     id="path34-4"
     inkscape:connector-curvature="0"
     style="clip-rule:evenodd;fill-rule:evenodd;stroke-width:0.84150064" /></svg>