<svg xmlns="http://www.w3.org/2000/svg" width="200.523" height="348.767" viewBox="0 0 53.055 92.278"><path style="fill:#fff;stroke-width:.18520837" d="M-241.74-84.293c-1.076.103-.618-.397-1.227.708l-1.181 1.829-1.95-.32c-1.737-.075-1.437-.49-2.115-.095-.463.27-.663.446-.882.906-.193.405-.292.823-.541 1.312-.356.7-.49.808-.431 1.564.041.53.475 2.164.547 2.32.092.201-1.213.815-1.732 1.2-.93.693-.92 1.14-.92 2.107 0 .412.122 1.022.383 1.536.302.595.306.828.306 1.408 0 .489.91 1.39 1.06 1.68.261.505-.517 1.317-1.137 2.345-1.152 1.911-1.315 2.882-1.312 5.953.002 2.244.543 2.518.9 3.756.504 1.756 1.03 3.4 2.044 4.777.579.784.975 1.553 1.233 2.795.392 1.889.552 2.188 1.671 3.432 1.367 1.52 3.348 2.932 4.733 3.184.557.101 2.138 1.501 2.606 2.398.3.574.914 1.51 1.724 2.365l1.713 1.754-.864 1.742c-.15.503-.924 1.199-1.815 1.983l-1.251 1.101-2.593.512c-2.815.556-4.187 1.271-5.93 2.428-2.158 1.432-2.586 1.287-1.061 3.024.835.951 1.947.973 4.34.812l1.896-.127.987.988c1.724 1.724 3.361 2.377 5.874 1.883l1.14-.224.67.652c.37.359 1.458.944 1.916 1.156 1.24.574 2.924.293 4.265-.404 1.18-.612 1.704-.63 3.19-.117 1.468.508 2.576.056 3.765-.677l.879-.542 1.018.417c1.288.526 1.234.697 2.815.208 1.019-.314 1.635-.11 3.14-1.466 2.172-1.956 2.625-1.723 2.734-3.02.065-.79.062-.642-.32-1.294-.814-1.39-1.565-1.827-4.635-2.712-.91-.262-1.2-.463-1.983-.787-.45-.624-.797-1.104-.962-1.79-.165-.686-1.187-2.396-1.536-3.187-.35-.791-.279-2.332-.252-2.362.028-.03 1.983-.084 2.632.135 3.353 1.132 6.925.405 11.077-1.613 1.91-.928 1.087-.127.733-2.038-.111-.604.278-1.334.21-2.278l-.485-2.853c4.313-1.51 5.096 1.537 2.848-.763l-.289-1.51.337-1.42c.868-3.335 1.032-9.089.317-11.937-1.376-5.48-2.85-7.863-8.509-9.323-1.569-.405-2.165-.817-4.005-.749-1.72.064-3.026.052-4.027.438-1.785.689-2.357 1.887-3.949 3.497-1.686 1.707-3.196 3.157-4.866 6.461-1.383 2.738-2.38 3.265-2.99 3.264-.536-.001-2.713-.548-3.076-1.102-.166-.253-.733-2.402-.852-3.535-.174-1.643.02-2.305.27-3.774.325-1.902.33-4.392.066-5.53-.155-.669-.481-1.71.19-2.402 1.066-1.098 1.397-1.206 1.288-2.333-.049-.509.217-.73.015-1.004s-.182-.733-.309-1.117c-.14-.425-.393-.862-.89-1.277-.45-.376-1.29-.725-1.29-.904 0-.45-.184-1.123-.845-1.396-.3-.125-.834-.328-1.345-.293-.819.057-.878.223-1.082-.159-.347-.647-.384-1.341-1.35-1.32z" transform="translate(254.108 99.169)"/><path style="fill:#cad4d7;stroke-width:.26458335" d="M-321.987-94.69c-1.537.147-.884-.568-1.754 1.011l-1.687 2.613-2.785-.456c-2.48-.11-2.053-.702-3.021-.138-.662.386-.947.638-1.26 1.295-.276.578-.418 1.175-.774 1.874-.509 1-.7 1.155-.615 2.235.059.756.678 3.09.781 3.315.132.286-1.733 1.163-2.474 1.714-1.33.988-1.315 1.626-1.315 3.009 0 .589.176 1.46.548 2.195.43.849.436 1.183.437 2.011 0 .698 1.3 1.984 1.515 2.4.372.72-.739 1.882-1.625 3.35-1.646 2.73-1.878 4.117-1.874 8.504.003 3.206.776 3.597 1.284 5.365.721 2.509 1.472 4.859 2.922 6.824.826 1.121 1.393 2.22 1.761 3.994.56 2.698.789 3.126 2.387 4.903 1.953 2.172 4.783 4.189 6.762 4.548.795.145 3.053 2.145 3.723 3.426.428.82 1.305 2.156 2.462 3.378l2.448 2.506-1.234 2.49c-.216.718-1.32 1.712-2.594 2.832l-1.787 1.573-3.705.731c-4.02.795-5.981 1.816-8.472 3.469-3.081 2.046-3.694 1.838-1.515 4.32 1.193 1.359 2.782 1.39 6.2 1.16l2.708-.181 1.412 1.411c2.462 2.463 4.8 3.396 8.39 2.69l1.63-.32.957.931c.527.512 2.082 1.348 2.737 1.651 1.772.82 4.176.419 6.093-.576 1.684-.874 2.434-.902 4.556-.167 2.097.726 3.68.08 5.379-.968l1.255-.774 1.455.595c1.84.752 1.763.996 4.021.298 1.456-.45 2.336-.158 4.486-2.094 3.103-2.795 3.75-2.463 3.905-4.316.094-1.127.09-.916-.456-1.848-1.164-1.985-2.237-2.61-6.621-3.874-1.301-.375-1.715-.66-2.834-1.123-.642-.893-1.139-1.579-1.374-2.559-.236-.98-1.696-3.422-2.195-4.552-.499-1.13-.398-3.331-.359-3.375.04-.043 2.833-.119 3.76.194 4.79 1.617 9.893.578 15.824-2.305 2.728-1.326 1.552-.181 1.048-2.91-.16-.864.397-1.906.298-3.256l-.691-4.075c6.16-2.158 7.28 2.196 4.067-1.09l-.412-2.157.48-2.03c1.242-4.764 1.476-12.983.455-17.051-1.966-7.83-4.073-11.234-12.156-13.32-2.241-.578-3.093-1.166-5.722-1.069-2.456.09-4.323.074-5.753.626-2.55.983-3.367 2.695-5.64 4.996-2.41 2.438-4.567 4.51-6.952 9.23-1.976 3.91-3.402 4.663-4.272 4.661-.765 0-3.876-.782-4.394-1.573-.237-.361-1.047-3.432-1.218-5.05-.248-2.348.03-3.293.387-5.391.464-2.717.47-6.275.094-7.9-.222-.956-.688-2.443.272-3.432 1.522-1.569 1.994-1.722 1.84-3.332-.07-.728.31-1.044.021-1.435-.288-.391-.26-1.048-.442-1.597-.2-.606-.562-1.23-1.272-1.824-.643-.537-1.842-1.035-1.842-1.29 0-.643-.263-1.604-1.207-1.995-.43-.178-1.191-.47-1.922-.418-1.17.081-1.254.318-1.546-.228-.495-.924-.548-1.916-1.93-1.884zm-8.048 5.264c.25.002.663.042 1.297.11 2.352.252 2.865.458 3.558 1.431.554.78.586.788 1.478.416 1.493-.624 2.208-.486 3.34.646.939.939 1.027 1.15 1.026 2.448 0 1.72-.59 2.798-2.146 3.926-1.486 1.076-2.496 1.066-3.09-.029-1.19-2.191-2.015-2.952-4.618-4.258-1.42-.713-2.58-1.407-2.58-1.543 0-.326 1.195-.313 3.458.038 1.012.157 1.976.24 2.142.184.166-.055-.594-.658-1.689-1.34-1.094-.682-2.153-1.438-2.352-1.678-.21-.252-.242-.354.176-.35zm10.96 6.64c.526.069 2.149 1.093 2.74 1.879 1.599 2.121 2.124 6.272 1.366 10.784-.446 2.65-.446 7.052-.001 9.657.108.634 0 .527-.53-.529a6.191 6.191 0 0 0-.388-.688c-2.788-5.775 1.477-15.33-2.5-19.687 3.702 7.957-2.75 19.65 6.873 25.754.657.435 1.767.928 2.467 1.096 1.105.265 1.486.234 2.88-.236 5.696-1.726 7.371-6.114 11.285-9.708 3.964-3.491 7.654-4.88 11.39-4.29 6.51 1.027 11.213 9.043 11.245 19.166.01 3.032-.205 5.395-.49 5.393-.089 0-.71-.685-1.381-1.521l-1.22-1.52-.154-3.308c-.18-3.832-.97-6.97-2.485-9.852-1.115-2.121-3.236-4.187-4.772-4.647-2.296-.688-5.276-.2-8.696 1.423-1.777.843-7.316 4.31-7.912 4.951 4.018-2.214 8.199-4.808 12.528-4.482 4.227.395 8.205 3.706 9.267 7.713.154.582.46 2.341.68 3.91.22 1.568.539 3.115.708 3.439.169.323 1.153 1.585 2.188 2.803 1.034 1.218 2.102 2.502 2.372 2.852l.49.638-1.152-.075-1.152-.074.034 4.351c.031 3.892-.007 4.297-.357 3.837-1.192-1.568-2.18-5.137-2.187-7.89-.004-1.694.028-1.793.46-1.455.254.2.005-.154-.553-.787-1-1.133-2.6-4.501-2.821-5.302-1.232-5.296-5.835-9.438-9.894-10.272-.292-.06-2.033.13-4.262.643-1.925.444-10.281 4.468-10.051 4.84.007.013.02.024.029.035-5.511 1.324-6.16.777-10.375-.116a394.404 394.404 0 0 1-1.628-1.553c-1.155-1.11-2.038-2.995-2.892-6.174-.687-2.556-.713-2.92-.79-10.716-.086-8.661-.122-9.48-.442-9.988-.147-.234-.093-.317.082-.294zm-2.106 2.608v.001c.644 0 .158 1.852-1.179 4.486-3.887 7.663-3.86 10.368.207 20.054l1.472 3.505-.987-.504c-.941-.48-2.82-2.31-3.827-3.729l-.47-.661.314.655c.548 1.145 2.908 3.423 4.363 4.211l1.406.762-.359-.83-1.198-2.77c-1.953-8.515-.842-12.696.245-20.52-.199 5.382-.497 11.018.522 16.347 1.088 5.106 4.308 9.58 8.29 11.52 2.02.984 5.932 2.043 8.474 2.293 2.84.28 1.49.595-2.647.617-3.992.02-5.633-.253-7.9-1.322-1.523-.717-3.783-2.77-4.936-4.48l-.445-.662-.014.707c-.02 1.003-.598 3.394-.82 3.394-.257 0-3.336-3.49-4.758-5.39-3.36-4.749-5.786-10.578-4.024-15.72-2.389 5.374 1.003 11.793 3.897 15.877 1.368 1.85 1.672 2.457 1.831 3.66.105.792.44 1.976.744 2.631.304.655.536 1.275.515 1.378-.02.104.738.741 1.685 1.417 2.67 1.604 4.72 2.483 7.663 2.5.451 1.375 1.01 2.437 1.927 4.201-5.31-1.837-8.909-4.45-11.981-8.04 3.572 5.034 10.018 8.703 19.283 9.704l-1.463-1.58c-1.422-1.535-2.852-3.755-3.264-5.065-.177-.56-.017-.487 1.22.553 3.759 3.164 5.45 3.728 8.327 2.778.22-.072.367-.08.489.005.39 1.401 1.27 4.195 1.337 4.127.102.513.023.78-.261.89-.633.242-3.756-.436-5.07-1.1-1.077-.546-1.25-.566-1.942-.221-1.041.52-4.1 1.143-5.637 1.148-1.77.007-5.095-.71-6.67-1.435-3.166-1.462-4.966-4.079-6.605-9.605-.146-.493-.095-.565.305-.421.264.095-.42-.77-1.52-1.92s-2.4-2.658-2.889-3.35c-5.06-6.462-5.664-16.189-2.692-21.472 2.557-3.275 5.952-6.702 9.042-8.623zm-2.147 2.678c-2.508 4.16-6.556 12.916-4.033 16.704-2.23-4.354 2.52-13.694 4.033-16.704zm34.44 18.239c5.315 1.212 9.762 6.71 10.19 12.426.21 1.38.43 4.533.489 7.007.058 2.474.225 4.807.37 5.185.146.378.87 1.379 1.61 2.224.74.845 1.344 1.638 1.344 1.76 0 .477-1.825.189-3.192-.504-1.56-.791-3.083-2.535-3.34-3.825-.115-.57-.264-.725-.581-.602-.942.366-3.943.452-4.888.14-1.804-.595-2.82-2.83-4-8.797-.787-3.98-1.254-5.08-2.39-5.619-1.152-.547-4.879-.937-8.993-.942-1.892-.003-4.196-.127-5.121-.277-1.989-.323-4.47-1.512-5.818-2.788 3.443 1.254 7.418 1.134 10.266.008.459.318 2.045.473 6.23.634 5.292.204 6.43.513 7.171 1.947.22.427.733 3.068 1.138 5.869.71 4.902.779 5.162 1.83 6.963.601 1.028 1.304 1.965 1.562 2.08.258.116 1.243.282 2.189.37 1.591.145 2.964-.019 1.683-.202-.553-.08-.572-.22-.727-5.557-.23-7.906-.446-9.688-1.437-11.806-.945-2.018-3.092-4.271-4.809-5.045-.722-.326-.97-.694-.777-.65zm-30.278 4.087 1.437 1.209c4.503 3.787 8.893 5.632 15.404 6.473 3.546.458 5.171.931 5.877 1.71.554.613 1.178 3.112 1.19 4.763.022 2.98 1.358 6.741 3.05 8.589l.858.936-1.227-.002c-1.764-.002-3.884-1.291-4.567-2.776a3.077 3.077 0 0 0-.11-.223c-.977-3.207-1.6-5.938-1.967-9.758-.013-.447-1.65-.967-4.37-1.391-4.033-.628-7.56-1.56-9.2-2.432-1.76-.935-4.593-3.801-5.6-5.663zm-11.276.794a25.588 25.588 0 0 0 2.642 4.234c.145.09.264 1.314.265 2.727.003 3.418.39 5.656 1.324 7.67l.774 1.665-.767-.547c-1.448-1.03-2.92-2.964-3.33-4.375-.396-1.364-.893-6.748-.903-9.787zm10.984 4.068.875 1.168c.91 1.215 2.739 2.724 4.196 3.463 1.554.787 4.109 1.215 7.356 1.23 3.08.013 3.147.025 2.249.418-.51.222-1.879.633-3.043.914-4.866 1.172-8.087.424-11.311-2.625-1.079-1.02-1.15-1.376-.652-3.295zm44.613 7.518c-.02.013.1.112.342.306.282.226.63.411.771.411.336 0 .186-.122-.623-.508-.312-.149-.47-.222-.49-.209zm-15.868 3.031.594 1.687c.327.928.87 2.223 1.205 2.878.923 1.797 3.603 4.275 5.83 5.389l1.92.961-1.689-.036c-4.19-.09-6.595-1.193-7.494-3.442-.56-1.4-.8-3.957-.556-5.912zm-12.508 23.005 1.988.725c1.983.724 1.992.725 3.836.305 1.016-.23 2.27-.42 2.787-.42.814 0 .94.084.94.63 0 .581-.13.644-1.654.785-.91.085-2.331.232-3.16.327-1.235.142-1.77.064-2.976-.436-1.465-.607-1.475-.607-2.463-.107-.816.414-1.723.52-5.137.6-3.942.094-4.16.073-4.432-.436-.157-.294-.286-.606-.286-.694 0-.088 1.815-.131 4.035-.097 3.775.059 4.115.023 5.278-.56zm-20.228 2.198c.67 0 .685.028.303.573-.268.384-1.02.73-2.268 1.048-2.789.708-3.124 1.007-1.14 1.017 2.476.012 4.407.838 6.028 2.58 1.597 1.716 2.353 1.891 5.649 1.309 2.763-.488 3.398-.318 5.214 1.4 1.753 1.658 2.71 1.762 4.668.506 1.153-.74 1.49-.824 3.206-.804 1.111.013 2.63.244 3.615.55 1.852.577 1.632.636 3.56-.965 1.382-1.15 2.393-1.135 4.533.062 2.677 1.496 3.518 1.313 6.462-1.406l1.98-1.83-1.319-.667c-.725-.367-1.814-.816-2.42-.997-.646-.193-1.33-.642-1.66-1.088-.672-.907-.588-.918 1.587-.204 3.227 1.06 5.433 2.43 5.14 3.191-.197.515-4.233 4.23-5.09 4.686-.326.174-1.219.332-1.984.352-1.134.029-1.727-.144-3.216-.935-1.004-.534-1.911-.97-2.016-.97-.104 0-.771.46-1.481 1.02-2.086 1.647-2.21 1.681-3.934 1.075-.835-.293-2.256-.602-3.159-.686-1.523-.143-1.771-.084-3.45.806-2.72 1.444-3.684 1.304-5.932-.863-1.58-1.523-1.743-1.555-4.853-.96-3.068.587-4.536.165-6.041-1.736-1.396-1.762-2.657-2.164-6.645-2.12-3.6.04-4.253-.183-3.1-1.058 1.708-1.297 5.984-2.886 7.763-2.886zm3.363.542c.171.006.26.033.2.086-.06.054-.705.167-1.433.25-.892.104-1.107.08-.661-.072.413-.14 1.21-.248 1.698-.263a2.95 2.95 0 0 1 .196 0zm30.143.589c.58.027 1.972.273 2.49.478.305.12.36.204.133.197-.677-.02-2.71-.46-2.87-.62-.05-.05.053-.064.247-.055z" transform="matrix(.7 0 0 .7 237.76 81.16)"/><path style="fill:#17548c;stroke-width:1.00000012" d="M-930.336 64.438v34h9v-13h11v-8l-10.992-.057c-.004-2.263.049-3.493.056-5.887l10.936-.056v-7zm54 0v34h9v-13h11v-8l-10.992-.057c-.004-2.263.049-3.493.056-5.887l10.936-.056v-7zm55 0v34h9v-13h11v-8l-10.992-.057c-.004-2.263.049-3.493.056-5.887l10.936-.056v-7z" transform="matrix(.1852 0 0 .1852 186.262 74.046)"/><path style="fill:#21304d;stroke-width:.26458335" d="M-309.452-.35c-1.325-.369-1.67-.581-3.124-1.922-.91-.841-.95-.85-2.381-.583-.8.15-2.348.22-3.44.157-2.438-.142-3.81-.793-5.649-2.679l-1.326-1.36-3.208.084c-3.705.098-4.923-.235-6.204-1.694-1.284-1.462-1.401-3.786-.266-5.23.77-.978 4.05-2.924 6.242-3.703 1.692-.601 4.205-1.193 7.405-1.744 1.593-.275 4.677-3.048 5.104-4.592l.31-1.114-2.085-2.116c-1.147-1.166-2.49-2.859-2.989-3.767-.57-1.04-1.076-1.652-1.366-1.654-1.452-.01-5.193-2.16-7.569-4.35-2.209-2.036-3.45-4.452-3.875-7.549-.15-1.088-.472-1.787-1.394-3.028-1.622-2.181-3.113-5.42-3.802-8.26-.733-3.02-.788-7.41-.122-9.868.472-1.746 1.77-4.577 2.455-5.355.34-.386.33-.545-.076-1.323-.254-.486-.476-1.48-.492-2.207-.02-.82-.224-1.614-.54-2.09-.32-.482-.544-1.364-.604-2.38-.082-1.396 0-1.76.609-2.684.55-.836 1.719-1.864 2.711-2.385.038-.02-.11-.468-.33-.995-.552-1.32-.505-2.003.239-3.472.352-.696.717-1.572.811-1.947.256-1.021 1.132-2.125 2.071-2.61.871-.45 3.373-.572 5.341-.26l1.059.168.609-1.309c.77-1.657 1.897-2.394 3.655-2.391 1.354.002 2.466.537 3.153 1.517.302.432.74.558 2.225.642 1.595.09 1.957.208 2.633.855.43.413.936 1.12 1.123 1.571.187.452.841 1.301 1.453 1.888.612.586 1.2 1.415 1.308 1.842.107.427.474 1.187.815 1.69 1.224 1.804.66 4.488-1.371 6.52l-.93.929.293 2.98c.254 2.58.226 3.425-.204 6.298-.516 3.444-.44 7.731.163 9.32.3.788 2.236 2.31 2.938 2.31.945 0 1.87-1.18 3.587-4.57 2.503-4.944 4.347-7.675 6.83-10.114 3.784-3.715 7.29-5.277 11.804-5.26 6.16.025 12.76 3.04 16.297 7.445 1.444 1.799 3.31 5.592 3.937 8.002.976 3.755.77 13.597-.38 18.063l-.492 1.913.71.793c.39.437.98 1.106 1.313 1.488l.604.694-2.924.725-2.925.726.013 1.491c.007.82.225 2.893.483 4.605l.468 3.115-1.474.799c-1.775.962-4.282 1.887-7.23 2.666-3.943 1.043-9.646.71-12.423-.726-.407-.21-.74-.277-.74-.148 0 .128.424 1.15.941 2.269.517 1.12 1.172 2.942 1.456 4.05.283 1.11.545 2.04.58 2.067.037.029 1.169.364 2.516.747 2.684.761 5.222 1.938 6.713 3.113 1.915 1.509 2.417 4.063 1.203 6.125-.895 1.52-5.16 5.376-6.719 6.074-.878.393-1.954.596-3.514.663-1.94.083-2.43.01-3.566-.529l-1.316-.625-1.086.734c-1.964 1.325-3.132 1.395-6.311.378-1.765-.565-2.094-.535-3.96.364-1.935.932-4.048 1.193-5.773.713zm4.673-4.325c1.718-1.144 4.757-1.032 7.82.288.388.167 1.86-.674 3.515-2.01l.742-.6 1.809.99c1.425.78 2.097.989 3.168.989 1.937 0 2.758-.453 5.426-2.993 2.298-2.188 2.353-2.267 1.959-2.86-.585-.881-3.198-2.223-5.645-2.9-4.819-1.332-4.742-1.264-5.668-4.986-.3-1.209-1.26-3.702-2.13-5.54-1.386-2.925-2.373-5.651-3.03-8.37l-.193-.794.748.698c1.188 1.108 2.315 1.551 3.942 1.551 1.215 0 1.446-.067 1.21-.35-.16-.193-.476-2.068-.703-4.167-.55-5.081-1.37-10.122-1.816-11.17-.695-1.63-2.23-2.566-5.32-3.239l-1.592-.346 1.323-.016c1.657-.02 4.799.415 5.736.794.998.404 1.483 1.611 2.34 5.83 1.289 6.336 2.2 8.174 4.334 8.745 1 .267 1.2.44 1.445 1.258.699 2.334 2.742 3.983 4.93 3.979 1.9-.004 2.247-.319 1.12-1.015-1.561-.965-4.398-4.272-3.664-4.272.138 0 .415-.062.615-.139.233-.09.475.171.677.728.783 2.161 3.24 4.074 5.59 4.352 1.762.209 1.767-.149.03-2.134-.726-.83-1.46-1.77-1.632-2.091-.192-.359-.337-2.141-.375-4.629-.059-3.831-.256-6.683-.544-7.86-.07-.292.237.118.685.91.448.79.99 1.634 1.207 1.872.266.295.394 1.023.397 2.265.006 2.452.576 5 1.54 6.89 1.606 3.149 1.606 3.15 1.437-2.082l-.151-4.696 1.099.044c.604.023 1.165-.024 1.247-.105.081-.082-.206-.55-.637-1.042-.76-.865-.776-.942-.517-2.343.406-2.19.087-8.443-.563-11.052-1.454-5.831-4.432-10.171-8.176-11.913-1.139-.53-2.028-.722-3.68-.797-3.93-.177-7.094 1.272-11.163 5.113l-1.965 1.854.642-1.19c1.004-1.864 5.12-5.823 6.992-6.727 2.884-1.393 7.004-1.218 10.4.442 1.957.957 5.067 3.736 6.042 5.4 1.72 2.934 2.475 7.812 2.475 15.98 0 3.441.098 5.542.26 5.542.46 0 1.282-1.974 1.77-4.256.374-1.748.477-3.448.48-7.915.003-5.229-.046-5.849-.616-7.673-1.462-4.685-4.287-8.09-8.34-10.051-3.212-1.555-6.98-2.308-9.641-1.926-2.698.387-4.982 1.58-7.378 3.857-2.359 2.24-4.145 4.88-6.658 9.84-1.033 2.037-2.148 4.033-2.48 4.434-.807.978-3.418 1.888-4.789 1.668-2.544-.406-5.187-2.697-5.919-5.129-.58-1.929-.633-8.166-.099-11.624.625-4.044-.214-8.289-2.009-10.163-.681-.712-.652-1.279.065-1.279.214 0 .501.298.64.662.288.757.587.832 1.058.264.181-.218.664-.396 1.073-.396 1.3 0 2.514-2.42 1.374-2.741-.254-.072-.86-.21-1.347-.309l-.884-.178.686-.716c1.188-1.24.955-1.44-1.431-1.232-1.164.102-2.117.097-2.117-.01 0-.108.361-.835.803-1.617.44-.782.74-1.523.663-1.647-.077-.124-1.122-.003-2.324.269-1.201.272-2.265.497-2.364.5-.099.005-.261-.647-.361-1.448-.103-.824-.315-1.455-.49-1.455-.169 0-.648.782-1.064 1.738-.416.956-1.04 1.924-1.388 2.15-.572.376-.76.375-2.014-.001-1.87-.562-3.942-.778-4.424-.463-.465.305-.254.503 2.185 2.043.84.53 1.494.994 1.456 1.032-.039.037-1.117-.06-2.396-.215-1.798-.219-2.398-.21-2.646.042-.43.435.14.862 2.923 2.186 2.076.989 2.176 1.076 2.015 1.754-.383 1.611-1.859 2.32-4.278 2.052-1.171-.129-1.717-.06-2.435.306-1.61.822-1.353 2.113.596 2.987.976.437.984.453.473.916-.759.686-1.203 2.175-.796 2.666.443.534 1.847.483 3.444-.124 1.613-.612 1.627-.637-1.48 2.635-4.304 4.533-5.396 8.717-3.935 15.073.532 2.313 2.199 5.658 3.626 7.276 1.042 1.183 1.198 1.534 1.467 3.308.47 3.107.767 3.848 2.138 5.346 2.516 2.748 5.619 4.419 8.241 4.437.903.006.956.059 1.27 1.287.559 2.177 3.034 5.34 5.299 6.77.575.363 1.12.891 1.208 1.173.223.702-.512 4.085-1.195 5.494-.435.9-2.324 2.821-3.666 3.729-.06.04-.129.342-.152.67-.035.497-.255.63-1.345.814-1.622.273-4.728.886-6.991 1.38-1.937.422-6.027 2.388-6.462 3.105-.484.798.293.99 3.816.941 3.949-.053 4.97.269 6.447 2.037.543.65 1.353 1.37 1.8 1.6.908.471 3.42.527 5.114.116 1.887-.459 2.613-.342 3.457.56.427.455 1.312 1.178 1.967 1.606 1.017.664 1.363.755 2.373.623.65-.085 1.662-.474 2.249-.864zm-6.4-11.16c-2.08-.14-2.401-.222-2.186-.56.138-.219.254-.704.256-1.079.005-.871 2.059-4.693 3.566-6.635 1.25-1.611 1.994-2.9 1.994-3.454 0-.19-.888-1.476-1.974-2.857l-1.973-2.512 2.172-.221 2.172-.221 4.428 4.587c4.201 4.35 6.738 7.548 8.255 10.4.87 1.637.861 1.992-.049 1.992-.4 0-1.707.194-2.905.432-2.103.417-2.22.414-3.44-.099-2.036-.856-2.526-.898-3.616-.314-1.154.619-3.146.78-6.7.541zm27.7-20.867c-.004-.255-.117-3.201-.251-6.548-.352-8.82-1.03-11.784-3.126-13.677-1.699-1.535-4.011-1.922-6.942-1.162-.796.207-1.484.338-1.53.292-.161-.16 2.476-.918 4.015-1.153 1.414-.216 1.665-.176 2.851.458 1.77.946 3.974 3.188 4.808 4.891.942 1.925 1.173 3.77 1.387 11.078l.183 6.284h-.694c-.481 0-.696-.142-.701-.463zm-3.678-2.991c-.373-.869-.799-3.005-1.212-6.093-.71-5.303-1-6.063-2.643-6.948-.916-.494-1.52-.575-4.498-.605-5.98-.06-5.949-.043-1.985-1.033 1.965-.491 3.93-.895 4.366-.899 2.112-.017 4.832 2.335 5.539 4.79.223.775.525 3.077.671 5.114.147 2.037.341 4.448.433 5.358.091.91.107 1.653.035 1.653s-.39-.602-.706-1.337zm10.976-8.64c-.095-.25-.407-1.998-.692-3.885-.606-4.014-1.271-5.665-3.047-7.563-2.36-2.522-5.737-3.903-8.844-3.614-.964.09-2.43.396-3.257.68-.828.285-1.505.467-1.505.405 0-.234 2.684-1.462 4.596-2.104 3.802-1.276 6.378-.854 8.617 1.411 2.645 2.678 4.159 6.821 4.437 12.146.15 2.854.071 3.503-.304 2.523zm-4.512 19.502c.09-.145-.006-.264-.214-.264-.207 0-1.216-.42-2.241-.933-3.454-1.728-5.82-4.618-7.088-8.662-.687-2.191-1.017-1.554-1.03 1.99-.013 4.057.73 5.89 2.83 6.976 1.765.912 7.334 1.555 7.743.893z" transform="matrix(.7 0 0 .7 237.76 81.16)"/><path style="opacity:1;fill:#b0babf;fill-opacity:1;fill-rule:nonzero;stroke:none;stroke-width:.04136429;stroke-miterlimit:4;stroke-dasharray:none;stroke-opacity:1" d="M-243.05-78.245c-.232 0-.295.025-.457.187-.148.149-.187.232-.187.402 0 .208.1.414.273.557.134.111.587.052.747-.099a.663.663 0 0 0 .193-.688c-.085-.258-.244-.36-.569-.36zm-1.623 2.6c-.007 0-.011.007-.011.02-.001.03.049.253.11.496.243.96.199 2.129-.117 3.078-.089.267-.162.5-.162.517 0 .017.032.005.07-.026.091-.075 2.515-1.887 2.69-2.01.133-.095.126-.097-.305-.064-.548.041-.871-.038-1.104-.273-.095-.096-.349-.472-.563-.837-.341-.58-.558-.9-.608-.9zm4.604.33c-.087 0-.242.161-.61.604l-.432.52.033 5.598c.034 5.686.081 7.532.224 8.769.18 1.567.48 2.198 1.434 3.033 1.348 1.179 3.62 2.291 6.012 2.945.518.142.861.183.77.092-.03-.028-.356-.187-.725-.353-1.225-.548-2.15-1.178-3.126-2.128a11.79 11.79 0 0 1-.955-1.052c-.38-.501-.846-1.392-1.12-2.142-.245-.674-.586-1.97-.741-2.822-.337-1.85-.38-3.015-.284-7.666.03-1.51.026-2.442-.018-3.037-.086-1.177-.238-2.078-.39-2.313-.02-.031-.042-.049-.072-.048zm23.504 5.28a7.444 7.444 0 0 0-1.127.089c-2.054.333-3.885 1.437-5.747 3.466-1.237 1.348-2.14 2.761-3.82 5.966-1.03 1.97-1.276 3.268-3.856 4.326 4.542-.482 6.725-7.877 11.026-10.359 1.143-.66 2.377-1.042 4.081-.981 1.398.05 2.692.377 3.86.977 1.233.634 3.009 2.147 3.882 3.309.78 1.037 1.332 2.698 1.66 4.989.234 1.623.305 2.861.36 6.233.048 3.003.075 3.755.145 4.122.046.238.193.112.449-.384.411-.795.814-2.252.985-3.558.116-.892.176-6.85.079-7.944-.206-2.322-1.51-5.024-3.269-6.777-.921-.917-1.813-1.534-3.103-2.146-1.818-.863-3.886-1.343-5.605-1.329zm-3.504 11.219c-.525-.003-1.132.08-1.895.254-1.057.241-1.124.25-1.085.148.019-.048.02-.087.003-.087-.08 0-1.418.603-2.175.98-.981.49-3.202 1.735-3.163 1.774.051.051.664.23 1.061.31.461.091.781.104.781.03 0-.08.578-.252 2.04-.608 1.57-.381 2.716-.61 3.048-.61 1.103.004 2.608 1.076 3.409 2.43.511.865.667 1.787.989 5.843a1082.318 1082.318 0 0 0 .275 3.429c0 .02-.037.076-.084.123-.078.077-.065.116.13.403.276.406.693.796 1.037.97.234.117.394.163.986.28.061.012.318.024.572.027l.461.007c.24.112.014-.106-.122-.165-1.58 0-.771-1.116-1.103-3.061-.23-5.89-.415-7.685-.964-9.329-.284-.852-.573-1.336-1.132-1.895-.745-.744-1.464-1.087-2.568-1.222-.16-.02-.326-.03-.5-.031zm-7.217 9.349c-.441.003-.542.035-1.806.574-.68.29-.924.42-.924.489 0 .052.093.178.207.28.421.381 3.503 2.64 4.01 2.94.37.22.47.24.47.1 0-.383-.343-2.145-.617-3.18-.255-.965-.526-1.209-1.34-1.203zm-6.056 1.777c-.19 0-.345.078-.987.5-.276.18-.609.356-.74.389-.348.088-.384.155-.27.502.223.685 1.044 2.326 1.39 2.78.113.15.218.198.75.343.697.19 1.754.414 2.493.527.273.042.655.08.847.082l.35.006-.46-.5c-.848-.92-1.567-1.984-2.199-3.25-.519-1.042-.806-1.379-1.174-1.38zm15.844 4.977c-.018-.002-.03-.002-.033.002-.016.015.178.095.43.178.78.256.777.253 1.126 1.154.236.608.504 1.02.955 1.466.477.472 1.112.839 1.676.967.39.09 1.517.074 1.762-.023.284-.113.24-.172-.565-.764-.72-.53-1.98-1.892-2.263-2.446-.147-.287-.138-.37.043-.4.083-.013-.121-.008-.455.01-1.177.067-2.07.041-2.389-.068a1.585 1.585 0 0 0-.287-.076zm-10.965 15.271c-.218-.01-.4.043-.64.152a3.897 3.897 0 0 1-.644.222c-.459.099-1.819.161-4.273.196-2.53.035-3.378.09-3.838.25-.173.059-.632.146-1.02.194-1.33.162-1.909.244-1.938.273-.068.069.167.373.734.948.556.564.634.623.937.71.397.115.968.09 2.18-.092.528-.08 1.07-.122 1.599-.124.707-.002.836.012 1.116.123.444.177.864.473 1.504 1.06.303.279.688.615.854.748.167.132.316.24.331.241.016 0 .524-.247 1.13-.55.608-.302 1.252-.588 1.433-.634.433-.112 1.73-.112 2.504 0 .323.046 1 .185 1.506.31l.92.226.487-.414c.995-.848 1.533-1.106 2.306-1.107.607-.001 1.025.13 2.055.644.878.438 1.22.552 1.647.548.485-.003.898-.239 1.556-.885.43-.423.508-.523.452-.59-.149-.18-1.889-.73-3.062-.968a34.805 34.805 0 0 1-1.14-.256c-.325-.08-.628-.13-.674-.112-.047.018-.15.164-.231.325-.36.717-.752.873-2.478.98-2.698.17-3.076.212-3.318.37-.157.103-.16.074-.021-.2.124-.242.524-.612.885-.818l.469-.27.22-.129-.275.031c-.799.09-1.476.2-1.706.28-.142.048-.276.07-.297.048-.072-.074.397-.417.965-.705.313-.158.568-.307.568-.33 0-.022-.092-.041-.206-.041-.288 0-.972-.174-1.733-.438-.391-.136-.646-.207-.864-.216z" transform="translate(254.108 99.169)"/><path style="opacity:1;fill:#17548c;fill-opacity:1;fill-rule:nonzero;stroke:none;stroke-width:.1984375;stroke-miterlimit:4;stroke-dasharray:none;stroke-opacity:1" d="m-226.113-96.09-3.082-2.044-3.118 2.062.99-3.563-2.924-2.328 3.695-.158 1.31-3.501 1.293 3.465 3.734.164-2.896 2.3z" transform="matrix(.96207 0 0 .95037 238.96 100.38)"/><path style="opacity:1;fill:#17548c;fill-opacity:1;fill-rule:nonzero;stroke:none;stroke-width:.1984375;stroke-miterlimit:4;stroke-dasharray:none;stroke-opacity:1" d="m-226.113-96.09-3.082-2.044-3.118 2.062.99-3.563-2.924-2.328 3.695-.158 1.31-3.501 1.293 3.465 3.734.164-2.896 2.3z" transform="matrix(.96207 0 0 .95037 254.432 100.352)"/></svg>