<svg xmlns="http://www.w3.org/2000/svg" width="262.008" height="413.323" viewBox="0 0 69.323 109.358"><defs><clipPath id="a"><path d="M0 0h221.381v270H0z" transform="translate(6 2)"/></clipPath><clipPath id="b"><path d="M0 0h221.381v221.35H0z" transform="translate(6 50.65)"/></clipPath><clipPath id="c"><path d="M0 0h168.883v168.926H0z" transform="translate(32.31 76.927)"/></clipPath><clipPath id="d"><path d="M0 0h141.609v155.997H0z" transform="translate(45.47 83.618)"/></clipPath><clipPath id="e"><path d="M0 0h213.372v41.891H0z" transform="translate(10.368 2)"/></clipPath></defs><path style="opacity:1;fill:#fff;fill-opacity:1;fill-rule:nonzero;stroke:none;stroke-width:.11088759;stroke-miterlimit:4;stroke-dasharray:none;stroke-opacity:1" d="M-24.086-42.419c-.096-19.513.076-43.013-.247-59.951 24.046.145 42.574-.01 67.747.16-.224 21.199-.071 37.311-.337 60.289C40.106-29.607 21.98-14.428 9.719-10.224c-21.2-4.662-32.627-28.293-33.805-32.195z" transform="translate(24.982 118.525)"/><g style="fill:#ffca00;fill-opacity:1"><path style="fill:#ffc905;fill-opacity:1;stroke-width:3.980515" d="M1043.424 330.433C895.68 255.518 824.791 190.14 795.571 62.401c-2.566-158.594-.528-330.216-.215-488.844h500.16l-2.433 492.466c-22.645 120.044-125.44 206.01-249.659 264.41zm234.713-265.106c1.107-158.419 5.463-338.596 5.505-479.406l-479.114-.689c.74 157.287.433 183.456 2.55 477.11 31.18 124.626 123.701 200.499 236.266 252.643 109.447-53.089 212.035-132.751 234.793-249.658z" transform="matrix(.1383 0 0 .12408 -109.857 68.359)"/></g><path style="fill:#ffc905;fill-opacity:1;stroke-width:.03480742" d="m-1.105-94.588.036 44.462c7.372.012 14.743.022 22.115-.001l.01-.011.01-.011c-.006-14.173-.047-30.259-.053-44.432-3.703 1.555-6.676 2.3-11.021 3.996-4.838-1.67-6.367-2.236-11.098-4.003zm28.42 8.377c-.956.885-1.72 3.088-.213 3.845l.013 3.753c-.527-1.41-2.062-1.935-3.541-1.731.046 1.493.978 3.202 2.803 2.882.307-.054.609-.307.739-.681l-.001 2.232-.001 2.233-.044-.136-.043-.135-.087-.164-.088-.165-.1-.126-.1-.127-.16-.153-.159-.154-.278-.16-.277-.16-.265-.091-.263-.092-.295-.057-.296-.058-.478-.018-.479-.02-.029.042-.03.04.003.31.004.308.042.235.041.235.085.234.085.236.132.22.132.22.153.168.152.168.225.161.225.16.242.104.242.103.238.048.237.049.23-.014.23-.014.217-.093.22-.093.107-.117.107-.117.062-.14.063-.138v4.67l-.075-.192-.076-.193-.118-.17-.119-.172-.213-.2-.215-.201-.23-.132-.229-.132-.167-.062-.167-.062-.274-.07-.274-.069-.392-.033-.39-.033-.332.03-.332.028-.02.018-.02.017.041.36.042.361.084.277.086.276.147.265.146.265.164.188.164.187.22.157.22.157.257.116.258.115.208.047.208.046h.548l.183-.058.181-.059.146-.108.147-.109.097-.177.097-.178v4.993l-.08-.191-.077-.192-.09-.132-.09-.13-.162-.169-.161-.168-.216-.148-.215-.148-.277-.117-.277-.116-.305-.066-.306-.066h-.56l-.56-.002-.166.024-.165.025.021.235.023.235.05.21.051.211.07.191.069.19.132.238.132.237.19.21.19.21.24.164.242.163.241.1.243.101.237.048.236.048.272-.014.271-.014.136-.049.136-.049.124-.074.125-.074.09-.114.092-.113.046-.112.046-.112v4.875l-.08-.185-.08-.185-.127-.167-.129-.167-.193-.164-.194-.165-.25-.135-.25-.135-.307-.088-.305-.09-.322-.033-.322-.034-.306.019-.306.02-.338.059-.34.059-.031.027-.032.027.07.287.07.287.116.268.116.267.151.232.15.232.324.28.322.28.271.121.271.12.238.066.238.065h.34l.339.002.196-.065.196-.067.142-.094.144-.094.11-.185.111-.185v6.791h.44v-3.386l.002-3.385.063.121.064.122.126.12.125.12.181.073.181.076.25.032.25.032.288-.043.289-.043.211-.075.212-.074.194-.098.194-.099.275-.235.275-.235.158-.235.158-.234.103-.212.102-.212.08-.274.082-.272.018-.11.018-.11-.176-.043-.176-.042-.22-.037-.22-.036h-.951l-.296.064-.296.063-.225.088-.225.09-.212.13-.212.13-.175.167-.176.166-.088.132-.09.132-.08.166-.079.166.001-2.408.002-2.409.05.122.05.12.118.12.119.12.227.097.227.097h.714l.186-.056.187-.054.264-.118.265-.117.256-.207.256-.208.137-.174.138-.175.13-.24.13-.242.086-.29.085-.292.032-.28.032-.279-.023-.02-.023-.02-.254-.035-.256-.035-.457.016-.459.016-.33.074-.33.074-.266.12-.267.12-.2.14-.2.139-.164.176-.165.175-.105.177-.104.176-.043.118-.044.117v-2.468l-.002-2.467.07.132.068.133.125.112.126.113.17.076.168.077.33.012.329.013.248-.065.248-.064.22-.104.22-.103.184-.13.184-.13.134-.132.135-.132.16-.232.16-.23.106-.277.106-.276.052-.26.052-.259v-.458l-.093-.015-.093-.015-.255-.018-.254-.018-.361.032-.362.031-.263.06-.261.06-.215.084-.216.085-.19.109-.189.109-.196.169-.196.17-.144.19-.144.193-.083.2-.08.2-.002-2.305v-2.306l.096.176.097.177.13.098.128.098.155.058.155.057.212.017.211.017c1.594-.264 2.39-1.513 2.261-3.018l-.272-.01c-1.245.01-2.543.356-3.077 1.537l-.095.235.002-2.203.002-2.203.05.123.05.122c1.56 1.534 3.682-.887 3.435-2.486-1.173-.035-2.863.36-3.533 1.683l-.008-3.678c1.767-.866.374-3.36-.245-3.862zm-34.47.13c-.957.886-1.72 3.088-.213 3.845l.012 3.754c-.526-1.412-2.061-1.937-3.54-1.733.045 1.493.977 3.203 2.802 2.883.308-.054.61-.307.74-.68l-.002 2.231v2.233l-.044-.135-.043-.136-.088-.165-.087-.164-.1-.126-.1-.127-.16-.153-.159-.153-.277-.16-.278-.16-.264-.092-.265-.092-.295-.057-.295-.058-.479-.02-.478-.017-.03.04-.029.042.004.308.004.309.042.235.042.235.084.234.086.236.131.22.133.22.153.168.152.168.225.16.225.162.242.103.243.103.237.048.238.05.229-.015.23-.014.217-.093.219-.093.107-.117.107-.117.063-.14.062-.138.001 2.336v2.334l-.076-.192-.075-.193-.119-.17-.118-.17-.214-.202-.215-.2-.229-.133-.23-.132-.167-.062-.167-.062-.274-.07-.274-.068-.39-.033-.392-.033-.332.029-.331.029-.02.017-.021.018.042.36.042.361.085.276.085.276.147.265.146.265.163.188.165.188.22.156.22.157.257.116.257.116.209.046.208.048h.548l.182-.06.183-.059.145-.108.146-.108.097-.178.097-.178v4.993l-.079-.191-.078-.191-.09-.133-.089-.13-.163-.169-.161-.168-.215-.148-.214-.148-.279-.116-.277-.117-.305-.065-.305-.066-.561-.002h-.56l-.165.024-.166.024.022.235.023.235.05.21.05.211.07.191.07.191.132.238.13.237.19.21.19.21.242.163.24.163.244.1.241.1.237.05.236.048.272-.014.271-.015.137-.05.135-.048.124-.074.125-.074.091-.114.092-.114.046-.112.046-.11v2.437l-.001 2.437-.08-.184-.079-.185-.128-.168-.128-.168-.194-.164-.194-.164-.25-.135-.25-.135-.305-.088-.306-.088-.323-.035-.322-.034-.305.02-.306.019-.34.059-.339.059-.031.027-.031.027.07.287.07.286.116.269.116.267.15.232.15.231.324.28.322.28.272.122.27.12.238.065.238.065.34.001.34.001.195-.065.196-.066.143-.094.143-.094.11-.185.111-.184v6.79h.441v-3.386l.001-3.385.064.122.064.121.125.12.125.12.181.074.182.074.249.032.25.032.289-.043.29-.043.21-.074.211-.074.194-.098.194-.099.275-.235.275-.235.158-.235.159-.234.102-.212.102-.212.081-.274.081-.272.019-.11.018-.11-.176-.042-.176-.043-.221-.037-.22-.036h-.951l-.295.064-.296.063-.225.089-.226.088-.211.131-.213.13-.175.166-.176.167-.088.132-.09.132-.08.166-.078.166v-2.408l.002-2.409.05.121.05.121.118.12.119.12.227.097.227.097.358-.001h.356l.186-.055.188-.054.264-.118.264-.117.257-.208.255-.206.137-.175.138-.175.13-.24.13-.242.086-.291.086-.291.03-.28.033-.279-.023-.02-.023-.02-.254-.035-.254-.035-.459.016-.458.016-.33.074-.33.074-.267.12-.267.12-.2.14-.2.14-.164.175-.165.175-.105.176-.104.177-.043.118-.044.117v-2.468l-.001-2.466.068.132.069.132.126.112.125.113.17.076.169.077.329.012.33.013.247-.065.248-.064.221-.103.22-.104.183-.13.184-.13.134-.132.135-.133.16-.23.16-.231.106-.277.106-.277.052-.259.054-.26v-.457l-.094-.015-.094-.015-.254-.018-.255-.018-.361.031-.362.032-.262.06-.262.06-.214.084-.216.084-.19.109-.19.109-.195.17-.196.168L-6.6-69l-.145.193-.081.2-.082.2v-2.305l-.001-2.306.097.176.096.177.129.098.129.098.155.058.155.057.211.017.212.017c1.593-.264 2.389-1.513 2.26-3.018l-.271-.01c-1.246.008-2.543.355-3.077 1.536l-.095.236.002-2.203.002-2.203.05.122.05.123c1.559 1.534 3.682-.887 3.434-2.486-1.172-.035-2.862.36-3.532 1.683-.002-1.226-.007-2.452-.008-3.678 1.766-.865.372-3.36-.246-3.862zm15.05.114h4.142a419.32 419.32 0 0 0 4.8 7.854c-.973.005-2.12.007-3.257.019-.202-.411-.419-.86-.646-1.333H6.995l-.633 1.329-3.276.002c1.65-2.707 3.02-4.942 4.81-7.871zm2.073 1.474c-.635.966-1.39 2.07-2.102 3.153h4.197c-.596-.947-1.413-2.034-2.095-3.153zm-6.887 9.3h3.228v6.01h7.309v-6.01h3.228v6.13c-.77.706-1.852 1.551-3.104 1.808l-7.202.011c-1.397-.146-2.53-.887-3.46-1.838zm.396 11.43H16.78v1.604H6.563v1.571h10.074v1.503H6.563l-.018 3.262H3.476v-7.94zm-4.582 28.355v9.877l.034-.012h.005c3.897-1.042 6.389-1.915 11.034-3.353 4.713 1.412 5.484 1.694 11.028 3.36h.036v-9.872c-7.252-.012-14.78.007-22.137 0z" transform="translate(24.982 118.525)"/><path style="fill:#55b5e5;fill-opacity:1;stroke-width:.26458335" d="M-.276 142.826h-53.74V130.391h96.238l.74 1.124.74 1.125 1.507 1.852 1.508 1.852 1.955 2.006 1.955 2.007 1.418 1.234 1.418 1.235zm178.297 0h-53.714l2.286-2.034 2.286-2.034 1.982-2.265 1.981-2.266 1.358-1.904 1.358-1.905 48.088-.014 48.088-.013V142.826h-53.713zM35.86 117.89l-.05-.065-44.914-.068-44.913-.068v-12.434h86.988l.31 2.183.312 2.183.549 2.375.549 2.375.61 1.792.61 1.792zm150.935-.134-44.938.067.362-.866.362-.866.774-3.103.774-3.102.331-2.315.332-2.315h86.941v12.432zM-10.528 92.82h-43.488V80.385h89.694v.222l-.904 3.143-.905 3.143-.455 2.964-.455 2.963zm198.769 0h-43.493l-.183-1.521-.182-1.522-.393-1.943-.394-1.944-.656-2.29-.656-2.29-.14-.462-.139-.463h89.729V92.82zM-6.037 67.95h-47.979V55.513H53.077l-3.763 3.77-3.763 3.77-1.805 2.448-1.805 2.447zm189.81 0H135.81l-1.62-2.194-1.62-2.194-2.403-2.677-2.403-2.678-.232-.09-.232-.09-1.39-1.256-1.389-1.257h107.213V67.949z" transform="matrix(.14643 0 0 .13247 22.234 62.889)"/><path style="opacity:1;fill:#fff;fill-opacity:1;fill-rule:nonzero;stroke:none;stroke-width:.00434283;stroke-miterlimit:4;stroke-dasharray:none;stroke-opacity:1" d="M10.563-51.986c-.518-.022-1.697.06-2.081.146-.131.029-.137.037-.07.12.055.07.79.755.977.91l.165.139c.022.018.047.022.308.046.468.042 1.013.084 2.251.171a56.2 56.2 0 0 1 1.374.107c.06.007.158.011.225.01.137-.004.178-.014.34-.086.193-.085.754-.367.784-.394.01-.009.002-.017-.04-.043-.166-.097-.85-.396-1.274-.558-.782-.297-1.973-.526-2.959-.568zm-.982 1.728-.062.047c-.071.054-.223.186-.769.665-.617.542-.866.753-.931.791a.129.129 0 0 0-.05.05.959.959 0 0 1-.124.13.84.84 0 0 0-.117.122c-.007.02.055.158.288.658.382.818.639 1.348.663 1.367.047.037.326.064 1.962.195 1.603.128 2.213.18 2.422.2.098.01.129-.001.26-.087a24.71 24.71 0 0 0 1.59-1.21l.092-.082-.04-.102c-.127-.326-.552-1.349-.829-1.996-.147-.345-.188-.432-.203-.437-.029-.01-1.443-.116-3.96-.297zm-1.763 1.525c.025 0 .028.004.028.026 0 .023-.002.026-.028.026-.025 0-.028-.003-.028-.026s.002-.026.028-.026zm-5.13.275c-.052.025-.228.253-.51.66a9.7 9.7 0 0 0-1.005 1.92c-.077.201-.142.39-.216.631-.037.122-.077.247-.087.277-.01.03-.02.06-.02.066 0 .03.084.08.336.202.234.114.45.208.576.25.034.012.07.021.08.022.048 0 .11-.09.302-.44a95.352 95.352 0 0 0 1.16-2.214l.042-.085-.02-.046a28.07 28.07 0 0 0-.564-1.153c-.052-.097-.055-.1-.077-.09zm4.462.24-.202.063c-.356.111-.89.298-2.55.893l-.693.251c-.006.008-.89 1.698-1.028 1.962-.18.35-.407.796-.443.875l-.022.049.074.125c.193.32.727 1.18 1.002 1.612l.156.246.035-.006c.02-.003.197-.047.396-.097.68-.172.654-.165.658-.188.001-.024.05-.03.055-.008.002.014-.002.016.649-.155.524-.138.639-.174.677-.212.02-.017.082-.11.144-.205.467-.71 1.1-1.69 1.523-2.351.411-.645.45-.708.502-.804l.044-.081-.085-.176c-.11-.228-.18-.391-.181-.43-.001-.017-.008-.039-.02-.049a8.05 8.05 0 0 1-.335-.648 7.764 7.764 0 0 0-.336-.643zm7.915 1.166c-.025 0-.381.254-1.06.756l-.584.432-.106.078-.001.12c0 .068.008.225.02.35.028.31.343 3.13.369 3.301.02.125.027.134.23.266.224.146 1.354.807 1.924 1.125h.001c.108.06.199.11.203.11.025 0 .55-.45 1.6-1.37.407-.357.427-.376.423-.404-.002-.027-.002-.03.022-.03.014 0 .027.005.027.012a.4.4 0 0 0 .096-.076l.246-.22.148-.133-.079-.536a27.225 27.225 0 0 0-.194-1.219c-.01-.05-.014-.051-.184-.189-.7-.558-3.072-2.373-3.101-2.373zm-7.247.155c.022 0 .025.004.025.024s-.007.025-.025.025c-.022 0-.025-.006-.025-.025 0-.02.007-.024.025-.024zm11.566 1.504c-.022.001-.5.62-.549.713-.074.137-.072.23.01.79l.111.746.063.431.258.36c.142.197.306.422.365.499.058.076.11.136.115.131.008-.009.035-.23.053-.45a11.69 11.69 0 0 0-.016-1.145 8.791 8.791 0 0 0-.173-1.269c-.088-.397-.209-.807-.237-.806zM5.939-42.366c-.02 0-.288.062-.588.136-.273.068-1.791.458-1.795.46-.006.005-.02.168-.038.489l-.016.256.028.067.028.066-.03.028-.028.028-.008.348c-.016.607-.052 1.624-.065 1.873l-.014.24.115.117c.185.186.368.376.85.883.75.789 1.005 1.046 1.083 1.09.031.018.033.018.106-.002.163-.043.746-.221 1.44-.44.697-.22.732-.233.735-.256.002-.029.05-.042.05-.015 0 .01.007.016.02.013.01-.002.302-.092.648-.201l.629-.2.127-.717c.183-1.035.235-1.372.217-1.415-.007-.011-1.104-.928-2.126-1.773a39.384 39.384 0 0 0-1.279-1.026.306.306 0 0 0-.09-.05zm7.58.86-.064.032c-.177.09-.838.457-1.797.996-.573.323-.924.517-1 .553-.037.017-.059.032-.048.032.014 0 .02.008.02.03 0 .024-.007.028-.025.028-.016 0-.027-.006-.028-.02-.002-.016-.015-.012-.097.039l-.349.204c-.14.081-.26.152-.267.158-.014.011-.12.603-.258 1.408-.11.641-.113.665-.096.689.06.086.284.25 1.75 1.276.476.333.91.638.964.678.074.053.1.066.102.055.002-.01.01-.015.025-.013.02.002.022.01.022.032 0 .017.001.035.008.041.01.017.16.112.22.142a.239.239 0 0 0 .076.025c.03 0 .193-.091.593-.332a98.37 98.37 0 0 0 2.082-1.299c.047-.032.054-.042.06-.078.002-.023.093-.646.198-1.385.26-1.824.27-1.908.223-1.963-.07-.084-1.703-1.029-2.184-1.265zm-10.36 3.405a3.382 3.382 0 0 0-.307.013c-.71.047-.86.06-.92.083-.032.012-.034.017-.028.045.027.125.62.951.962 1.34.422.48 1.049 1.05 1.59 1.446.134.1.439.31.545.377.03.02.06.036.065.036.014 0 .048-.116.06-.194.017-.109.042-.4.059-.708.014-.247.014-.297 0-.31A323.873 323.873 0 0 0 3.16-38.1zm12.457 1.632-1.378.863-1.378.863-.262.493c-.241.455-.336.641-.336.657 0 .004.01.01.024.015.114.043.911-.182 1.548-.437.348-.139.373-.15.377-.176.001-.024.038-.036.05-.017.015.021.519-.227.864-.425a8.68 8.68 0 0 0 1.125-.759c.344-.284 1.093-.963 1.093-.99 0-.06-.36-.086-1.194-.087z" transform="translate(24.982 118.525)"/><path style="opacity:1;fill:#000;fill-opacity:1;fill-rule:nonzero;stroke:none;stroke-width:.02303836;stroke-miterlimit:4;stroke-dasharray:none;stroke-opacity:1" d="M9.55-32.947a10.096 10.096 0 0 1-3.737-.959 9.025 9.025 0 0 1-2.47-1.675c-.706-.659-1.072-1.083-1.63-1.89-.21-.304-.566-.94-.572-1.024-.002-.037-.022-.081-.044-.098-.056-.042-.22-.438-.382-.919-.42-1.252-.61-2.6-.524-3.714a13.29 13.29 0 0 1 .24-1.62 9.701 9.701 0 0 1 2.416-4.383c1.654-1.702 3.647-2.703 6.051-3.039.596-.083 2.097-.075 2.712.015 1.734.253 3.337.91 4.718 1.935.438.324 1.22 1.055 1.57 1.466a9.634 9.634 0 0 1 2.238 4.907c.044.29.057.573.058 1.29 0 .812-.008.975-.074 1.394a10.43 10.43 0 0 1-.743 2.535c-.785 1.723-2.169 3.28-3.812 4.287-.455.279-.91.519-.937.494-.01-.01-.036.005-.058.032-.058.072-.828.377-1.36.539a9.947 9.947 0 0 1-2.445.43 7.131 7.131 0 0 1-1.215-.003zm3.285-.725c1.2-.334 2.39-.922 3.319-1.64.273-.21 1.193-1.038 1.193-1.072 0-.058-.352-.088-1.01-.088h-.724l-1.378.862-1.377.862-.301.56a8.43 8.43 0 0 0-.302.591c0 .057.2.03.58-.075zm-7.713-1.251c.02-.094.045-.366.056-.605l.022-.434-.852-.9c-.47-.495-.93-.979-1.026-1.075l-.172-.175-.626.042c-.513.033-.627.049-.635.086-.014.074.545.871.916 1.304.456.532 1.171 1.179 1.762 1.594.26.184.484.333.497.333.014 0 .04-.076.059-.17zm8.948-1.016c.735-.457 1.336-.839 1.336-.85 0-.01.108-.765.24-1.678.23-1.597.237-1.663.183-1.719-.11-.113-2.248-1.332-2.316-1.32-.035.007-.682.36-1.437.788-.755.426-1.4.785-1.432.796a.214.214 0 0 0-.075.04c-.008.012-.174.11-.366.221-.193.11-.352.202-.355.205-.014.01-.361 2.015-.361 2.076 0 .057.25.244 1.392 1.042.766.534 1.414.99 1.44 1.012.113.098.307.214.358.216.031.001.658-.372 1.393-.829zm-7.238-.73 1.764-.557.493-.155.165-.917c.09-.505.169-.987.175-1.072l.01-.154-1.716-1.425c-1.04-.865-1.74-1.424-1.778-1.424-.035 0-.59.135-1.232.3l-1.168.3-.028.375c-.014.206-.025.427-.025.493.002.205-.05 1.853-.068 2.2l-.02.333.216.217c.118.12.572.594 1.007 1.054.58.612.81.836.861.836.038 0 .641-.181 1.34-.403zm10.244-4.7c.543-.474 1.113-.974 1.268-1.112l.28-.251-.131-.896c-.072-.492-.142-.904-.154-.914-.22-.193-3.245-2.516-3.275-2.516-.022 0-.428.287-.9.637l-.858.638v.17c0 .094.035.478.078.853s.13 1.142.191 1.705c.062.562.12 1.063.13 1.113.017.082.127.153 1.17.762a33.18 33.18 0 0 0 1.183.672c.016.001.476-.386 1.018-.86zm2.734-.778c.048-.559-.027-1.66-.155-2.287-.097-.472-.236-.964-.273-.964-.014 0-.161.182-.328.404-.354.473-.334.28-.157 1.494l.115.786.366.511c.201.282.372.506.38.498.009-.007.032-.207.052-.442zm-15.713-.151c1.504-.385 1.774-.459 1.813-.496.052-.05 2.069-3.17 2.153-3.333l.064-.122-.144-.3c-.08-.164-.135-.306-.124-.316.01-.01.001-.028-.02-.04-.02-.012-.173-.306-.338-.655-.165-.349-.32-.644-.345-.657-.028-.015-.678.204-1.75.589l-1.706.612-.754 1.434c-.414.788-.748 1.444-.743 1.457a65.67 65.67 0 0 0 1.238 1.989c.01 0 .305-.073.653-.162zm-1.464-3.485c.391-.742.712-1.366.712-1.387 0-.04-.595-1.25-.635-1.291-.033-.033-.162.125-.522.639a9.564 9.564 0 0 0-1.224 2.535 8.52 8.52 0 0 1-.117.37c-.016.04.065.09.451.273.267.126.505.22.548.216.067-.005.16-.166.787-1.355zm11.279-.909c.573-.433.89-.69.89-.725 0-.043-1.03-2.508-1.06-2.536-.001-.004-.943-.074-2.087-.157l-2.079-.151-.1.078c-.055.043-.442.38-.86.749s-.78.675-.804.68c-.025.005-.043.024-.043.042 0 .017-.058.078-.128.133-.07.056-.127.116-.127.133 0 .038.92 1.986.953 2.02.04.039.354.07 2.15.212a250.928 250.928 0 0 1 2.316.19c.072.003.264-.128.979-.668zm.43-3.867a6.41 6.41 0 0 0 .504-.26c.028-.042-1.105-.538-1.572-.69a10.569 10.569 0 0 0-2.177-.44 6.772 6.772 0 0 0-1.28-.028c-.702.032-1.391.114-1.453.17-.028.027.065.13.376.422.227.213.507.466.623.562l.21.175.49.045c.27.024 1.077.085 1.795.135.717.05 1.412.102 1.543.115.438.046.418.05.942-.206z" transform="translate(24.982 118.525)"/><path style="opacity:1;fill:#d8000f;fill-opacity:1;fill-rule:nonzero;stroke:none;stroke-width:.00953843;stroke-miterlimit:4;stroke-dasharray:none;stroke-opacity:1" d="M3.156-78.202A10063.761 10063.761 0 0 0 6.89-84.31L7.9-85.965l2.068.003 2.068.003.247.412a411.686 411.686 0 0 0 3.979 6.519c.461.741.554.899.536.905-.012.004-.741.01-1.62.014l-1.597.007-.26-.538c-.144-.295-.289-.595-.322-.665l-.061-.128H6.992l-.317.667-.318.667H3.093zm8.903-3.146c0-.022-.367-.574-.87-1.307-.6-.875-.905-1.336-1.123-1.692a1.544 1.544 0 0 0-.096-.146c-.004 0-.097.135-.207.302l-.719 1.075c-.653.974-1.176 1.761-1.176 1.77 0 .003.943.006 2.096.006 1.152 0 2.095-.004 2.095-.008zM6.27-67.286c-1.065-.177-2.036-.697-2.973-1.59l-.217-.208v-6.098h3.218l.004 3 .004 3.002h7.319l.004-3.001.004-3.001h3.205v6.129l-.05.043c-.029.023-.13.11-.225.192-.927.809-1.82 1.317-2.677 1.526l-.155.037h-3.64l-3.64-.002-.176-.029zM3.482-59.794v-3.97H16.77V-62.17H6.557v1.584H16.626v1.495H6.562l-.008.945c-.005.519-.009 1.254-.009 1.633v.688H3.483z" transform="translate(24.982 118.525)"/><g clip-path="url(#a)" transform="translate(-1.758 -.635) scale(.3175)"><g clip-path="url(#e)"><path style="fill:#ffc905;fill-rule:nonzero;stroke:#ffc905;stroke-width:.79654098;stroke-linecap:butt;stroke-linejoin:round;stroke-dasharray:none" d="m43.152 15.716-13.43 9.691 5.14 15.688-13.351-9.784-13.36 9.626 5.205-15.624L0 15.665l16.5.1L21.576 0l5.07 15.752z" transform="translate(180.19 2.398)"/><path style="fill:#ffc905;fill-rule:nonzero;stroke:#ffc905;stroke-width:.79654098;stroke-linecap:butt;stroke-linejoin:round;stroke-dasharray:none" d="M34.824 40.996 21.53 31.298 8.23 40.99l5.063-15.64L0 15.65l16.512-.01L21.576 0l5.018 15.657 16.52.085-13.404 9.606z" transform="translate(124.709 2.434)"/><path style="fill:#ffc905;fill-rule:nonzero;stroke:#ffc905;stroke-width:.79654098;stroke-linecap:butt;stroke-linejoin:round;stroke-dasharray:none" d="m21.557 31.298-13.31 9.676 5.141-15.64L0 15.705l16.52-.057L21.567 0l5.036 15.65 16.512.038-13.31 9.676 5.133 15.658z" transform="translate(66.134 2.434)"/><path style="fill:#ffc905;fill-rule:nonzero;stroke:#ffc905;stroke-width:.79654098;stroke-linecap:butt;stroke-linejoin:round;stroke-dasharray:none" d="m8.15 40.891 5.184-15.594L0 15.494l16.516.1L21.7 0l4.917 15.725 16.47.017-13.367 9.617 5.001 15.68-13.204-9.765z" transform="translate(10.767 2.413)"/></g></g></svg>