<svg version="1.0" xmlns="http://www.w3.org/2000/svg" width="273.594" height="365.504" viewBox="0 0 424.368 566.928" xml:space="preserve"><path d="M144.504 442.08c-7.272-7.92-13.752-16.632-20.376-25.2-11.376-14.616-25.848-23.544-41.976-31.968 3.24-27.288 4.68-54.432 3.024-81.792h-26.64L0 377.64V93.24l45 57.24 40.176-43.488c10.584 6.624 18.504 11.16 31.32 10.44 9.792-.576 19.152-3.384 28.008-7.344V58.536L69.984 0h284.4l-74.52 58.536v51.552c8.856 3.96 18.216 6.768 28.008 7.344 12.816.72 20.736-3.816 31.32-10.44l40.176 43.488 45-57.24v284.4l-58.536-74.52H339.12c-1.584 27.36-.144 54.504 3.096 81.792-16.128 8.424-30.6 17.352-41.976 31.968-6.624 8.568-13.104 17.28-20.376 25.2v66.312l74.52 58.536h-284.4l74.52-58.536V442.08zm72.576 22.392c-1.872-1.44-3.6-3.096-4.896-5.112-1.296 2.016-3.024 3.672-4.896 5.112l.216 41.328h9.36l.216-41.328zm-9.792-369.648c2.16 2.088 3.888 4.608 4.896 7.344 1.008-2.736 2.736-5.256 4.896-7.344l-.216-33.696h-9.36l-.216 33.696zm143.208 137.16c-.864 3.24-1.656 6.408-2.448 9.576l15.48-.072v-9.36l-13.032-.144zM76.32 241.56c-.792-3.168-1.584-6.336-2.448-9.576l-13.032.144v9.36l15.48.072z"/><path fill="#D3C084" d="M233.496 469.512c-3.024 0-6.192-.432-9.216-1.44l-.288 45h-23.616l-.288-45c-3.024 1.008-6.192 1.44-9.216 1.44v51.984h42.624v-51.984zM355.392 215.424c-1.008 3.096-1.944 6.264-2.88 9.36l18.216.144v23.688l-24.264.216c-.648 3.096-1.296 6.192-1.872 9.288h34.632v-42.696h-23.832z"/><path fill="#E42518" d="M364.248 191.592c-2.304 5.472-4.464 11.016-6.408 16.632h28.584v57.168h-43.128a469.51 469.51 0 0 0-1.944 14.04h36l23.184 29.448V162l-23.184 29.592h-13.104z"/><path fill="#D3C084" d="M375.192 167.76c-2.736 5.4-5.328 10.944-7.776 16.488h6.408l34.056-43.416v189.216l-34.056-43.344h-33.336c-.144 1.512-.288 3.096-.432 4.68-.144 1.44-.288 2.952-.432 4.464h29.736l47.664 60.048v-240.84l-41.832 52.704zM190.872 89.64c3.24-.36 6.408-.216 9.216.72l.288-36.504h23.616l.288 36.504c2.808-.936 5.976-1.08 9.216-.72V45.432h-42.624V89.64z"/><path fill="#E42518" d="M168.264 97.704c3.24-1.656 6.696-3.312 10.152-4.752 1.728-.648 3.456-1.296 5.184-1.8v-52.92h57.168v52.92c1.728.504 3.456 1.152 5.184 1.8 3.456 1.44 6.912 3.096 10.152 4.752V47.016l29.52-23.184h-146.88l29.52 23.184v50.688z"/><path fill="#D3C084" d="M151.848 106.632c2.664-1.368 5.256-2.808 7.848-4.248.432-.216.864-.432 1.296-.72v-51.12l-43.416-34.056h189.216l-43.416 34.056v51.12c.432.288.864.504 1.296.72 2.592 1.44 5.184 2.88 7.848 4.248V55.008l60.12-47.664H91.728l60.12 47.664v51.624zM79.776 258.12c-.576-3.096-1.224-6.192-1.872-9.288l-24.264-.216v-23.688l18.216-.144c-.936-3.096-1.872-6.264-2.88-9.36H45.144v42.696h34.632z"/><path fill="#E42518" d="M83.016 279.432c-.576-4.68-1.224-9.36-2.016-14.04H37.944v-57.168h28.584c-1.944-5.616-4.104-11.16-6.408-16.632H47.016L23.832 162v146.88l23.184-29.448h36z"/><path fill="#D3C084" d="M84.744 295.848c-.144-1.512-.288-3.024-.432-4.464-.144-1.584-.288-3.168-.432-4.68H50.544l-34.056 43.344V140.832l34.056 43.416h6.408a383.057 383.057 0 0 0-7.776-16.56L7.344 115.056v240.84l47.664-60.048h29.736z"/><path fill="#E42518" d="M212.184 114.84c-2.232 5.112-7.128 7.992-12.6 8.568-6.336.72-13.032-2.448-17.208-7.128-3.384 1.872-6.624 4.032-10.008 6.048-16.416 10.08-35.28 17.856-54.648 18.864-9.432.576-19.08-.576-27.864-4.176l-19.08 20.52a361.913 361.913 0 0 1 19.152 45.648c9.216 27.072 15.048 55.224 17.856 83.592 2.808 28.224 2.592 56.736-.216 84.816 13.536 8.064 25.632 18.288 35.28 30.816 11.16 14.328 21.888 29.952 37.872 39.456 5.112 3.024 9.72 6.336 13.968 1.656 2.808-3.096 6.192-4.536 9.36-4.68 3.024-.144 6.048 1.08 8.136 3.168 2.088-2.088 5.112-3.312 8.064-3.168 3.168.144 6.624 1.584 9.432 4.68 4.248 4.68 8.856 1.368 13.968-1.656 15.984-9.504 26.64-25.056 37.872-39.456 9.648-12.528 21.672-22.752 35.28-30.816-2.808-28.08-3.024-56.592-.216-84.816 2.808-28.368 8.64-56.52 17.856-83.592a361.913 361.913 0 0 1 19.152-45.648l-19.08-20.52c-8.856 3.6-18.432 4.752-27.864 4.176-19.368-1.008-38.232-8.784-54.648-18.864-3.384-2.016-6.624-4.176-10.008-6.048-4.176 4.68-10.872 7.848-17.208 7.128-5.472-.576-10.368-3.456-12.6-8.568zm0 51.912c4.104-2.232 8.496-4.032 13.104-4.752 11.808-1.728 19.296 3.456 29.664 6.48 15.984 4.752 31.32 5.256 47.736 3.384l16.992 20.304c-9.144 27.504-15.768 55.152-19.296 83.88-3.672 29.304-4.176 58.608-3.312 88.128-9 5.76-17.136 11.52-24.336 19.44-9.432 10.44-15.552 23.4-27.216 31.824-19.296 13.896-47.376 13.896-66.672 0-11.664-8.424-17.784-21.384-27.216-31.824-7.2-7.92-15.336-13.68-24.336-19.44.864-29.52.36-58.824-3.312-88.128-3.528-28.728-10.152-56.376-19.296-83.88l16.992-20.304c16.416 1.872 31.752 1.368 47.736-3.384 10.368-3.024 17.856-8.208 29.664-6.48 4.608.72 9 2.52 13.104 4.752z"/><path fill="#D3C084" d="M160.992 457.2c-.072 0-.144-.072-.144-.072-.216-.144-.36-.288-.504-.36-.144-.144-.288-.216-.432-.36-.144-.072-.288-.216-.504-.36-.072-.072-.144-.144-.216-.144-.144-.144-.36-.288-.504-.432-.144-.072-.216-.144-.36-.288-.144-.072-.288-.216-.432-.288-.072-.144-.216-.216-.36-.36-.144-.072-.288-.216-.432-.288-.144-.144-.216-.288-.36-.36-.072-.072-.144-.072-.144-.144a.155.155 0 0 1-.144-.144h-.072c-.144-.144-.36-.288-.504-.432-.072-.072-.144-.072-.144-.144-.216-.144-.432-.288-.576-.504-.072 0-.144-.072-.144-.072-.072-.072-.072-.144-.144-.144-1.008-.936-2.088-1.8-3.024-2.736v62.352l-60.12 47.664H332.64l-60.12-47.664v-62.352a94.28 94.28 0 0 1-3.888 3.456c0 .072-.072.072-.144.144-.432.36-.792.72-1.224 1.08-.072 0-.144.072-.216.072 0 .072-.072.072-.144.144-.144.144-.36.288-.576.504 0 0-.072.072-.144.072 0 .072-.072.072-.144.144-.144.072-.288.216-.432.36 0 0-.072.072-.144.072 0 .072-.072.072-.144.144-.144.144-.288.216-.432.36-.072 0-.072.072-.144.072l-.144.144h-.072c-.144.144-.36.288-.504.432-.072.072-.144.072-.216.144l-.144.144c-.144.072-.216.144-.288.144v59.184l43.416 34.056H117.576l43.416-34.056V457.2z"/><path fill="#E42518" d="M183.6 468.576c-4.824-1.08-9.576-3.168-14.04-5.76-.432-.216-.864-.432-1.296-.72v57.816l-29.52 23.184h146.88l-29.52-23.184v-57.816c-.432.288-.864.504-1.296.72-4.464 2.592-9.216 4.68-14.04 5.76v60.12H183.6v-60.12z"/><path fill="#D3C084" d="M212.184 175.104c4.392-2.592 9.144-5.112 14.256-5.832 10.44-1.584 17.208 3.456 26.496 6.264 15.408 4.536 30.672 5.904 46.656 4.032l11.808 14.184c-8.784 26.568-14.832 53.568-18.288 81.36-3.528 28.296-4.32 56.664-3.456 85.176-8.352 5.256-15.624 11.088-22.32 18.432-8.856 9.72-15.48 23.112-26.064 30.816-16.704 12.024-41.472 12.024-58.176 0-10.584-7.704-17.208-21.096-26.064-30.816-6.696-7.344-13.968-13.176-22.32-18.432.864-28.512.072-56.88-3.456-85.176-3.456-27.792-9.504-54.792-18.288-81.36l11.808-14.184c15.984 1.872 31.248.504 46.656-4.032 9.288-2.808 16.056-7.848 26.496-6.264 5.112.72 9.936 3.24 14.256 5.832z"/><path d="M212.184 183.672c-4.68-2.88-9.72-6.336-15.336-7.2-8.568-1.296-15.48 3.744-23.328 6.048-14.76 4.392-30.312 6.264-45.648 4.752l-6.696 8.064c8.424 25.776 14.04 52.056 17.352 78.912 3.384 26.784 4.392 54.144 3.672 82.08 7.992 5.328 14.4 11.088 20.232 17.496 8.352 9.216 14.976 22.536 24.984 29.736 14.04 10.224 35.496 10.224 49.536 0 10.008-7.2 16.632-20.52 24.984-29.736 5.832-6.408 12.24-12.168 20.232-17.496-.72-27.936.288-55.296 3.672-82.08 3.312-26.856 8.928-53.136 17.352-78.912l-6.696-8.064c-15.336 1.512-30.888-.36-45.648-4.752-7.848-2.304-14.76-7.344-23.328-6.048-5.616.864-10.656 4.32-15.336 7.2z"/><path fill="#D3C084" d="M189.144 462.096c-12.312-1.152-25.416-11.232-34.056-19.44-9.648-9.144-17.136-19.8-25.2-30.24-10.872-14.04-24.264-23.544-39.888-31.68 6.84-57.96 3.312-116.64-15.624-172.296-6.336-18.576-14.328-36.216-23.544-53.496L86.4 116.352c9.936 6.264 18.648 9 30.456 8.424 16.776-.936 31.968-7.992 46.368-15.984 9.144-5.112 26.64-15.192 35.496-11.088 8.64 4.032 11.088 17.208.072 18.432-5.616.648-12.456-4.176-13.464-9.576-5.688 2.52-11.088 6.12-16.776 9.576-15.192 9.288-33.192 16.776-51.192 17.784-10.296.504-20.16-.936-29.232-5.832L61.92 156.312c8.352 15.984 15.336 32.4 21.096 49.248 18.576 54.432 23.112 113.04 16.776 169.992 14.472 7.92 27.216 18.216 37.296 31.32 7.776 10.008 15.048 20.376 24.264 29.16 6.984 6.552 18.648 16.056 28.656 16.992 4.896.504 6.984-1.224 10.08-4.608 4.176-4.608 9.72-1.656 7.56 4.104-2.736 7.2-11.448 10.296-18.504 9.576zm46.08 0c12.312-1.152 25.416-11.232 34.056-19.44 9.648-9.144 17.136-19.8 25.2-30.24 10.872-14.04 24.264-23.544 39.888-31.68-6.84-57.96-3.312-116.64 15.624-172.296 6.336-18.576 14.256-36.216 23.544-53.496l-35.568-38.592c-9.936 6.264-18.648 9-30.456 8.424-16.776-.936-31.968-7.992-46.368-15.984-9.144-5.112-26.64-15.192-35.496-11.088-8.64 4.032-11.088 17.208-.072 18.432 5.616.648 12.456-4.176 13.464-9.576 5.688 2.52 11.088 6.12 16.776 9.576 15.192 9.288 33.192 16.776 51.192 17.784 10.296.504 20.16-.936 29.232-5.832l26.208 28.224c-8.352 15.984-15.336 32.4-21.096 49.248-18.576 54.432-23.112 113.04-16.776 169.992-14.472 7.92-27.216 18.216-37.296 31.32-7.776 10.008-15.048 20.376-24.264 29.16-6.984 6.552-18.648 16.056-28.656 16.992-4.896.504-6.984-1.224-10.08-4.608-4.176-4.608-9.72-1.656-7.56 4.104 2.664 7.2 11.448 10.296 18.504 9.576z"/><path d="M212.184 149.688h-2.304v11.448h-10.296v-36.864h12.888c7.488 0 10.512 6.048 10.512 12.744 0 7.2-2.952 12.672-10.8 12.672zm.576-12.672c0-.936.144-2.016-.936-2.016h-1.944v4.104h1.944c1.008 0 .936-1.296.936-2.088z"/><path fill="#FFF" d="M212.184 192.24c-4.68-2.88-10.512-7.632-16.416-8.496-6.336-1.008-13.968 3.96-20.16 5.76-14.4 4.248-29.52 6.336-44.496 5.328l-1.728 2.088c7.848 24.912 13.176 50.544 16.416 76.464 3.312 26.208 4.392 52.704 3.816 79.2a115.013 115.013 0 0 1 18.216 16.272c8.136 9 14.04 21.744 23.832 28.8 11.52 8.352 29.52 8.352 41.04 0 9.792-7.056 15.696-19.8 23.832-28.8a115.013 115.013 0 0 1 18.216-16.272c-.576-26.496.504-52.992 3.816-79.2 3.24-25.92 8.568-51.552 16.416-76.464l-1.728-2.088c-14.976 1.008-30.096-1.08-44.496-5.328-6.192-1.8-13.824-6.768-20.16-5.76-5.904.864-11.736 5.616-16.416 8.496z"/><path fill="#004595" d="M228.816 269.712h-33.264v40.032c0 6.912 7.488 12.6 16.632 12.6s16.632-5.688 16.632-12.6v-40.032z"/><path fill="#FFF" d="M212.184 297c1.728 0 3.096-1.44 3.096-3.168s-1.368-3.096-3.096-3.096c-1.656 0-3.096 1.368-3.096 3.096s1.44 3.168 3.096 3.168zM202.68 281.448c1.656 0 3.096-1.368 3.096-3.096s-1.44-3.168-3.096-3.168c-1.728 0-3.168 1.44-3.168 3.168s1.44 3.096 3.168 3.096zM202.68 312.408c1.656 0 3.096-1.368 3.096-3.096s-1.44-3.168-3.096-3.168c-1.728 0-3.168 1.44-3.168 3.168s1.44 3.096 3.168 3.096zM221.76 281.448c1.728 0 3.096-1.368 3.096-3.096s-1.368-3.168-3.096-3.168-3.168 1.44-3.168 3.168 1.44 3.096 3.168 3.096zM221.76 312.408c1.728 0 3.096-1.368 3.096-3.096s-1.368-3.168-3.096-3.168-3.168 1.44-3.168 3.168 1.44 3.096 3.168 3.096z"/><path fill="#004595" d="M228.816 334.152h-33.264v40.104c0 6.912 7.488 12.528 16.632 12.528s16.632-5.616 16.632-12.528v-40.104z"/><path fill="#FFF" d="M212.184 361.512c1.728 0 3.096-1.44 3.096-3.168a3.073 3.073 0 0 0-3.096-3.096c-1.656 0-3.096 1.368-3.096 3.096s1.44 3.168 3.096 3.168zM202.68 345.888c1.656 0 3.096-1.44 3.096-3.168 0-1.728-1.44-3.096-3.096-3.096-1.728 0-3.168 1.368-3.168 3.096s1.44 3.168 3.168 3.168zM202.68 376.92c1.656 0 3.096-1.368 3.096-3.096s-1.44-3.168-3.096-3.168c-1.728 0-3.168 1.44-3.168 3.168 0 1.728 1.44 3.096 3.168 3.096zM221.76 345.888c1.728 0 3.096-1.44 3.096-3.168 0-1.728-1.368-3.096-3.096-3.096s-3.168 1.368-3.168 3.096 1.44 3.168 3.168 3.168zM221.76 376.92a3.073 3.073 0 0 0 3.096-3.096c0-1.728-1.368-3.168-3.096-3.168s-3.168 1.44-3.168 3.168c0 1.728 1.44 3.096 3.168 3.096z"/><path fill="#004595" d="M188.856 269.712h-33.408v40.032c0 6.912 7.488 12.6 16.704 12.6s16.704-5.688 16.704-12.6v-40.032z"/><path fill="#FFF" d="M172.008 297c1.728 0 3.168-1.44 3.168-3.168s-1.44-3.096-3.168-3.096-3.168 1.368-3.168 3.096 1.44 3.168 3.168 3.168zM162.432 281.448c1.728 0 3.168-1.368 3.168-3.096s-1.44-3.168-3.168-3.168c-1.728 0-3.168 1.44-3.168 3.168s1.44 3.096 3.168 3.096zM162.432 312.408c1.728 0 3.168-1.368 3.168-3.096s-1.44-3.168-3.168-3.168c-1.728 0-3.168 1.44-3.168 3.168s1.44 3.096 3.168 3.096zM181.584 281.448c1.728 0 3.168-1.368 3.168-3.096s-1.44-3.168-3.168-3.168-3.168 1.44-3.168 3.168 1.44 3.096 3.168 3.096zM181.584 312.408c1.728 0 3.168-1.368 3.168-3.096s-1.44-3.168-3.168-3.168-3.168 1.44-3.168 3.168 1.44 3.096 3.168 3.096z"/><path fill="#004595" d="M235.512 269.712h33.408v40.032c0 6.912-7.488 12.6-16.704 12.6-9.216 0-16.704-5.688-16.704-12.6v-40.032z"/><path fill="#FFF" d="M252.36 297c1.728 0 3.168-1.44 3.168-3.168s-1.44-3.096-3.168-3.096-3.168 1.368-3.168 3.096 1.44 3.168 3.168 3.168zM261.936 281.448c1.728 0 3.168-1.368 3.168-3.096s-1.44-3.168-3.168-3.168-3.168 1.44-3.168 3.168 1.44 3.096 3.168 3.096zM261.936 312.408c1.728 0 3.168-1.368 3.168-3.096s-1.44-3.168-3.168-3.168-3.168 1.44-3.168 3.168 1.44 3.096 3.168 3.096zM242.784 281.448c1.728 0 3.168-1.368 3.168-3.096s-1.44-3.168-3.168-3.168c-1.728 0-3.168 1.44-3.168 3.168s1.44 3.096 3.168 3.096zM242.784 312.408c1.728 0 3.168-1.368 3.168-3.096s-1.44-3.168-3.168-3.168c-1.728 0-3.168 1.44-3.168 3.168s1.44 3.096 3.168 3.096z"/><path fill="#D3C084" d="M211.824 132.336h-4.608v9.432h4.608c2.232 0 3.6-1.584 3.6-4.752 0-2.592-.864-4.68-3.6-4.68zm.36 14.76h-4.968v11.376h-5.04v-31.608h10.296c4.752 0 7.848 3.312 7.848 10.152 0 5.76-1.8 10.08-8.136 10.08z"/><path d="M220.896 149.544h10.152v11.592h-10.152z"/><path fill="#D3C084" d="M223.56 152.208h4.896v6.264h-4.896z"/><path d="m253.512 165.528 2.52-11.376 9.648 2.16-2.52 11.376z"/><path fill="#D3C084" d="m258.048 157.32 4.536 1.008-1.44 6.192-4.464-1.008z"/><path d="m235.152 161.352 8.136-35.928 20.736 4.68-2.376 10.584-11.016-2.52-.432 1.944 9.648 2.16-2.376 10.584-9.648-2.16-2.88 12.888z"/><path fill="#D3C084" d="m245.232 128.592 15.624 3.528-1.152 5.4-11.016-2.52-1.656 7.128 9.648 2.16-1.224 5.4-9.576-2.16-2.952 12.888-4.608-1.008z"/><path d="m184.968 161.568-2.232-11.376 9.72-1.944 1.728 8.784.504 2.592z"/><path fill="#D3C084" d="m185.832 152.28 4.536-.936 1.224 6.264-4.536.864z"/><path d="m166.896 166.104-8.208-35.856 20.664-4.752 2.52 10.512-11.088 2.52.504 1.944 9.576-2.232 2.448 10.584-9.648 2.232 3.024 12.888z"/><path fill="#D3C084" d="m161.856 132.192 15.552-3.528 1.224 5.4-11.016 2.52 1.656 7.056 9.648-2.232 1.224 5.4-9.576 2.232 2.952 12.888-4.608 1.08z"/><path fill="#004595" d="M228.816 205.2h-33.264v40.104c0 6.984 7.488 12.6 16.632 12.6s16.632-5.616 16.632-12.6V205.2z"/><path fill="#FFF" d="M212.184 232.56c1.728 0 3.096-1.368 3.096-3.096s-1.368-3.168-3.096-3.168c-1.656 0-3.096 1.44-3.096 3.168s1.44 3.096 3.096 3.096zM202.68 216.936c1.656 0 3.096-1.368 3.096-3.096s-1.44-3.168-3.096-3.168c-1.728 0-3.168 1.44-3.168 3.168s1.44 3.096 3.168 3.096zM202.68 247.968c1.656 0 3.096-1.368 3.096-3.096s-1.44-3.168-3.096-3.168c-1.728 0-3.168 1.44-3.168 3.168s1.44 3.096 3.168 3.096zM221.76 216.936c1.728 0 3.096-1.368 3.096-3.096s-1.368-3.168-3.096-3.168-3.168 1.44-3.168 3.168 1.44 3.096 3.168 3.096zM221.76 247.968c1.728 0 3.096-1.368 3.096-3.096s-1.368-3.168-3.096-3.168-3.168 1.44-3.168 3.168 1.44 3.096 3.168 3.096z"/></svg>