<svg version="1.1" id="Camada_1" xmlns="http://www.w3.org/2000/svg" x="0" y="0" viewBox="0 0 3034.3 5000" style="enable-background:new 0 0 3034.3 5000" xml:space="preserve"><style>.st0,.st2{fill-rule:evenodd;clip-rule:evenodd;fill:#ffd200}.st2{fill:#029c55}</style><g id="surface1"><path class="st0" d="M1234.7 854.3c-63.3 24-123.3 55.3-180.3 90.7C916 1031 794 1140.7 666 1240c-118.3 91.7-239.7 173-378.7 228 13.3 22 25.3 45 36 68.7 67 151 64.7 342.3 64.3 503.7-.3 241 1 481.7 1.3 722.7 0 119.7 1.7 241.7 12.7 361 3.7 41 12 127.3 30.7 164.3l1.7 3.3 1.3 3.7c54.7 148 148 264.3 297.7 333 182 72.3 367 150.7 539.3 242.3 77.7 41.3 172 95.3 244.7 156.7 72.7-61.3 167-115.3 244.7-156.7 172-91.7 357.3-170 539.3-242.3 149.7-68.7 243-185.3 297.7-333l1.3-3.7 1.7-3.3c19-37 27-123.3 30.7-164.3 11-119.3 12.3-241.3 12.7-361 .3-241 1.7-481.7 1.3-722.7-.3-161.3-2.7-352.7 64.3-503.7 10.3-23.7 22.7-46.7 36-68.7-139.3-55.3-260.3-136.3-378.7-228-128-99-250-209-388.3-295-57-35.7-117-66.7-180.3-90.7-91.3-17.3-188-30.3-281-28.7h-2.7c-93-1.6-189.7 11.4-281 28.7"/><path d="M1266.7 963.3c-56.3 22.3-109.3 51.3-160 84.3-122.7 80-231 182.3-344.3 274.3-105 85.3-212.7 161-336 212.3 12 20.7 22.7 41.7 32 64 59.3 140.3 57.3 318.7 57 468.7-.3 224.3.7 448.3 1 672.3 0 111.3 1.7 225 11.3 336 3.3 38 10.7 118.3 27.3 153l1.3 3 1 3.3c48.7 137.7 131.3 246 264 310C982.7 3612 1147 3685 1299.7 3770c69 38.7 152.7 88.7 217 145.7 64.3-57 148-107.3 217-145.7 152.7-85.3 317-158 478.3-225.3 132.7-64 215.7-172.3 264-310l1.3-3.3 1.3-3c16.7-34.3 24-114.7 27.3-153 9.7-111 11-224.7 11.3-336 .3-224.3 1.3-448.3 1-672.3-.3-150-2.3-328.3 57-468.7 9.3-22 20-43.3 32-64-123.7-51.3-231-127-336-212.3-113.3-92.3-221.7-194.3-344.3-274.3-50.7-33-103.7-62-160-84.3-81-16.3-166.7-28.3-249.3-27h-2c-82.3-1.5-167.9 10.8-248.9 26.8" style="fill-rule:evenodd;clip-rule:evenodd;fill:#005aff"/><path class="st2" d="M1276.3 3757.3c8 4.3 15.7 8.7 23.7 13 69 38.7 152.7 88.7 217 145.7v-957h-240.7v798.3m481.4-2796c-78-15.3-160.3-26.3-239.7-25h-1V1648h240.7V961.3M515.3 2081.7c0 80 0 160 .3 240h303.7v-240h-304m2002.7 480c.3-80 .3-160 .7-240H2177v240h341"/><path d="M281.7 2067c-8-350-54.7-501.3-267-680.3 538-20.3 750-518.3 1234-661.3 9.3-2 18.3-3.7 27.7-5.3v178.3c-9 1.7-18.3 3.3-27.7 5.3-345 134.7-546 482-917.7 599.7 107.7 146 123.3 264.3 122 564l.3 254.3h-167c-1-76-2.6-160.4-4.6-254.7zM1517 703c84.7-4.7 174 2.7 268.3 22.3 483.7 143 695.7 641 1234 661.3-212.3 179-259 330.3-267 680.3l-.3 14.7h-170.7V2067c-1.7-299.7 14.3-417.7 122-564-372-117.3-573.3-464.7-918.3-599.3-102.7-20.7-192-30.3-268.3-29V703h.3zm1230.7 1618.7c-8 620.3 12.3 674.7-30.3 865.3-20 110-58.3 209.3-115 297.3-101.7 183.3-283 309.7-543 378.7-117.3 47.7-217.7 98.7-301.7 153.3v-187.7c121-68 281-143.7 480.3-227 140.7-67.3 239.7-182.7 297.3-346 29.3-60.7 44.3-232.7 44.7-515.7l.7-418h167v-.2zM1659 4088.3c-2.3 2-4.7 3.7-6.7 5.7 2-2 4.4-3.7 6.7-5.7zm-7 6-14 12c4.3-4 9-8 14-12zm-29 25.4c-2 2-4.3 4-6.3 6 2.3-2 4.3-4 6.3-6zm-13.3 12.6c-2 2-4 3.7-5.7 5.7l5.7-5.7zm-6.4 6.4-5.7 5.7c2.1-2.1 3.7-4.1 5.7-5.7zm-24.6 25.6c-1.7 2-3.3 4-5.3 6 1.6-2 3.3-4 5.3-6zm-5.7 6.4c-1.7 2-3.7 4-5.3 6 1.6-2 3.3-4 5.3-6zm-6 6.6c-5.7 6.3-10.7 12.7-16 19l16-19zm-16.3 19.7c-1.7 2-3.3 4-5 6.3 1.6-2.3 3.3-4.3 5-6.3zm-5 6.3c-1.7 2-3 4-4.7 6 1.3-2 3-4 4.7-6zm-10.4 13.7c-1.3 2-3 4-4.3 6l4.3-6zm-4.6 6.7c-1.3 2-2.7 4-4.3 6 1.3-2 2.6-4 4.3-6zm-5 7-4 6 4-6zm-4.4 6.3c-1.3 2-3 4.3-4.3 6.7-94-145-274.7-271.7-542.3-380.3-260.3-69-441.3-195.3-543.3-378.7-57-88-95.3-187.3-115-297.3-36-162.3-26.7-226.3-28-625.3h165.3l.3 178.3c.3 283 15.3 455 44.7 515.7 57.7 163.7 157 279 297.3 346 391 163 631.3 297.3 721 402.7v239c1.3-2.5 2.7-4.8 4.3-6.8" style="fill-rule:evenodd;clip-rule:evenodd;fill:#1f1960"/><path class="st0" d="M778 2561.7v-240H286.3c1.3 91.7 1.7 170.7 2 240H778m1889.7-480h-432.3v240h512.3c1-72 2.3-151.7 4-240h-84m-1391.4-464.4H1517V703c-76.3-4.3-156.7 1.3-240.7 17v897.3m481.4 2301.4v-879H1517v1204c52.7-81.7 133-157.3 240.7-227.3v-97.7"/><path d="M1021 1557.3h991.7l-255 286v238.3h239l287-254.7v988.7l-287-254h-239V2800l255.3 286.3h-992l255.3-286.3v-238.3h-239l-287 254.3v-988.7l287 254.7h239v-238.7l-255.3-286" style="fill-rule:evenodd;clip-rule:evenodd;fill:#fffdff"/><path class="st2" d="m1517 0 58.3 180.3 190-.3-154 111 59 180-153.7-111.7-153.3 112 59-180-154-111.3 190 .3L1517 0M819 152.3l58.3 180.3 190-.3-154 111 59 180.3L818.7 512 665 623.7l59-180.3-154-111 190 .3 59-180.4M248.3 587.7 306.7 768l190-.3-154 111 59 180L248 947 94.3 1058.7l59-180L0 767.7l190 .3 58.3-180.3m1966.4-435.4-58.3 180.3-190-.3 154 111-59 180.3L2215 512l153.7 111.7-59-180.3 153.7-110.7-190 .3-58.7-180.7m570.6 435.4L2727 768l-190-.3 154 111-59 180L2785.7 947l153.7 111.7-59-180 154-111-190 .3-59.1-180.3"/><path d="M1119.7 2345c0 19.3 1.3 35 3.3 47 2.3 12 6.7 21.7 13 28.7s15 11.7 26.3 14c11 2.7 25 3.7 42.3 3.7h38.7c7.7 0 16.3 0 26.7-.3 10-.3 21.7-.3 34.7-.7l-14.3 74c-22 .7-39.7 1-53 1H1200c-31.7 0-58.7-3-80.3-8.7-22-6-39.7-15.3-53.3-28.7-13.7-13-23.3-30.3-29-52-6-21.7-9-48-9-79.7V2299c0-31.3 3-57.7 9.3-79 6.3-21.3 16.3-38.7 29.7-52 13.7-13.3 31.3-23 53.3-28.7 22-6 48.3-9 79.3-9h39.3c8 0 17 0 27.3.3 10 .3 22 .3 35 .7l-14.3 74c-13.3-.3-27-.7-41.3-.7-14.3-.3-28.3-.3-42-.3-17.3 0-31.7 1.3-42.7 3.7-11 2.7-19.3 7-25.7 14-6.3 6.7-10.3 16.3-12.7 28.3-2 12-3.3 28-3.3 47.3l.1 47.4zm250.3-213.3h175c40 0 69 7.7 87.3 23.3 18.3 15.7 27.7 39.3 27.7 71v6c0 39-15.7 65.3-47 78.3 18 6 32.3 16.3 42.7 30.3 10 14.3 15.3 33 15.3 56.7v9.7c0 36.7-11 63.3-33.3 79.7-22.3 16.7-54.7 24.7-97 24.7h-170v-379.7h-.7zm83 312.6h80.7c19 0 32.3-3 40-9.3s11.7-17.7 11.7-34.3v-7c0-17-4-29-12-35.3-8-6.7-21.7-10-41.3-10h-78.7v96l-.4-.1zm0-245.3v82.7h74.3c17.3 0 29.7-3.3 37-9.7 7-6.3 10.7-16.7 10.7-30.3v-6.3c0-12.7-3.3-22-10-27.7s-18-8.7-34-8.7h-78zm372 312.7h-88.3v-380h269l-14 74h-167v83.3h159l-13.7 74.3h-145v148.4" style="fill:#231e60"/><path d="M206 4443.3h255.7c58.3 0 101 11.3 128 34.3 27 23 40.3 57.3 40.3 103.7v8.7c0 57-23 95.3-69 114.7 26.7 9 47.3 23.7 62.3 44.3 15 20.7 22.3 48.3 22.3 82.7v14c0 53.7-16.3 92.3-49 116.7-32.7 24.3-80 36.3-142 36.3H206v-555.4zM327 4900h118c27.7 0 47-4.7 58.3-13.7 11.3-9 17-26 17-50.3v-10.3c0-25-6-42.3-17.7-52-11.7-9.7-32-14.3-60.7-14.3H327V4900zm0-358.7v121h108.7c25.7 0 43.7-4.7 54-14 10.3-9.3 15.7-24 15.7-44.3v-9.3c0-18.7-4.7-32.3-14.3-40.7-9.7-8.3-26.3-12.3-49.7-12.3H327v-.4zm850.7 93c0 40.7-8.3 73-25.3 97s-41.7 42-74 53.3l126 213.7h-141.7l-106.3-195H868v195H742v-555h224.3c37.7 0 69.7 3 96.3 9.3 26.7 6.3 48.3 16 65.3 29.7s29.3 31 37.7 52.7c8 21.7 12 47.7 12 78.3l.1 21zm-127-13.3c0-14.7-1.7-26.7-4.7-36.3-3.3-9.7-8-17-15-22.7-6.7-5.3-15.7-9.3-27-11.3s-25.3-3-42-3h-94.7V4702H962c16.7 0 30.7-1 42-3s20.3-6 27-11.7 11.7-13.3 15-23c3-9.7 4.7-22 4.7-37v-6.3zm578.3 243.3h-200.3l-43.7 134h-129.7l201-555.3H1608l202 555.3h-135.3l-45.7-134zm-169-100.6h137.7L1528 4557l-68 206.7zm687.7-92.7c27 4.7 49.7 11.3 68 19.3 18.3 8.3 33 19 43.7 31.7 11 12.7 18.7 27.7 23.3 45.3 4.7 17.3 7 37.7 7 60.3v11.7c0 28-3.7 52-11 72s-19.7 36.7-36.7 50c-17.3 13.3-40 23-68 29.3-28 6.3-63 9.3-104 9.3h-81c-16 0-34 0-54-.3s-42.7-.7-68.3-1.3l19.7-104.3c41.3 1 76.3 1.7 105.3 1.7h80.3c17.3 0 31.3-1 42.7-2.7 11-1.7 20-4.7 26.7-9 6.7-4 11-9.7 13.3-16.7 2.3-7 3.7-16 3.7-27 0-10-.7-18.3-2-25-1.3-6.7-4.3-12.3-8.7-16.7s-10.3-8-18-11c-7.7-2.7-17.7-5.3-30-7.3l-82-14c-30.3-5.3-55-11.7-74.3-20-19.3-8-34.7-18.3-45.7-30.7-11.3-12.3-19-27.3-23-44.3-4-17-6.3-37-6.3-60v-12.7c0-25 3.7-47 11-66.3s19.3-35.7 36-49c16.7-13.7 38.3-23.7 65.3-30.7s59.7-10.3 98.3-10.3h84.7c15.3 0 32 0 50 .3s38.3.7 61.3 1.3l-19.7 104.3c-40.7-1-75.3-1.7-103.7-1.7h-75.3c-15.7 0-28.7 1-39 2.7-10.3 1.7-18.7 4.7-24.3 8.7s-9.7 9.3-12 16c-2.3 6.7-3.3 15-3.3 25 0 9 .7 16.3 2 22.7 1.3 6.3 4 11.3 7.7 15.7 4 4 9.7 7.7 16.7 10.7 7.3 3 17 5.3 29 7.3l94.6 15.7zm365.3-227.7v555.3h-129v-555.3h129zm249 0V4890h262l-21 108.3h-370v-555h129" style="fill:#029c55"/></g></svg>